<?xml version="1.0" standalone="no"?>
<!DOCTYPE svg PUBLIC "-//W3C//DTD SVG 1.1//EN" "http://www.w3.org/Graphics/SVG/1.1/DTD/svg11.dtd" >
<svg xmlns="http://www.w3.org/2000/svg" xmlns:xlink="http://www.w3.org/1999/xlink" version="1.1">
<metadata>
Created by FontForge 20170731 at Thu Feb 10 18:15:50 2011
 By Aleksey,,,
Copyright (c) 2004 by Magenta/ 2008 by George Triantafyllakos. Released under the SIL Open Font License (OFL).
</metadata>
<defs>
<font id="BPreplay-Bold" horiz-adv-x="625" >
  <font-face 
    font-family="BPreplay"
    font-weight="700"
    font-stretch="normal"
    units-per-em="1000"
    panose-1="2 0 8 3 0 0 0 2 0 4"
    ascent="800"
    descent="-200"
    x-height="580"
    cap-height="779"
    bbox="-169 -285 1370 1089"
    underline-thickness="50"
    underline-position="-175"
    unicode-range="U+0020-2260"
  />
<missing-glyph horiz-adv-x="283" 
 />
    <glyph glyph-name=".notdef" horiz-adv-x="283" 
 />
    <glyph glyph-name=".null" horiz-adv-x="0" 
 />
    <glyph glyph-name="nonmarkingreturn" horiz-adv-x="333" 
 />
    <glyph glyph-name="space" unicode=" " horiz-adv-x="283" 
 />
    <glyph glyph-name="exclam" unicode="!" horiz-adv-x="208" 
d="M169 690v-364q0 -78 -78 -78q-75 0 -75 78v364q0 83 76 83q77 0 77 -83zM4 89q0 37 26 63t63 26q38 0 64 -25.5t26 -63.5t-26 -63.5t-64 -25.5q-37 0 -63 26t-26 63z" />
    <glyph glyph-name="quotedbl" unicode="&#x22;" horiz-adv-x="369" 
d="M9 560v131q0 83 78 83q76 0 76 -83v-131q0 -79 -77 -79t-77 79zM203 560v131q0 83 78 83q79 0 79 -83v-131q0 -79 -80 -79q-77 0 -77 79z" />
    <glyph glyph-name="numbersign" unicode="#" horiz-adv-x="663" 
d="M132 550h34q3 30 20 149q11 73 72 73q30 0 53.5 -22.5t23.5 -52.5l-20 -147h34l21 150q9 73 73 73q30 0 51.5 -21.5t21.5 -53.5v-9l-18 -139h12q32 0 55.5 -18.5t23.5 -54.5q0 -74 -84 -74h-26q-5 -20 -10 -55h13q76 0 76 -75q0 -36 -25 -55.5t-54 -19.5h-31l-18 -117
q-12 -81 -82 -81q-66 0 -66 68v4v2q1 3 1 4l18 120h-36l-17 -116q-12 -82 -82 -82q-66 0 -66 68v4q0 2 0.5 3.5t0.5 2.5l17 120h-11q-85 0 -85 75q0 36 25.5 55.5t57.5 19.5h32q5 18 11 55h-16q-78 0 -78 75q0 72 78 72zM330 403h-36l-9 -55h36z" />
    <glyph glyph-name="dollar" unicode="$" horiz-adv-x="544" 
d="M215 797v26q0 37 7.5 50t40.5 13q32 0 39 -14.5t7 -56.5v-21q66 -12 119 -52q45 -33 45 -78q0 -32 -23 -58t-56 -26t-63 25l-22 14v-136q52 -25 84.5 -45.5t63 -48.5t45 -63t14.5 -80q0 -101 -57 -167t-150 -84v-42q0 -34 -7.5 -46.5t-39.5 -12.5q-17 0 -27 3.5t-14 13.5
t-5 19t-1 30v29q-87 8 -157 54q-46 30 -46 79q0 77 78 77q30 0 59 -17q32 -20 66 -26v189q-34 16 -57.5 29t-52 34.5t-46 43.5t-29.5 53.5t-12 67.5q0 79 55 144.5t142 79.5zM346 240q0 31 -37 56v-125q37 24 37 69zM186 577q0 -28 29 -49v100q-29 -12 -29 -51z" />
    <glyph glyph-name="percent" unicode="%" horiz-adv-x="948" 
d="M733 418q86 0 137.5 -62.5t51.5 -149.5q0 -89 -50.5 -147.5t-138.5 -58.5q-89 0 -142 61.5t-53 150.5t53 147.5t142 58.5zM733 139q21 0 32.5 19t11.5 47t-11.5 50t-32.5 22t-33.5 -20.5t-12.5 -47.5q0 -29 12 -49.5t34 -20.5zM221 354q-86 0 -139.5 63.5t-53.5 150.5
q0 88 53 146t140 58t140 -61t53 -148q0 -89 -52.5 -149t-140.5 -60zM221 493q23 0 35 20t12 49t-12.5 49.5t-34.5 20.5q-21 0 -32 -20t-11 -48t11.5 -49.5t31.5 -21.5zM284 92l242 621q21 55 75 55q31 0 51.5 -21.5t20.5 -51.5q0 -18 -9 -41l-249 -626q-4 -14 -23.5 -28
t-45.5 -14q-28 0 -48 21t-20 54q0 17 6 31z" />
    <glyph glyph-name="ampersand" unicode="&#x26;" horiz-adv-x="760" 
d="M263 604q0 -39 29 -78q36 40 36 72q0 19 -9.5 28t-22.5 9t-23 -8t-10 -23zM546 16l-53 56q-83 -91 -200 -91q-123 0 -195 69.5t-72 179.5q0 129 134 234q-43 58 -43 125q0 85 54 134t127 49q70 0 120.5 -47t50.5 -134q0 -78 -75 -155l97 -111l21 37q32 56 83 56
q33 0 54 -20.5t21 -52.5q0 -30 -21 -66l-53 -78l60 -68q19 -20 19 -50q0 -34 -23.5 -58.5t-54.5 -24.5q-34 0 -51 16zM398 189l-141 155q-76 -62 -76 -115q0 -41 34.5 -68.5t78.5 -27.5q58 0 104 56z" />
    <glyph glyph-name="quotesingle" unicode="'" horiz-adv-x="255" 
d="M220 656l-57 -131q-24 -50 -76 -50q-32 0 -56.5 21.5t-24.5 52.5q0 13 4 27l56 137q24 61 81 61q32 0 56.5 -24t24.5 -58q0 -18 -8 -36z" />
    <glyph glyph-name="parenleft" unicode="(" horiz-adv-x="289" 
d="M147 738q29 24 58 24q30 0 51.5 -21.5t21.5 -51.5t-21 -54q-98 -116 -98 -282q0 -82 24.5 -161.5t77.5 -134.5q17 -24 17 -52q0 -32 -20.5 -52t-51.5 -20q-35 0 -59 25q-71 71 -105 178.5t-34 221.5q0 230 139 380z" />
    <glyph glyph-name="parenright" unicode=")" horiz-adv-x="289" 
d="M134 742q143 -154 143 -384q0 -114 -34 -222t-104 -178q-24 -25 -58 -25q-31 0 -52.5 20t-21.5 52q0 28 17 52q102 103 102 296q0 167 -97 282q-22 27 -22 54q0 30 22.5 51.5t52.5 21.5q28 0 52 -20z" />
    <glyph glyph-name="asterisk" unicode="*" 
d="M195 547l-24 16q-26 23 -26 55q0 28 21 49.5t50 21.5q5 0 14.5 -2t11.5 -2l25 -16q0 5 -1.5 12.5t-1.5 10.5q8 32 27.5 49t44.5 17q22 0 42 -16t29 -45l-1 -28l10 7q17 12 41 12q26 0 48 -21t22 -50q0 -35 -36 -63l-14 -7l9 -4q41 -22 41 -64q0 -28 -20.5 -49.5
t-49.5 -21.5q-13 0 -50 16v-11q0 -35 -21 -55t-50 -20q-27 0 -47.5 17.5t-24.5 49.5v20q-33 -18 -48 -18q-28 0 -49.5 20.5t-21.5 50.5t28 57z" />
    <glyph glyph-name="plus" unicode="+" 
d="M131 370h118v117q0 38 22 60.5t59 22.5q34 0 57 -24t23 -59v-117h118q41 0 64.5 -22.5t23.5 -58.5q0 -83 -88 -83h-118v-124q0 -34 -22.5 -58t-56.5 -24q-38 0 -60 22.5t-22 59.5v124h-118q-39 0 -62 21t-23 62q0 38 23.5 59.5t61.5 21.5z" />
    <glyph glyph-name="comma" unicode="," horiz-adv-x="254" 
d="M221 81l-67 -155q-22 -48 -70 -48q-30 0 -54 23.5t-24 54.5q0 10 5 25q0 1 1 3l60 145q24 56 78 56q31 0 54 -22.5t23 -52.5q0 -2 -6 -29z" />
    <glyph glyph-name="hyphen" unicode="-" horiz-adv-x="391" 
d="M99 370h183q83 0 83 -80q0 -77 -83 -77h-183q-83 0 -83 77q0 32 23 56t60 24z" />
    <glyph glyph-name="period" unicode="." horiz-adv-x="209" 
d="M4 89q0 37 26 63t63 26q38 0 64 -25.5t26 -63.5t-26 -63.5t-64 -25.5q-37 0 -63 26t-26 63z" />
    <glyph glyph-name="slash" unicode="/" 
d="M147 92l240 621q24 55 77 55q31 0 51 -21.5t20 -51.5q0 -20 -8 -41l-249 -626q-4 -14 -23.5 -28t-45.5 -14q-28 0 -48 21t-20 54q0 17 6 31z" />
    <glyph glyph-name="zero" unicode="0" horiz-adv-x="589" 
d="M288 772h4q56 0 102 -25t74.5 -65.5t48 -93t27.5 -104.5t8 -104q0 -64 -14.5 -129t-43.5 -125.5t-82 -98.5t-122 -38q-72 0 -126 36.5t-83 96t-43 124t-14 132.5q0 66 14.5 131t43.5 126t82.5 99t123.5 38zM290 147q26 0 46.5 24t31.5 60.5t16.5 73.5t5.5 70
q0 38 -5.5 77.5t-16.5 76.5t-31 60t-46 23q-29 0 -50.5 -24t-32 -62.5t-15.5 -75.5t-5 -73q0 -51 9 -100.5t33.5 -89.5t59.5 -40z" />
    <glyph glyph-name="one" unicode="1" horiz-adv-x="382" 
d="M133 83v485q-31 -12 -54 -12q-31 0 -53.5 21t-22.5 53q0 27 16.5 49t49.5 31l147 40q52 0 70 -47q8 -11 8 -61v-559q0 -36 -22 -59.5t-58 -23.5t-58.5 23.5t-22.5 59.5z" />
    <glyph glyph-name="two" unicode="2" horiz-adv-x="550" 
d="M21 541q0 101 71 164.5t164 63.5q91 0 160.5 -59.5t69.5 -151.5q0 -98 -73 -197l-155 -205h161q76 0 76 -77q0 -79 -77 -79h-296q-93 0 -93 77q0 29 22 59l243 329q30 39 30 86q0 27 -21.5 43.5t-49.5 16.5q-29 0 -50 -19.5t-21 -54.5q0 -31 -21.5 -59.5t-57.5 -28.5
q-38 0 -60 29t-22 63z" />
    <glyph glyph-name="three" unicode="3" horiz-adv-x="535" 
d="M246 772q95 0 156.5 -63.5t61.5 -145.5q0 -100 -88 -156q57 -31 86 -80.5t29 -105.5q0 -92 -67.5 -162t-175.5 -70q-62 0 -113.5 28t-82.5 71q-29 41 -29 89q0 37 21.5 58.5t52.5 21.5q22 0 43.5 -13.5t31.5 -36.5q25 -58 75 -58q34 0 59 22t25 60q0 34 -17.5 63
t-48.5 34h-33q-85 0 -85 68q0 36 20.5 51t64.5 15q19 0 29 2q19 6 31.5 33t12.5 53q0 30 -16.5 48t-46.5 18q-59 0 -65 -50q-1 -16 -15.5 -35t-46.5 -19q-83 0 -83 72q0 74 61.5 131t152.5 57z" />
    <glyph glyph-name="four" unicode="4" horiz-adv-x="592" 
d="M317 86v82h-210q-43 0 -67 25t-24 61q0 33 21 61l-2 -3l232 374q40 64 106 64q44 0 73 -30t29 -80v-316q75 0 75 -79q0 -76 -74 -76v-83q0 -86 -80 -86q-37 0 -58 22t-21 64zM317 485l-93 -161h93v161z" />
    <glyph glyph-name="five" unicode="5" horiz-adv-x="550" 
d="M202 748h210q36 0 57 -24t21 -59q0 -78 -78 -78h-166q-4 -28 -12 -77q125 0 192 -74t67 -178q0 -108 -70 -188.5t-194 -80.5q-92 0 -160.5 51.5t-68.5 105.5q0 36 21.5 56.5t51.5 20.5q38 0 63 -34q15 -19 42.5 -31.5t54.5 -12.5q43 0 71 31.5t28 73.5q0 43 -26.5 74.5
t-74.5 31.5q-17 0 -45.5 -7.5t-43.5 -7.5q-80 0 -80 77q0 16 47 257q15 73 93 73z" />
    <glyph glyph-name="six" unicode="6" horiz-adv-x="544" 
d="M369 616q-5 -5 -23 -20.5t-26 -23t-23.5 -23t-24.5 -26.5t-19.5 -27t-17.5 -32q28 15 81 15q91 0 141 -65t50 -155q0 -110 -69.5 -190t-179.5 -80q-116 0 -181 83t-65 200q0 125 67.5 241t171.5 213q31 24 60 24q35 0 58.5 -21.5t23.5 -58.5q0 -30 -24 -54zM170 258
q0 -45 23.5 -79t64.5 -35q42 4 67 36.5t25 76.5q0 42 -24 72t-70 30q-42 0 -64 -30t-22 -71z" />
    <glyph glyph-name="seven" unicode="7" horiz-adv-x="544" 
d="M93 749h315q34 0 59.5 -24t25.5 -62q0 -19 -9 -41l-236 -559q-27 -63 -84 -63q-38 0 -56.5 23.5t-18.5 55.5q0 21 9 41l200 467h-205q-86 0 -86 82q0 80 86 80z" />
    <glyph glyph-name="eight" unicode="8" horiz-adv-x="547" 
d="M20 237q0 52 28.5 101t72.5 74q-34 21 -55 61.5t-21 85.5q0 88 64.5 148.5t154.5 60.5q93 0 153.5 -58.5t60.5 -150.5q0 -40 -22 -80t-55 -61q41 -20 73 -75t32 -108q0 -101 -70 -173.5t-171 -72.5q-109 0 -177 70t-68 178zM265 330q-36 0 -58.5 -26.5t-22.5 -63.5
q0 -39 22 -65t59 -26q34 0 55.5 26t21.5 63q0 39 -22 65.5t-55 26.5zM262 485q23 0 38 21t15 48t-15.5 42.5t-36.5 15.5q-23 0 -40.5 -15.5t-17.5 -42.5q0 -29 15 -49t42 -20z" />
    <glyph glyph-name="nine" unicode="9" horiz-adv-x="579" 
d="M175 125q102 82 154 159q-48 -17 -94 -17q-98 0 -156.5 73t-58.5 165q0 108 67.5 187t188.5 79q114 0 182 -82t68 -207q0 -52 -12 -107t-38.5 -118t-78.5 -129.5t-124 -124.5q-24 -19 -55 -19q-32 0 -54 21t-22 52q0 40 33 68zM272 613q-44 0 -68 -34.5t-24 -78.5
q0 -51 27 -80.5t66 -29.5q42 0 69.5 27.5t27.5 81.5q0 45 -25.5 79.5t-72.5 34.5z" />
    <glyph glyph-name="colon" unicode=":" horiz-adv-x="207" 
d="M4 89q0 37 26 63t63 26q38 0 64 -25.5t26 -63.5t-26 -63.5t-64 -25.5q-37 0 -63 26t-26 63zM4 400q0 37 26 63t63 26q38 0 64 -25.5t26 -63.5q0 -37 -26 -62.5t-64 -25.5q-37 0 -63 25.5t-26 62.5z" />
    <glyph glyph-name="semicolon" unicode=";" horiz-adv-x="254" 
d="M53 400q0 38 25.5 63.5t63.5 25.5t63.5 -25.5t25.5 -63.5q0 -37 -26 -62.5t-63 -25.5t-63 25.5t-26 62.5zM154 -74l67 155q6 27 6 29q0 30 -23 52.5t-54 22.5q-54 0 -78 -56l-60 -145v-1q-1 -1 -1 -2q-5 -15 -5 -25q0 -31 24 -54.5t54 -23.5q48 0 70 48z" />
    <glyph glyph-name="less" unicode="&#x3c;" horiz-adv-x="651" 
d="M570 423l-306 -127l301 -136q58 -26 58 -78q0 -33 -21 -57t-55 -24q-25 0 -55 14l-395 197q-56 28 -56 81q0 54 56 80l407 189h1q1 1 2 1q28 10 45 10q31 0 51.5 -21t20.5 -52q0 -51 -54 -77z" />
    <glyph glyph-name="equal" unicode="=" horiz-adv-x="659" 
d="M124 470h419q76 0 76 -78q0 -76 -76 -76h-419q-77 0 -77 78q0 76 77 76zM543 81h-419q-77 0 -77 77q0 78 77 78h419q76 0 76 -77q0 -78 -76 -78z" />
    <glyph glyph-name="greater" unicode="&#x3e;" horiz-adv-x="651" 
d="M408 290l-313 133q-54 26 -54 77q0 31 20.5 52t51.5 21q16 0 49 -11l405 -189q57 -27 57 -80q0 -25 -15.5 -47t-40.5 -34l-396 -197q-30 -14 -54 -14q-35 0 -54.5 20.5t-19.5 53.5q0 49 59 78q54 26 149.5 67t155.5 70z" />
    <glyph glyph-name="question" unicode="?" horiz-adv-x="490" 
d="M106 89q0 37 26 63t63 26t62.5 -26t25.5 -63t-25.5 -63t-62.5 -26t-63 26t-26 63zM265 546q0 24 -14 36t-33 12q-17 0 -29.5 -12t-13.5 -29q-4 -36 -26 -56.5t-52 -20.5q-31 0 -53.5 22t-22.5 63q0 87 61 138t140 51q84 0 142.5 -54t58.5 -150q0 -114 -173 -289
q-28 -24 -56 -24q-35 0 -55.5 21.5t-20.5 56.5q0 32 31 64q60 60 88 98.5t28 72.5z" />
    <glyph glyph-name="at" unicode="@" horiz-adv-x="833" 
d="M500 536q5 43 33 43q34 0 34 -48v-207q0 -80 42 -80q38 0 61 49t23 144q0 122 -76 195t-194 73q-143 0 -224.5 -95.5t-81.5 -246.5q0 -139 84.5 -224.5t209.5 -85.5q166 0 243 86q19 20 37 20q12 0 20 -7t8 -19q0 -21 -13 -35q-52 -58 -134 -84.5t-166 -26.5
q-152 0 -255.5 102.5t-103.5 271.5q0 180 101 295t276 115q150 0 243 -87.5t93 -241.5q0 -114 -41.5 -189.5t-106.5 -75.5q-54 0 -100 57q-51 -56 -116 -56q-81 0 -124.5 57t-43.5 137q0 84 46.5 146t128.5 62q53 0 97 -44zM494 298v174q-37 40 -79 40q-53 0 -84.5 -42
t-31.5 -98q0 -51 27 -88t78 -37q59 0 90 51z" />
    <glyph glyph-name="A" unicode="A" horiz-adv-x="680" 
d="M330 501l-72 -198h142zM495 51l-35 90h-255q-5 -14 -14 -39t-13 -36q-22 -66 -85 -66q-38 0 -57 22.5t-19 56.5q0 13 6 33l210 594q26 71 97 71t97 -71q223 -609 223 -628q0 -35 -20.5 -56.5t-57.5 -21.5q-57 0 -77 51z" />
    <glyph glyph-name="B" unicode="B" horiz-adv-x="614" 
d="M13 91v596q0 90 84 90h182q30 0 62 -7t65 -23t59 -39.5t42 -59.5t16 -80q0 -39 -31.5 -85t-63.5 -50q60 -9 104 -70.5t44 -124.5q0 -103 -71.5 -170.5t-170.5 -67.5h-221q-47 0 -67 15q-33 23 -33 76zM174 345v-185h151q44 0 69 25t25 60q0 40 -33 70t-93 30h-119z
M174 470h117q38 0 58.5 20.5t20.5 49.5q0 31 -23 54t-64 23h-109v-147z" />
    <glyph glyph-name="C" unicode="C" horiz-adv-x="712" 
d="M501 204q24 24 55 24q40 0 60 -23t20 -58q0 -42 -30 -69q-100 -89 -228 -89q-88 0 -158.5 34.5t-114 91.5t-66.5 128.5t-23 148.5q0 78 23.5 150.5t68 131t116 93.5t159.5 35q132 0 228 -87q31 -29 31 -68q0 -37 -22.5 -60t-56.5 -23q-39 0 -61 24q-47 47 -122 47
q-93 0 -144.5 -70t-51.5 -167q0 -98 52 -167.5t145 -69.5q77 0 120 43z" />
    <glyph glyph-name="D" unicode="D" horiz-adv-x="660" 
d="M16 84v603q0 90 100 90h183q102 0 177 -58.5t110 -145.5t35 -188q0 -99 -40.5 -186t-120 -143t-180.5 -56h-179q-50 0 -67.5 16t-17.5 68zM289 617h-112v-457h99q83 0 131.5 67t48.5 158q0 95 -44 163.5t-123 68.5z" />
    <glyph glyph-name="E" unicode="E" horiz-adv-x="485" 
d="M11 88v602q0 87 84 87h282q80 0 80 -80t-80 -80h-206v-135h161q80 0 80 -81q0 -79 -80 -79h-161v-162h213q86 0 86 -80t-86 -80h-289q-54 0 -69 17t-15 71z" />
    <glyph glyph-name="F" unicode="F" horiz-adv-x="444" 
d="M10 73v614q0 90 84 90h273q81 0 81 -80t-81 -80h-196v-152h138q79 0 79 -81q0 -80 -79 -80h-138v-231q0 -73 -81 -73q-80 0 -80 73z" />
    <glyph glyph-name="G" unicode="G" horiz-adv-x="722" 
d="M369 153q68 0 108 39t48 111h-145q-87 0 -87 80q0 81 90 81h201q64 0 84.5 -33.5t20.5 -95.5q0 -153 -88 -249.5t-235 -96.5q-85 0 -153 33t-109.5 89t-63.5 125t-22 145q0 84 23 159.5t66.5 135.5t114 95t157.5 35q93 0 176 -47.5t83 -113.5q0 -36 -20.5 -57.5
t-50.5 -21.5q-34 0 -61 26q-53 48 -130 48q-91 0 -140 -73.5t-49 -184.5q0 -94 47.5 -161.5t134.5 -67.5z" />
    <glyph glyph-name="H" unicode="H" horiz-adv-x="679" 
d="M17 80v618q0 81 78 81q81 0 81 -81v-223h290v223q0 81 80 81q81 0 81 -81v-618q0 -80 -81 -80q-80 0 -80 80v234h-290v-234q0 -80 -80 -80q-79 0 -79 80z" />
    <glyph glyph-name="I" unicode="I" horiz-adv-x="204" 
d="M1 81v617q0 81 80 81q81 0 81 -81v-617q0 -81 -81 -81q-80 0 -80 81z" />
    <glyph glyph-name="J" unicode="J" horiz-adv-x="452" 
d="M393 698v-514q0 -90 -55.5 -143t-145.5 -53q-92 0 -156 58q-28 22 -28 60q0 82 78 82q22 0 65 -29q20 -14 42 -14q38 0 38 39v514q0 81 80 81q82 0 82 -81z" />
    <glyph glyph-name="K" unicode="K" horiz-adv-x="591" 
d="M15 76v629q0 74 79 74q81 0 81 -74v-218l243 267q18 23 55 23q32 0 58 -25.5t26 -57.5q0 -36 -23 -56l-173 -188l194 -317q20 -21 20 -53q0 -35 -29.5 -58t-51.5 -23q-23 0 -37.5 9t-32.5 28l-180 293l-69 -74v-179q0 -76 -79 -76q-81 0 -81 76z" />
    <glyph glyph-name="L" unicode="L" horiz-adv-x="508" 
d="M12 99v599q0 81 79 81q81 0 81 -81v-538h251q81 0 81 -79q0 -81 -81 -81h-319q-92 0 -92 99z" />
    <glyph glyph-name="M" unicode="M" horiz-adv-x="922" 
d="M331 686l108 -358l110 359q29 92 111 92q42 0 69 -27.5t34 -79.5l86 -584v-4l1 -1v-2q0 -37 -22 -58.5t-57 -21.5q-74 0 -84 77l-51 379q-21 -64 -60 -196t-57 -189q-23 -72 -82 -72q-62 0 -83 72l-106 387l-64 -380q-13 -78 -82 -78q-78 0 -78 78q0 14 1 22l92 572
q18 108 104 108q80 0 110 -95z" />
    <glyph glyph-name="N" unicode="N" horiz-adv-x="670" 
d="M16 82v610q0 87 79 87q52 0 88 -53l275 -409v380q0 81 79 81q81 0 81 -81v-610q0 -87 -80 -87q-51 0 -84 47l-278 408v-373q0 -82 -80 -82t-80 82z" />
    <glyph glyph-name="O" unicode="O" horiz-adv-x="753" 
d="M359 800q110 0 190.5 -60.5t117.5 -150.5t37 -195q0 -77 -22 -148.5t-63.5 -128.5t-109 -91.5t-150.5 -34.5q-82 0 -148 34.5t-107 92.5t-63 129.5t-22 149.5q0 77 21.5 148t62.5 128.5t107.5 92t148.5 34.5zM359 638q-84 0 -130 -70.5t-46 -168.5q0 -102 47 -175.5
t131 -73.5q86 0 132.5 71t46.5 171q0 101 -47.5 173.5t-133.5 72.5z" />
    <glyph glyph-name="P" unicode="P" horiz-adv-x="611" 
d="M13 81v614q0 83 84 83h209q115 0 189 -71.5t74 -184.5q0 -108 -74 -180.5t-183 -72.5h-139v-188q0 -81 -80 -81t-80 81zM293 618h-120v-189h135q45 0 71.5 25.5t26.5 68.5q0 45 -29.5 70t-83.5 25z" />
    <glyph glyph-name="Q" unicode="Q" horiz-adv-x="764" 
d="M360 800q83 0 150 -35t108.5 -92.5t63.5 -129.5t22 -149q0 -119 -49 -219l24 -19l17 -20q24 -24 24 -56q0 -33 -21 -56t-58 -23q-31 0 -53 22l-33 35q-85 -67 -195 -67q-108 0 -187.5 60t-116.5 150.5t-37 195.5q0 77 22 148t63 128.5t107.5 92t148.5 34.5zM361 638
q-84 0 -130.5 -70.5t-46.5 -168.5q0 -101 47 -175t131 -74q48 0 83 20l-64 63q-26 26 -26 60q0 36 21 59t51 23q24 0 44 -16q12 -10 36.5 -37t27.5 -29q6 25 6 99q0 101 -47 173.5t-133 72.5z" />
    <glyph glyph-name="R" unicode="R" horiz-adv-x="620" 
d="M12 88v607q0 83 99 83h199q120 0 190.5 -69t70.5 -164q0 -59 -29.5 -113t-88.5 -92l97 -212q13 -32 13 -52q0 -35 -19 -56t-57 -21q-50 0 -73 44l-126 256h-116v-211q0 -88 -79 -88q-81 0 -81 88zM317 618h-145v-160h145q40 0 65 26.5t25 60.5q0 30 -23 51.5t-67 21.5z
" />
    <glyph glyph-name="S" unicode="S" horiz-adv-x="544" 
d="M331 605q-39 29 -78 29q-67 0 -67 -57q0 -14 6 -25t20.5 -21t25.5 -16t35 -16t36 -16q52 -25 84.5 -45.5t63 -48.5t45 -63t14.5 -80q0 -119 -77 -188.5t-196 -69.5q-101 0 -185 55q-46 30 -46 79q0 77 78 77q30 0 59 -17q44 -28 94 -28q44 0 73.5 22.5t29.5 63.5
q0 25 -23.5 45.5t-83.5 48.5q-40 19 -63 30.5t-57.5 34.5t-53 45.5t-33 56t-14.5 72.5q0 88 67 157.5t169 69.5q98 0 174 -58q45 -33 45 -78q0 -32 -23 -58t-56 -26t-63 25z" />
    <glyph glyph-name="T" unicode="T" horiz-adv-x="526" 
d="M186 85v533h-91q-83 0 -83 79q0 81 83 81h343q81 0 81 -81q0 -79 -81 -79h-92v-533q0 -85 -78 -85q-82 0 -82 85z" />
    <glyph glyph-name="U" unicode="U" horiz-adv-x="685" 
d="M17 310v382q0 86 84 86q83 0 83 -86v-375q0 -160 147 -160q64 0 99.5 36t35.5 124v375q0 86 84 86t84 -86v-382q0 -87 -25 -150.5t-69 -100t-98.5 -53.5t-119.5 -17q-138 0 -221.5 76.5t-83.5 244.5z" />
    <glyph glyph-name="V" unicode="V" horiz-adv-x="661" 
d="M177 721l148 -441q25 72 73 222t72 218q21 59 76 59q31 0 59 -26t28 -58q0 -15 -7 -29l-205 -578q-31 -88 -97 -88q-61 0 -90 80l-212 588q-5 18 -5 32q0 80 80 80q60 0 80 -59z" />
    <glyph glyph-name="W" unicode="W" horiz-adv-x="919" 
d="M187 706l71 -387q18 62 46.5 197.5t44.5 193.5q20 69 94 69t92 -69l98 -385l58 380q12 76 83 76q34 0 58.5 -23.5t24.5 -59.5v-6q0 -6 -2 -12l-109 -596q-7 -37 -36 -60.5t-67 -23.5q-34 0 -61.5 19t-38.5 58l-103 373l-90 -359q-11 -45 -41 -69t-64 -24q-37 0 -67 25.5
t-37 65.5l-117 609q0 37 24 59t57 22q68 0 82 -73z" />
    <glyph glyph-name="X" unicode="X" horiz-adv-x="664" 
d="M34 129l189 293l-163 228q-16 23 -16 50q0 34 23.5 56t55.5 22q42 0 68 -35l128 -178l113 174q24 39 68 39q31 0 55 -23.5t24 -56.5q0 -24 -15 -47l-148 -218l198 -303q20 -31 20 -59q0 -72 -72 -72q-43 0 -74 40l-168 246l-156 -244q-26 -42 -75 -42q-72 0 -72 73
q0 29 17 57z" />
    <glyph glyph-name="Y" unicode="Y" horiz-adv-x="565" 
d="M196 86v231q-27 49 -84.5 167.5t-85.5 168.5q-13 24 -13 47q0 79 77 79q49 0 68 -43l123 -273q19 32 59 136.5t59 136.5q26 43 73 43q77 0 77 -76q0 -24 -12 -44l-179 -344v-229q0 -86 -81 -86t-81 86z" />
    <glyph glyph-name="Z" unicode="Z" horiz-adv-x="598" 
d="M32 146l313 472h-236q-81 0 -81 79q0 81 81 81h372q48 0 70.5 -21t22.5 -55q0 -30 -26 -71l-313 -471h269q82 0 82 -78q0 -82 -82 -82h-411q-78 0 -78 85q0 32 17 61z" />
    <glyph glyph-name="bracketleft" unicode="[" horiz-adv-x="252" 
d="M6 33v642q0 88 81 88h65q74 0 74 -76q0 -69 -66 -71v-526q66 -3 66 -70q0 -76 -74 -76h-65q-81 0 -81 89z" />
    <glyph glyph-name="backslash" unicode="\" horiz-adv-x="466" 
d="M168 699l241 -609q6 -14 6 -24q0 -30 -21 -51t-53 -21q-56 0 -79 57l-241 608q-6 16 -6 30q0 35 22.5 54t55.5 19q32 0 46.5 -14.5t28.5 -48.5z" />
    <glyph glyph-name="bracketright" unicode="]" horiz-adv-x="252" 
d="M6 22q0 68 65 68v519q-65 2 -65 72q0 75 73 75h66q81 0 81 -87v-636q0 -89 -81 -89h-66q-73 0 -73 78z" />
    <glyph glyph-name="asciicircum" unicode="^" 
d="M414 710l191 -351q12 -27 12 -47q0 -37 -21 -56t-56 -19q-28 0 -46 14t-35 45l-123 231l-128 -232q-19 -33 -33.5 -45.5t-45.5 -12.5q-33 0 -56 19.5t-23 55.5q0 28 14 48l198 352q26 44 76 44q51 0 76 -46z" />
    <glyph glyph-name="underscore" unicode="_" horiz-adv-x="614" 
d="M529 -153h-444q-78 0 -78 73q0 74 78 74h444q79 0 79 -75q0 -72 -79 -72z" />
    <glyph glyph-name="grave" unicode="`" horiz-adv-x="255" 
d="M142 668l-117 87q-15 12 -21 22q-12 21 -12 41q0 41 44 66q19 10 39 10q29 0 51 -17l120 -90q12 -7 25 -26q9 -16 9 -35q0 -45 -45 -71q-18 -11 -36 -11q-22 0 -57 24z" />
    <glyph glyph-name="a" unicode="a" horiz-adv-x="560" 
d="M112 555q66 27 138 27q106 0 179.5 -53t73.5 -160v-299q0 -32 -21.5 -54.5t-56.5 -22.5q-18 0 -39.5 13.5t-23.5 40.5v19q-69 -73 -163 -73q-82 0 -130.5 48t-48.5 114q0 72 56 128t147 56q86 0 143 -41v49q0 42 -38 68.5t-84 26.5q-21 0 -57 -6.5t-53 -6.5q-74 0 -74 63
q0 42 52 63zM177 175q0 -23 22.5 -35.5t52.5 -12.5q37 0 65 14t28 39q0 18 -26 29.5t-58 11.5q-35 0 -59.5 -11.5t-24.5 -34.5z" />
    <glyph glyph-name="b" unicode="b" horiz-adv-x="573" 
d="M20 71v668q0 79 76 79q78 0 78 -79v-231q58 81 150 81q81 0 142.5 -79.5t61.5 -218.5q0 -120 -71.5 -210.5t-157.5 -90.5q-42 0 -81 24.5t-58 69.5v-32q0 -29 -22 -45t-43 -16q-75 0 -75 80zM281 141q46 0 67.5 44t21.5 104q0 61 -22 109t-67 48q-50 0 -77 -46.5
t-27 -106.5q0 -62 26.5 -107t77.5 -45z" />
    <glyph glyph-name="c" unicode="c" horiz-adv-x="531" 
d="M298 435q-53 0 -88.5 -40.5t-35.5 -106.5q0 -60 37 -102.5t89 -42.5q43 0 75 22q15 11 36 11q27 0 49.5 -21.5t22.5 -51.5q0 -38 -41 -69q-65 -43 -143 -43q-119 0 -200 86.5t-81 214.5q0 130 81.5 212.5t197.5 82.5q73 0 124 -23q25 -12 41 -31.5t16 -41.5
q0 -34 -20 -53.5t-53 -19.5q-14 0 -50.5 8.5t-56.5 8.5z" />
    <glyph glyph-name="d" unicode="d" horiz-adv-x="580" 
d="M370 514v225q0 80 79 80q77 0 77 -80v-678q0 -74 -77 -74q-70 0 -70 71v23q-60 -92 -148 -92q-83 0 -147.5 85t-64.5 214q0 132 64 217t149 85q39 0 77.5 -19.5t60.5 -56.5zM270 138q40 0 71.5 42t31.5 111t-30 111.5t-70 42.5q-45 0 -71 -48t-26 -110q0 -61 24.5 -105
t69.5 -44z" />
    <glyph glyph-name="e" unicode="e" horiz-adv-x="579" 
d="M279 591q119 0 184.5 -70t65.5 -188q0 -23 -6.5 -37.5t-14.5 -22.5t-27 -12t-32.5 -4.5t-43.5 -0.5h-229q0 -60 44.5 -90.5t87.5 -30.5q42 0 90 31t72 31q25 0 41 -16.5t16 -49.5q0 -28 -17 -46q-77 -96 -216 -96q-127 0 -200.5 88t-73.5 217q0 121 70 209t189 88z
M184 360h185q0 45 -26 70t-62 25q-38 0 -67.5 -25.5t-29.5 -69.5z" />
    <glyph glyph-name="f" unicode="f" horiz-adv-x="356" 
d="M90 77v359q-40 1 -59.5 16t-19.5 51q0 38 19.5 53.5t60.5 15.5v68q4 78 62 124t131 46q84 0 84 -76q0 -33 -20 -48.5t-44 -15.5t-40 -18.5t-16 -43.5v-36q1 0 3 0.5t4 0.5q43 0 62.5 -15.5t19.5 -52.5q0 -38 -19.5 -54t-62.5 -16h-12v-358q0 -77 -76 -77q-77 0 -77 77z
" />
    <glyph glyph-name="g" unicode="g" horiz-adv-x="583" 
d="M370 514v-5q0 80 79 80q77 0 77 -80v-432q0 -151 -77 -236.5t-190 -85.5q-87 0 -169 51q-38 25 -38 70q0 33 21 56.5t56 23.5q17 0 55 -19q41 -22 85 -22q63 0 86.5 44.5t23.5 131.5q-52 -92 -148 -92q-84 0 -148 80.5t-64 208.5q0 132 64 217t149 85q39 0 77.5 -19.5
t60.5 -56.5zM270 138q40 0 71.5 42t31.5 111t-30 111.5t-70 42.5q-45 0 -71 -48t-26 -110q0 -61 24.5 -105t69.5 -44z" />
    <glyph glyph-name="h" unicode="h" horiz-adv-x="521" 
d="M18 77v652q0 80 75 80q78 0 78 -80v-219q63 72 139 72q67 0 118 -48.5t51 -149.5v-307q0 -77 -78 -77q-77 0 -77 77v279q0 42 -22 65.5t-52 23.5q-32 0 -55.5 -23.5t-23.5 -65.5v-279q0 -77 -78 -77q-75 0 -75 77z" />
    <glyph glyph-name="i" unicode="i" horiz-adv-x="258" 
d="M33 78v419q0 77 77 77q79 0 79 -77v-419q0 -78 -78 -78t-78 78zM19 723q0 37 26 63t63 26q38 0 64 -25.5t26 -63.5t-26 -63.5t-64 -25.5q-37 0 -63 26t-26 63z" />
    <glyph glyph-name="j" unicode="j" horiz-adv-x="239" 
d="M4 723q0 37 26 63t63 26q38 0 64 -26t26 -63t-26 -63t-64 -26q-37 0 -63 26t-26 63zM168 -40l1 543q0 77 -77 77q-73 0 -81 -77v-511q0 -25 -16 -43.5t-40 -18.5t-44 -15.5t-20 -48.5q0 -76 84 -76q73 0 131 46t62 124z" />
    <glyph glyph-name="k" unicode="k" horiz-adv-x="566" 
d="M17 77v653q0 78 76 78q77 0 77 -78v-336l195 165q23 19 52 19q31 0 55 -24.5t24 -55.5q0 -33 -32 -57l-109 -91q43 -79 78 -135.5t48 -73t19 -30.5t6 -35q0 -34 -18 -56t-55 -22q-21 0 -42 11.5t-32 28.5l-125 221q-57 -46 -64 -54v-128q0 -77 -77 -77q-76 0 -76 77z" />
    <glyph glyph-name="l" unicode="l" horiz-adv-x="220" 
d="M3 78v653q0 79 77 79q78 0 78 -79v-653q0 -78 -77 -78q-78 0 -78 78z" />
    <glyph glyph-name="m" unicode="m" horiz-adv-x="843" 
d="M18 77v422q0 34 19.5 57t55.5 23q37 0 57.5 -21.5t20.5 -47.5q27 31 71 51.5t88 20.5q91 0 129 -85q24 38 67.5 60.5t91.5 22.5q70 0 119 -49t49 -147v-307q0 -77 -78 -77q-77 0 -77 77v279q0 42 -22 65.5t-52 23.5q-29 0 -51.5 -19t-26.5 -53v-296q0 -77 -78 -77
q-77 0 -77 77v279q0 42 -22 65.5t-52 23.5q-32 0 -55.5 -23.5t-23.5 -65.5v-279q0 -77 -78 -77q-75 0 -75 77z" />
    <glyph glyph-name="n" unicode="n" horiz-adv-x="522" 
d="M18 77v422q0 34 19.5 57t55.5 23q37 0 57.5 -21.5t20.5 -47.5q63 72 139 72q67 0 118 -48.5t51 -149.5v-307q0 -77 -78 -77q-77 0 -77 77v279q0 42 -22 65.5t-52 23.5q-32 0 -55.5 -23.5t-23.5 -65.5v-279q0 -77 -78 -77q-75 0 -75 77z" />
    <glyph glyph-name="o" unicode="o" horiz-adv-x="588" 
d="M280 588q121 0 190.5 -88t69.5 -211q0 -125 -69.5 -211.5t-190.5 -86.5q-122 0 -191 89.5t-69 214.5q0 123 68.5 208t191.5 85zM280 446q-50 0 -76 -43t-26 -103q0 -38 10 -75t34.5 -65.5t57.5 -28.5q49 0 75.5 46t26.5 106q0 61 -26.5 112t-75.5 51z" />
    <glyph glyph-name="p" unicode="p" horiz-adv-x="573" 
d="M20 -124v633q0 79 76 79q78 0 78 -79q58 80 150 80q81 0 142.5 -79.5t61.5 -218.5q0 -120 -71.5 -210.5t-157.5 -90.5q-41 0 -80.5 22.5t-58.5 60.5v-216q0 -29 -22 -45t-43 -16q-75 0 -75 80zM281 141q46 0 67.5 44t21.5 104q0 61 -22 109t-67 48q-50 0 -77 -46.5
t-27 -106.5q0 -62 26.5 -107t77.5 -45z" />
    <glyph glyph-name="q" unicode="q" horiz-adv-x="579" 
d="M370 514v-5q0 80 79 80q77 0 77 -80v-638q0 -74 -77 -74q-70 0 -70 71v203q-54 -82 -148 -82q-83 0 -147.5 85t-64.5 214q0 132 64 217t149 85q39 0 77.5 -19.5t60.5 -56.5zM270 138q40 0 71.5 42t31.5 111t-30 111.5t-70 42.5q-45 0 -71 -48t-26 -110q0 -61 24.5 -105
t69.5 -44z" />
    <glyph glyph-name="r" unicode="r" horiz-adv-x="445" 
d="M26 77v423q0 80 77 80q26 0 44.5 -16.5t19.5 -49.5q13 25 53 49.5t71 24.5q56 0 83 -25t27 -60q0 -32 -22.5 -55t-56.5 -23q-22 0 -37 3q-21 3 -23 3q-30 0 -56 -22t-26 -53v-279q0 -77 -77 -77t-77 77z" />
    <glyph glyph-name="s" unicode="s" horiz-adv-x="498" 
d="M263 124q49 0 49 36q0 18 -20.5 34.5t-51.5 29t-67.5 30.5t-67.5 37.5t-51.5 52t-20.5 73.5q0 87 63 132.5t158 45.5q93 0 160 -35q40 -22 40 -64q0 -27 -18.5 -47t-50.5 -20q-25 0 -73 16.5t-78 16.5q-46 0 -46 -36q0 -18 29.5 -36t71 -35.5t83.5 -39.5t71.5 -58.5
t29.5 -82.5q0 -92 -67.5 -137.5t-159.5 -45.5q-95 0 -191 58q-31 22 -31 64q0 32 21.5 49t50.5 17q28 0 77 -27.5t90 -27.5z" />
    <glyph glyph-name="t" unicode="t" horiz-adv-x="399" 
d="M11 507q0 55 70 64v39q0 76 77 76q78 0 78 -76v-39h43q42 0 61 -14t19 -51q0 -36 -18.5 -50t-59.5 -14h-45v-238q0 -35 4 -48.5t17 -13.5q83 0 83 -75t-83 -75q-101 0 -138.5 52.5t-37.5 159.5v240q-70 7 -70 63z" />
    <glyph glyph-name="u" unicode="u" horiz-adv-x="544" 
d="M172 498l1 -239q0 -116 69 -116q38 0 66.5 40t28.5 108v210q0 39 17 59t57 20q77 0 77 -79v-440q0 -74 -77 -74q-23 0 -40.5 16t-18.5 47v30q-64 -86 -154 -86q-73 0 -126 64.5t-53 172.5v267q0 77 76 77q77 0 77 -77z" />
    <glyph glyph-name="v" unicode="v" horiz-adv-x="503" 
d="M175 513l71 -270l69 273q25 68 82 68q35 0 55 -19.5t20 -56.5q0 -19 -6 -31l-144 -421q-20 -56 -81 -56q-57 0 -77 56l-142 423q-5 17 -5 29q0 34 22 55t55 21q62 0 81 -71z" />
    <glyph glyph-name="w" unicode="w" horiz-adv-x="881" 
d="M188 525l71 -286l76 282q10 29 32.5 45t49.5 16t53.5 -17.5t34.5 -46.5q19 -58 35.5 -136t34.5 -134l67 277q19 59 80 59q41 0 57.5 -19t16.5 -60q0 -18 -7 -36l1 7q-21 -74 -136 -412q-21 -63 -80 -63q-58 0 -80 66q-18 53 -37.5 123t-39.5 129l-73 -254
q-19 -65 -85 -65q-64 0 -87 67q-141 421 -141 436q0 80 77 80q56 0 80 -58z" />
    <glyph glyph-name="x" unicode="x" horiz-adv-x="547" 
d="M43 139l137 161l-118 153q-18 21 -18 52q0 33 23 55t55 22q46 0 72 -39l71 -123l74 125q26 38 70 38q33 0 56 -21.5t23 -54.5q0 -30 -20 -54l-119 -148l137 -162q25 -31 25 -70q0 -73 -72 -73q-53 0 -81 46l-98 137l-97 -138q-28 -43 -74 -43q-70 0 -70 71q0 35 24 66z
" />
    <glyph glyph-name="y" unicode="y" horiz-adv-x="517" 
d="M109 -90l53 132l-137 427q-7 18 -7 36q0 77 75 77q62 0 81 -62l74 -311q13 39 40 158t40 158q19 58 80 58q77 0 77 -77q0 -22 -5 -36l-221 -613q-22 -59 -82 -59q-74 0 -74 76q0 18 6 36z" />
    <glyph glyph-name="z" unicode="z" horiz-adv-x="523" 
d="M106 582h272q84 0 84 -72q0 -24 -26 -62l-210 -304h173q40 0 59 -15t19 -51q0 -78 -78 -78h-286q-96 0 -96 77q0 22 24 56l203 303h-138q-41 0 -59.5 15.5t-18.5 53.5q0 77 78 77z" />
    <glyph glyph-name="braceleft" unicode="{" horiz-adv-x="379" 
d="M11 357q0 17 5.5 29.5t17 20.5t20.5 12.5t25 9.5q8 0 13.5 13t7.5 32.5t3 32.5t1 21q0 26 -3 72q0 91 41.5 123.5t121.5 32.5q29 0 51.5 -22.5t22.5 -48.5q0 -69 -83 -69q-5 0 -5 -23q0 -13 1.5 -36t1.5 -34q0 -110 -46 -164q45 -48 45 -166v-40.5t-0.5 -23.5t-0.5 -9
q0 -30 14 -30q73 -4 73 -68q0 -70 -74 -70q-97 0 -132 39.5t-35 105.5q0 17 2 47t2 45q0 80 -16 96q-24 5 -37 9.5t-25 20t-12 42.5z" />
    <glyph glyph-name="bar" unicode="|" horiz-adv-x="175" 
d="M3 61v672q0 83 78 83q76 0 76 -83v-672q0 -77 -77 -77t-77 77z" />
    <glyph glyph-name="braceright" unicode="}" horiz-adv-x="379" 
d="M338 357q0 -20 -6 -34t-18.5 -21t-22.5 -10.5t-28 -6.5q-15 -15 -15 -96q0 -18 2 -48t2 -44q0 -31 -6.5 -54t-23 -45t-51.5 -34t-87 -12q-73 0 -73 70q0 63 72 68q16 0 16 30q0 13 -1.5 37t-1.5 36q0 117 46 166q-47 56 -47 164q0 13 2.5 36t2.5 34q0 23 -6 23
q-83 0 -83 69q0 26 22 48.5t51 22.5q80 0 122.5 -32.5t42.5 -123.5q-3 -47 -3 -72q0 -89 23 -99l6 -2q30 -9 46.5 -23.5t16.5 -46.5z" />
    <glyph glyph-name="asciitilde" unicode="~" horiz-adv-x="612" 
d="M94 166q-74 0 -74 81q0 44 56 96t110 52q52 0 132 -43q42 -24 56 -24l2 2q2 2 5 6t5 7q12 16 20 24.5t25 17.5t37 9q76 0 76 -83q0 -43 -60.5 -94t-115.5 -51q-49 0 -117 40q-52 26 -63 26q-6 0 -16 -14q-37 -52 -78 -52z" />
    <glyph glyph-name="uni00A0" unicode="&#xa0;" horiz-adv-x="0" 
 />
    <glyph glyph-name="exclamdown" unicode="&#xa1;" horiz-adv-x="208" 
d="M18 -97v364q0 78 78 78q75 0 75 -78v-364q0 -83 -76 -83q-77 0 -77 83zM183 504q0 -37 -26 -63t-63 -26q-38 0 -64 25.5t-26 63.5t26 63.5t64 25.5q37 0 63 -26t26 -63z" />
    <glyph glyph-name="cent" unicode="&#xa2;" horiz-adv-x="531" 
d="M218 576v77q0 83 78 83q76 0 76 -83v-73q29 -7 49 -16q25 -12 41 -31.5t16 -41.5q0 -34 -20 -53.5t-53 -19.5q-14 0 -50.5 8.5t-56.5 8.5q-53 0 -88.5 -40.5t-35.5 -106.5q0 -60 37 -102.5t89 -42.5q43 0 75 22q15 11 36 11q27 0 49.5 -21.5t22.5 -51.5q0 -38 -41 -69
q-34 -22 -70 -33v-70q0 -77 -77 -77t-77 77v72q-89 27 -144.5 106t-55.5 183q0 106 56 182t144 102z" />
    <glyph glyph-name="sterling" unicode="&#xa3;" horiz-adv-x="678" 
d="M166 310h-66q-77 0 -77 75q0 79 77 79h15q-27 51 -27 100q0 84 71 139.5t165 55.5q99 0 177.5 -56.5t84.5 -152.5q0 -33 -22.5 -57.5t-54.5 -24.5q-52 0 -78 61q-5 36 -35.5 56t-68.5 20q-30 0 -51 -14t-21 -40q0 -45 23 -87h94q76 0 76 -78q0 -76 -76 -76h-46
q1 -12 1 -33q0 -64 -35 -121h234q77 0 77 -77t-77 -77h-390q-81 0 -81 76q0 35 42 79q35 37 53 66.5t18 63.5q0 5 -2 23z" />
    <glyph glyph-name="currency" unicode="&#xa4;" horiz-adv-x="810" 
d="M102 156l74 53q-10 35 -10 65q0 32 13 70l-77 55q-43 36 -43 78q0 33 22.5 51t51.5 18t61 -26l77 -65q59 34 107 34q55 0 105 -32l73 63q30 26 63 26q29 0 52 -18t23 -51q0 -48 -43 -78l-74 -59q20 -21 20 -80q0 -34 -12 -58l65 -45q44 -34 44 -78q0 -33 -23 -51t-52 -18
q-32 0 -62 26l-58 50q-60 -43 -122 -43q-63 0 -120 46q-5 -5 -28 -25t-32 -26q-32 -28 -64 -28q-29 0 -51.5 18t-22.5 51q0 43 43 77zM306 270q0 -43 22 -67.5t53 -24.5t53.5 24t22.5 68q0 39 -23.5 62t-54.5 23q-30 0 -51.5 -21.5t-21.5 -63.5z" />
    <glyph glyph-name="yen" unicode="&#xa5;" horiz-adv-x="565" 
d="M425 470h68q76 0 76 -78q0 -76 -76 -76h-135v-40h135q76 0 76 -77q0 -78 -76 -78h-135v-35q0 -86 -81 -86t-81 86v35h-122q-77 0 -77 77q0 78 77 78h122v40h-122q-77 0 -77 78q0 76 77 76h57l-105 183q-13 24 -13 47q0 79 77 79q49 0 68 -43l120 -266h7q18 32 56.5 133
t57.5 133q26 43 73 43q77 0 77 -76q0 -24 -12 -44z" />
    <glyph glyph-name="brokenbar" unicode="&#xa6;" horiz-adv-x="175" 
d="M3 521v218q0 39 22 62.5t55 23.5q34 0 55.5 -20.5t21.5 -57.5v-226q0 -77 -77 -77t-77 77zM3 77v247q0 39 21.5 62.5t55.5 23.5q35 0 56 -19.5t21 -57.5v-256q0 -77 -77 -77t-77 77z" />
    <glyph glyph-name="section" unicode="&#xa7;" horiz-adv-x="531" 
d="M191 465q-37 12 -64.5 25t-56 33t-44 48.5t-15.5 64.5q0 94 64.5 143.5t158.5 49.5q87 0 160 -40q40 -22 40 -71q0 -35 -23 -56t-54 -21q-18 0 -42 11q-27 18 -84 18t-57 -25q0 -13 44 -34.5t96 -44t96 -64t44 -89.5q0 -45 -24 -69.5t-57 -24.5q-24 0 -38 9.5t-23 26
t-19.5 34.5t-36.5 39.5t-65 36.5zM263 313q28 -10 38 -14t35 -15t35.5 -18.5t28 -21.5t25 -27.5t13.5 -33t6 -42.5q0 -94 -64 -143t-159 -49q-85 0 -159 39q-40 21 -40 71q0 35 22.5 56t53.5 21q18 0 42 -11q27 -17 84 -17q58 0 58 24q0 13 -44 35.5t-96.5 45.5t-96.5 64
t-44 87q0 45 24.5 69.5t57.5 24.5q28 0 46.5 -16.5t28.5 -38.5t37 -48.5t68 -41.5z" />
    <glyph glyph-name="dieresis" unicode="&#xa8;" horiz-adv-x="487" 
d="M12 623q0 38 26 63.5t64 25.5q37 0 63 -26t26 -63t-26 -63t-63 -26q-38 0 -64 25.5t-26 63.5zM261 623q0 37 25.5 63t62.5 26q38 0 63.5 -25.5t25.5 -63.5t-25.5 -63.5t-63.5 -25.5q-37 0 -62.5 26t-25.5 63z" />
    <glyph glyph-name="copyright" unicode="&#xa9;" horiz-adv-x="895" 
d="M411 749q168 0 273.5 -108t105.5 -275q0 -165 -106.5 -271.5t-274.5 -106.5q-167 0 -273 107.5t-106 273.5t107 273t274 107zM414 80q124 0 201.5 81t77.5 205q0 126 -79 210t-203 84t-201.5 -82t-77.5 -207q0 -126 78.5 -208.5t203.5 -82.5zM414 470q-37 0 -60 -28
t-23 -76q0 -38 22 -67.5t55 -29.5q20 0 40 7q3 1 5 3q6 1 14 3t12.5 3t7.5 1q67 0 67 -66q0 -32 -30 -58q-39 -31 -108 -31q-100 0 -161.5 70t-61.5 170q0 103 66.5 171t157.5 68q42 0 96 -24q21 -9 34.5 -27t13.5 -37q0 -28 -19.5 -49t-47.5 -21q-14 0 -23 7q-33 11 -57 11
z" />
    <glyph glyph-name="ordfeminine" unicode="&#xaa;" horiz-adv-x="557" 
d="M70 741q39 16 84 16q65 0 110 -32.5t45 -97.5v-182q0 -20 -13 -33.5t-35 -13.5q-11 0 -24 8.5t-14 24.5v11q-43 -44 -100 -44q-50 0 -79.5 29.5t-29.5 69.5q0 43 34 77.5t90 34.5q53 0 87 -25v30q0 25 -23 41.5t-51 16.5q-13 0 -34.5 -4t-32.5 -4q-45 0 -45 38
q0 26 31 39zM110 509q0 -14 13.5 -22t32.5 -8q22 0 39 9t17 24q0 11 -15.5 18t-35.5 7q-21 0 -36 -7.5t-15 -20.5z" />
    <glyph glyph-name="guillemotleft" unicode="&#xab;" horiz-adv-x="579" 
d="M484 400l-72 -112l79 -136q7 -12 7 -26q0 -25 -26 -47t-55 -22q-42 0 -59 32l-90 146q-16 30 -16 53q0 22 16 52l90 147q22 30 60 30q80 0 80 -72q0 -24 -14 -45zM244 402l-71 -114l79 -138q6 -12 6 -24q0 -25 -26 -47t-55 -22q-41 0 -60 32l-86 146q-18 29 -18 53
q0 21 19 53l85 144q22 33 59 33q30 0 55 -23.5t25 -53.5q0 -19 -12 -39z" />
    <glyph glyph-name="logicalnot" unicode="&#xac;" horiz-adv-x="674" 
d="M443 151v62h-338q-82 0 -82 77q0 33 22.5 56.5t59.5 23.5h412q82 0 82 -87v-132q0 -83 -76 -83q-33 0 -56.5 23t-23.5 60z" />
    <glyph glyph-name="uni00AD" unicode="&#xad;" horiz-adv-x="0" 
 />
    <glyph glyph-name="registered" unicode="&#xae;" horiz-adv-x="894" 
d="M410 756q166 0 272.5 -108t106.5 -273q0 -166 -105.5 -272.5t-273.5 -106.5q-166 0 -273 108t-107 273t107 272t273 107zM318 607h123q66 0 114 -43q46 -44 46 -106q0 -80 -72 -117l23 -34q45 -67 45 -94q0 -33 -20.5 -50t-54.5 -17q-46 0 -71 51l-69 121v-103
q0 -69 -71 -69q-68 0 -68 69v317q0 50 34 66q18 9 41 9zM434 488h-53v-68h53q20 0 32 10.5t12 24.5t-11.5 23.5t-32.5 9.5zM416 85q124 0 200 79.5t76 209.5q0 126 -78 208.5t-204 82.5q-125 0 -203 -82t-78 -206q0 -125 80.5 -208.5t206.5 -83.5z" />
    <glyph glyph-name="degree" unicode="&#xb0;" horiz-adv-x="304" 
d="M141 802q59 0 96.5 -38.5t37.5 -95.5t-39 -95.5t-95 -38.5q-58 0 -95.5 38.5t-37.5 96.5q0 55 35.5 94t97.5 39zM141 718q-23 0 -36 -14.5t-13 -35.5q0 -22 14 -36t35 -14q22 0 36 14t14 36q0 21 -14 35.5t-36 14.5z" />
    <glyph glyph-name="plusminus" unicode="&#xb1;" 
d="M131 495h118v47q0 80 79 80q36 0 58.5 -20.5t22.5 -56.5v-50h118q41 0 65 -23t24 -58q0 -41 -22 -59.5t-67 -18.5h-118v-56q0 -35 -23.5 -56.5t-58.5 -21.5q-78 0 -78 78v56h-118q-81 0 -81 80q0 79 81 79zM135 156h398q83 0 83 -77q0 -78 -83 -78h-398q-83 0 -83 77
q0 33 23 55.5t60 22.5z" />
    <glyph glyph-name="twosuperior" unicode="&#xb2;" horiz-adv-x="312" 
d="M10 668q0 51 35.5 82.5t82.5 31.5q45 0 80 -29.5t35 -75.5q0 -49 -37 -99l-77 -102h80q38 0 38 -39t-38 -39h-148q-47 0 -47 38q0 14 11 30l122 164q15 20 15 43q0 14 -11 22t-25 8q-15 0 -25 -9.5t-10 -27.5q0 -15 -11 -29.5t-29 -14.5q-19 0 -30 14.5t-11 31.5z" />
    <glyph glyph-name="threesuperior" unicode="&#xb3;" horiz-adv-x="299" 
d="M123 787q48 0 78.5 -32t30.5 -73q0 -49 -44 -78q57 -31 57 -93q0 -45 -33.5 -80.5t-87.5 -35.5q-61 0 -98 50q-15 19 -15 44q0 19 11 29.5t26 10.5q27 0 38 -25q12 -29 37 -29q17 0 29.5 11t12.5 30q0 17 -8.5 31.5t-24.5 17.5h-16q-43 0 -43 34q0 33 43 33q9 0 14 1
q10 3 16 16.5t6 26.5q0 33 -31 33q-27 0 -33 -25q0 -8 -7.5 -17.5t-23.5 -9.5q-41 0 -41 36q0 37 31 65.5t76 28.5z" />
    <glyph glyph-name="acute" unicode="&#xb4;" horiz-adv-x="255" 
d="M247 755l-117 -87q-35 -24 -57 -24q-18 0 -36 11q-45 26 -45 71q0 18 9 35q13 19 25 26l120 90q22 17 51 17q20 0 39 -10q44 -25 44 -66q0 -20 -12 -41q-6 -10 -21 -22z" />
    <glyph glyph-name="mu" unicode="&#xb5;" horiz-adv-x="538" 
d="M17 -132v637q0 78 77 78q78 0 78 -78v-292q0 -27 18.5 -45t45.5 -18q39 0 63 29t24 71v255q0 78 79 78q78 0 78 -78v-422q0 -83 -78 -83q-23 0 -41.5 15t-19.5 43q-10 -29 -35 -45t-58 -16q-26 0 -46.5 16.5t-29.5 41.5v-187q0 -78 -79 -78q-76 0 -76 78z" />
    <glyph glyph-name="paragraph" unicode="&#xb6;" horiz-adv-x="572" 
d="M192 75v282q-81 12 -131.5 63t-50.5 123q0 104 70.5 160.5t201.5 56.5h234q30 -2 51 -23.5t21 -50.5q0 -30 -21 -51.5t-51 -22.5v-548q0 -30 -18 -47.5t-43 -17.5q-24 0 -42.5 17.5t-18.5 49.5v548h-77v-545q0 -33 -18 -52t-43 -19q-26 0 -45 20t-19 57z" />
    <glyph glyph-name="periodcentered" unicode="&#xb7;" horiz-adv-x="209" 
d="M4 356q0 37 26 63t63 26q38 0 64 -26t26 -63t-26 -63t-64 -26q-37 0 -63 26t-26 63z" />
    <glyph glyph-name="cedilla" unicode="&#xb8;" horiz-adv-x="516" 
d="M135 0h167q-3 -15 -3 -18q0 -10 5 -18q5 -9 21 -26t25.5 -36t9.5 -44q0 -72 -44.5 -107.5t-105.5 -35.5q-30 0 -57 22t-27 54q0 36 16.5 50t47.5 20q-23 16 -41.5 46t-18.5 63q0 13 5 30z" />
    <glyph glyph-name="ordmasculine" unicode="&#xba;" horiz-adv-x="590" 
d="M174 749q75 0 118 -54t43 -131t-43 -131t-118 -54q-76 0 -119 55.5t-43 133.5q0 76 43 128.5t119 52.5zM174 661q-31 0 -47.5 -26.5t-16.5 -63.5q0 -38 17 -71.5t47 -33.5q31 0 47 28.5t16 65.5q0 38 -16.5 69.5t-46.5 31.5z" />
    <glyph glyph-name="guillemotright" unicode="&#xbb;" horiz-adv-x="525" 
d="M266 156l75 133q-5 8 -74 113q-14 22 -14 48q0 71 76 71q47 0 65 -35l90 -145q17 -29 17 -53q0 -26 -17 -54l-90 -145q-19 -31 -64 -31q-77 0 -77 63q0 22 13 35zM24 154l79 134l-80 134l1 -3q-11 16 -11 34q0 24 25 46t55 22q42 0 63 -36l85 -144q19 -33 19 -53
q0 -28 -18 -54l-86 -144q-18 -32 -62 -32q-81 0 -81 64q0 16 11 32z" />
    <glyph glyph-name="onehalf" unicode="&#xbd;" horiz-adv-x="983" 
d="M219 92l240 633q25 51 70 51q26 0 44.5 -19t18.5 -50q0 -19 -9 -42l-252 -623q-21 -45 -60 -45q-23 0 -40.5 18t-17.5 46q0 15 6 31zM100 292v364q-25 -9 -41 -9q-24 0 -40.5 15.5t-16.5 39.5q0 47 50 60l110 30q40 0 52 -35q6 -7 6 -46v-419q0 -27 -16.5 -44.5
t-43.5 -17.5t-43.5 17.5t-16.5 44.5zM572 406q0 76 53 123.5t123 47.5q68 0 120 -45t52 -114q0 -73 -54 -147l-117 -154h121q57 0 57 -58q0 -59 -58 -59h-222q-69 0 -69 58q0 22 16 44l182 247q23 29 23 64q0 21 -16 33t-37 12q-22 0 -38 -14.5t-16 -40.5q0 -24 -15.5 -45
t-43.5 -21t-44.5 21.5t-16.5 47.5z" />
    <glyph glyph-name="questiondown" unicode="&#xbf;" horiz-adv-x="490" 
d="M338 511q0 -37 -26 -63t-63 -26t-62.5 26t-25.5 63t25.5 63t62.5 26t63 -26t26 -63zM179 54q0 -24 14 -36t33 -12q17 0 29.5 12t13.5 29q4 36 26 56.5t52 20.5q31 0 53.5 -22t22.5 -63q0 -87 -61 -138t-140 -51q-84 0 -142.5 54t-58.5 150q0 114 173 289q28 24 56 24
q35 0 55.5 -21.5t20.5 -56.5q0 -32 -31 -64q-60 -60 -88 -98.5t-28 -72.5z" />
    <glyph glyph-name="Agrave" unicode="&#xc0;" horiz-adv-x="680" 
d="M330 501l-72 -198h142zM495 51l-35 90h-255q-5 -14 -14 -39t-13 -36q-22 -66 -85 -66q-38 0 -57 22.5t-19 56.5q0 13 6 33l210 594q26 71 97 71t97 -71q223 -609 223 -628q0 -35 -20.5 -56.5t-57.5 -21.5q-57 0 -77 51zM346 863l-117 87q-15 12 -21 22q-12 21 -12 41
q0 41 44 66q19 10 39 10q29 0 51 -17l120 -90q12 -7 25 -26q9 -16 9 -35q0 -45 -45 -71q-18 -11 -36 -11q-22 0 -57 24z" />
    <glyph glyph-name="Aacute" unicode="&#xc1;" horiz-adv-x="678" 
d="M258 303l72 198l70 -198h-142zM460 141l35 -90q20 -51 77 -51q37 0 57.5 21.5t20.5 56.5q0 19 -223 628q-26 71 -97 71t-97 -71l-210 -594q-6 -20 -6 -33q0 -34 19 -56.5t57 -22.5q63 0 85 66q4 11 13 36t14 39h255zM395 941l-117 -87q-35 -24 -57 -24q-18 0 -36 11
q-45 26 -45 71q0 18 9 35q13 19 25 26l120 90q22 17 51 17q20 0 39 -10q44 -25 44 -66q0 -20 -12 -41q-6 -10 -21 -22z" />
    <glyph glyph-name="Acircumflex" unicode="&#xc2;" horiz-adv-x="678" 
d="M330 501l-72 -198h142zM495 51l-35 90h-255q-5 -14 -14 -39t-13 -36q-22 -66 -85 -66q-38 0 -57 22.5t-19 56.5q0 13 6 33l210 594q26 71 97 71t97 -71q223 -609 223 -628q0 -35 -20.5 -56.5t-57.5 -21.5q-57 0 -77 51zM432 846l-94 73l-94 -74q-33 -24 -57 -24
q-18 0 -35 10q-34 18 -34 61q0 38 33 60l136 101q26 18 53 18q19 0 47 -15l141 -105q32 -27 32 -59q0 -23 -7 -37t-28 -25q-17 -9 -34 -9q-28 0 -59 25z" />
    <glyph glyph-name="Atilde" unicode="&#xc3;" horiz-adv-x="678" 
d="M330 501l-72 -198h142zM495 51l-35 90h-255q-5 -14 -14 -39t-13 -36q-22 -66 -85 -66q-38 0 -57 22.5t-19 56.5q0 13 6 33l210 594q26 71 97 71t97 -71q223 -609 223 -628q0 -35 -20.5 -56.5t-57.5 -21.5q-57 0 -77 51zM180 796q-73 0 -73 81q0 48 44.5 86t101.5 38
t130 -48q4 -1 11 -5.5t13 -4.5q19 0 33 24q9 17 28.5 27t28.5 10q75 0 75 -84q0 -60 -37 -89t-90 -29q-27 0 -62.5 12.5t-58.5 26.5q-5 2 -13 7.5t-13.5 7.5t-12.5 2q-23 0 -33 -12q-21 -28 -36 -39t-36 -11z" />
    <glyph glyph-name="Adieresis" unicode="&#xc4;" horiz-adv-x="678" 
d="M258 303l72 198l70 -198h-142zM460 141l35 -90q20 -51 77 -51q37 0 57.5 21.5t20.5 56.5q0 19 -223 628q-26 71 -97 71t-97 -71l-210 -594q-6 -20 -6 -33q0 -34 19 -56.5t57 -22.5q63 0 85 66q4 11 13 36t14 39h255zM110 889q0 38 26 63.5t64 25.5q37 0 63 -26t26 -63
t-26 -63t-63 -26q-38 0 -64 25.5t-26 63.5zM359 889q0 37 25.5 63t62.5 26q38 0 63.5 -25.5t25.5 -63.5t-25.5 -63.5t-63.5 -25.5q-37 0 -62.5 26t-25.5 63z" />
    <glyph glyph-name="Aring" unicode="&#xc5;" horiz-adv-x="680" 
d="M328 983q59 0 96.5 -38.5t37.5 -95.5q0 -69 -54 -108q12 -18 19 -35q223 -609 223 -628q0 -35 -20.5 -56.5t-57.5 -21.5q-57 0 -77 51l-35 90h-255q-5 -14 -14 -39t-13 -36q-22 -66 -85 -66q-38 0 -57 22.5t-19 56.5q0 13 6 33l210 594q6 18 17 32q-55 39 -55 112
q0 55 35.5 94t97.5 39zM330 501l-72 -198h142zM328 899q-23 0 -36 -14.5t-13 -35.5q0 -22 14 -36t35 -14q22 0 36 14t14 36q0 21 -14 35.5t-36 14.5z" />
    <glyph glyph-name="AE" unicode="&#xc6;" horiz-adv-x="856" 
d="M178 66q-22 -66 -85 -66q-38 0 -57 22.5t-19 56.5q0 13 6 33l210 594q12 33 50.5 52t76.5 19h367q80 0 80 -80t-80 -80h-206v-135h161q80 0 80 -81q0 -79 -80 -79h-161v-162h213q86 0 86 -80t-86 -80h-289q-54 0 -69 17t-15 71v53h-156q-5 -14 -14 -39t-13 -36zM360 581
l-102 -278h103v247q-1 16 -1 31z" />
    <glyph glyph-name="Ccedilla" unicode="&#xc7;" horiz-adv-x="712" 
d="M501 204q24 24 55 24q40 0 60 -23t20 -58q0 -42 -30 -69q-68 -61 -150 -80q-2 -8 -2 -16q0 -10 5 -18q5 -9 21 -26t25.5 -36t9.5 -44q0 -72 -44.5 -107.5t-105.5 -35.5q-30 0 -57 22t-27 54q0 36 16.5 50t47.5 20q-23 16 -41.5 46t-18.5 63q0 17 4 29
q-130 30 -201.5 141.5t-71.5 251.5q0 78 23.5 150.5t68 131t116 93.5t159.5 35q132 0 228 -87q31 -29 31 -68q0 -37 -22.5 -60t-56.5 -23q-39 0 -61 24q-47 47 -122 47q-93 0 -144.5 -70t-51.5 -167q0 -98 52 -167.5t145 -69.5q77 0 120 43z" />
    <glyph glyph-name="Egrave" unicode="&#xc8;" horiz-adv-x="485" 
d="M11 88v602q0 87 84 87h282q80 0 80 -80t-80 -80h-206v-135h161q80 0 80 -81q0 -79 -80 -79h-161v-162h213q86 0 86 -80t-86 -80h-289q-54 0 -69 17t-15 71zM248 863l-117 87q-15 12 -21 22q-12 21 -12 41q0 41 44 66q19 10 39 10q29 0 51 -17l120 -90q12 -7 25 -26
q9 -16 9 -35q0 -45 -45 -71q-18 -11 -36 -11q-22 0 -57 24z" />
    <glyph glyph-name="Eacute" unicode="&#xc9;" horiz-adv-x="485" 
d="M11 690v-602q0 -54 15 -71t69 -17h289q86 0 86 80t-86 80h-213v162h161q80 0 80 79q0 81 -80 81h-161v135h206q80 0 80 80t-80 80h-282q-84 0 -84 -87zM353 950l-117 -87q-35 -24 -57 -24q-18 0 -36 11q-45 26 -45 71q0 19 9 35q13 19 25 26l120 90q22 17 51 17
q20 0 39 -10q44 -25 44 -66q0 -20 -12 -41q-6 -10 -21 -22z" />
    <glyph glyph-name="Ecircumflex" unicode="&#xca;" horiz-adv-x="492" 
d="M11 88v602q0 87 84 87h282q80 0 80 -80t-80 -80h-206v-135h161q80 0 80 -81q0 -79 -80 -79h-161v-162h213q86 0 86 -80t-86 -80h-289q-54 0 -69 17t-15 71zM329 846l-94 73l-94 -74q-33 -24 -57 -24q-18 0 -35 10q-34 18 -34 61q0 38 33 60l136 101q26 18 53 18
q19 0 47 -15l141 -105q32 -27 32 -59q0 -23 -7 -37t-28 -25q-16 -9 -34 -9q-28 0 -59 25z" />
    <glyph glyph-name="Edieresis" unicode="&#xcb;" horiz-adv-x="492" 
d="M11 690v-602q0 -54 15 -71t69 -17h289q86 0 86 80t-86 80h-213v162h161q80 0 80 79q0 81 -80 81h-161v135h206q80 0 80 80t-80 80h-282q-84 0 -84 -87zM18 889q0 38 26 63.5t64 25.5q37 0 63 -26t26 -63t-26 -63t-63 -26q-38 0 -64 25.5t-26 63.5zM267 889q0 37 25.5 63
t62.5 26q38 0 63.5 -25.5t25.5 -63.5t-25.5 -63.5t-63.5 -25.5q-37 0 -62.5 26t-25.5 63z" />
    <glyph glyph-name="Igrave" unicode="&#xcc;" horiz-adv-x="204" 
d="M1 81v617q0 81 80 81q81 0 81 -81v-617q0 -81 -81 -81q-80 0 -80 81zM108 863l-117 87q-15 12 -21 22q-12 21 -12 41q0 41 44 66q19 10 39 10q29 0 51 -17l120 -90q12 -7 25 -26q9 -16 9 -35q0 -45 -45 -71q-18 -11 -36 -11q-22 0 -57 24z" />
    <glyph glyph-name="Iacute" unicode="&#xcd;" horiz-adv-x="191" 
d="M1 698v-617q0 -81 80 -81q81 0 81 81v617q0 81 -81 81q-80 0 -80 -81zM152 941l-117 -87q-35 -24 -57 -24q-18 0 -36 11q-45 26 -45 71q0 18 9 35q13 19 25 26l120 90q22 17 51 17q20 0 39 -10q44 -25 44 -66q0 -20 -12 -41q-6 -10 -21 -22z" />
    <glyph glyph-name="Icircumflex" unicode="&#xce;" horiz-adv-x="191" 
d="M1 81v617q0 81 80 81q81 0 81 -81v-617q0 -81 -81 -81q-80 0 -80 81zM173 846l-94 73l-94 -74q-33 -24 -57 -24q-18 0 -35 10q-34 18 -34 61q0 38 33 60l136 101q26 18 53 18q19 0 47 -15l141 -105q32 -27 32 -59q0 -23 -7 -37t-28 -25q-16 -9 -34 -9q-28 0 -59 25z" />
    <glyph glyph-name="Idieresis" unicode="&#xcf;" horiz-adv-x="191" 
d="M1 698v-617q0 -81 80 -81q81 0 81 81v617q0 81 -81 81q-80 0 -80 -81zM-132 889q0 38 26 63.5t64 25.5q37 0 63 -26t26 -63t-26 -63t-63 -26q-38 0 -64 25.5t-26 63.5zM117 889q0 37 25.5 63t62.5 26q38 0 63.5 -25.5t25.5 -63.5t-25.5 -63.5t-63.5 -25.5q-37 0 -62.5 26
t-25.5 63z" />
    <glyph glyph-name="Ntilde" unicode="&#xd1;" horiz-adv-x="668" 
d="M16 82v610q0 87 79 87q52 0 88 -53l275 -409v380q0 81 79 81q81 0 81 -81v-610q0 -87 -80 -87q-51 0 -84 47l-278 408v-373q0 -82 -80 -82t-80 82zM168 816q-73 0 -73 81q0 48 44.5 86t101.5 38t130 -48q4 -1 11 -5.5t13 -4.5q19 0 33 24q9 17 28.5 27t28.5 10
q75 0 75 -84q0 -60 -37 -89t-90 -29q-27 0 -62.5 12.5t-58.5 26.5q-5 2 -13 7.5t-13.5 7.5t-12.5 2q-22 0 -33 -12q-21 -28 -36 -39t-36 -11z" />
    <glyph glyph-name="Ograve" unicode="&#xd2;" horiz-adv-x="753" 
d="M359 800q110 0 190.5 -60.5t117.5 -150.5t37 -195q0 -77 -22 -148.5t-63.5 -128.5t-109 -91.5t-150.5 -34.5q-82 0 -148 34.5t-107 92.5t-63 129.5t-22 149.5q0 77 21.5 148t62.5 128.5t107.5 92t148.5 34.5zM359 638q-84 0 -130 -70.5t-46 -168.5q0 -102 47 -175.5
t131 -73.5q86 0 132.5 71t46.5 171q0 101 -47.5 173.5t-133.5 72.5zM382 863l-117 87q-15 12 -21 22q-12 21 -12 41q0 41 44 66q19 10 39 10q29 0 51 -17l120 -90q12 -7 25 -26q9 -16 9 -35q0 -45 -45 -71q-18 -11 -36 -11q-22 0 -57 24z" />
    <glyph glyph-name="Oacute" unicode="&#xd3;" horiz-adv-x="747" 
d="M359 800q-82 0 -148.5 -34.5t-107.5 -92t-62.5 -128.5t-21.5 -148q0 -78 22 -149.5t63 -129.5t107 -92.5t148 -34.5q83 0 150.5 34.5t109 91.5t63.5 128.5t22 148.5q0 105 -37 195t-117.5 150.5t-190.5 60.5zM359 638q86 0 133.5 -72.5t47.5 -173.5q0 -100 -46.5 -171
t-132.5 -71q-84 0 -131 73.5t-47 175.5q0 98 46 168.5t130 70.5zM489 941l-117 -87q-35 -24 -57 -24q-18 0 -36 11q-45 26 -45 71q0 18 9 35q13 19 25 26l120 90q22 17 51 17q20 0 39 -10q44 -25 44 -66q0 -20 -12 -41q-6 -10 -21 -22z" />
    <glyph glyph-name="Ocircumflex" unicode="&#xd4;" horiz-adv-x="747" 
d="M359 800q110 0 190.5 -60.5t117.5 -150.5t37 -195q0 -77 -22 -148.5t-63.5 -128.5t-109 -91.5t-150.5 -34.5q-82 0 -148 34.5t-107 92.5t-63 129.5t-22 149.5q0 77 21.5 148t62.5 128.5t107.5 92t148.5 34.5zM359 638q-84 0 -130 -70.5t-46 -168.5q0 -102 47 -175.5
t131 -73.5q86 0 132.5 71t46.5 171q0 101 -47.5 173.5t-133.5 72.5zM455 846l-94 73l-94 -74q-33 -24 -57 -24q-18 0 -35 10q-34 18 -34 61q0 38 33 60l136 101q26 18 53 18q19 0 47 -15l141 -105q32 -27 32 -59q0 -23 -7 -37t-28 -25q-17 -9 -34 -9q-28 0 -59 25z" />
    <glyph glyph-name="Otilde" unicode="&#xd5;" horiz-adv-x="747" 
d="M359 800q110 0 190.5 -60.5t117.5 -150.5t37 -195q0 -77 -22 -148.5t-63.5 -128.5t-109 -91.5t-150.5 -34.5q-82 0 -148 34.5t-107 92.5t-63 129.5t-22 149.5q0 77 21.5 148t62.5 128.5t107.5 92t148.5 34.5zM359 638q-84 0 -130 -70.5t-46 -168.5q0 -102 47 -175.5
t131 -73.5q86 0 132.5 71t46.5 171q0 101 -47.5 173.5t-133.5 72.5zM204 816q-73 0 -73 81q0 48 44.5 86t101.5 38t130 -48q4 -1 11 -5.5t13 -4.5q19 0 33 24q9 17 28.5 27t28.5 10q75 0 75 -84q0 -60 -37 -89t-90 -29q-27 0 -62.5 12.5t-58.5 26.5q-5 2 -13 7.5t-13.5 7.5
t-12.5 2q-23 0 -33 -12q-21 -28 -36 -39t-36 -11z" />
    <glyph glyph-name="Odieresis" unicode="&#xd6;" horiz-adv-x="747" 
d="M359 800q-82 0 -148.5 -34.5t-107.5 -92t-62.5 -128.5t-21.5 -148q0 -78 22 -149.5t63 -129.5t107 -92.5t148 -34.5q83 0 150.5 34.5t109 91.5t63.5 128.5t22 148.5q0 105 -37 195t-117.5 150.5t-190.5 60.5zM359 638q86 0 133.5 -72.5t47.5 -173.5q0 -100 -46.5 -171
t-132.5 -71q-84 0 -131 73.5t-47 175.5q0 98 46 168.5t130 70.5zM145 909q0 38 26 63.5t64 25.5q37 0 63 -26t26 -63t-26 -63t-63 -26q-38 0 -64 25.5t-26 63.5zM394 909q0 37 25.5 63t62.5 26q38 0 63.5 -25.5t25.5 -63.5t-25.5 -63.5t-63.5 -25.5q-37 0 -62.5 26t-25.5 63
z" />
    <glyph glyph-name="Oslash" unicode="&#xd8;" horiz-adv-x="747" 
d="M359 800q45 0 87 -11q25 23 59 23t55.5 -23t21.5 -56q0 -7 -2 -19q61 -57 92.5 -141.5t31.5 -178.5q0 -77 -22 -148.5t-63.5 -128.5t-109 -91.5t-150.5 -34.5q-34 0 -64 6q-26 -28 -65 -28q-30 0 -51.5 22.5t-21.5 58.5v11q-67 56 -102.5 145.5t-35.5 190.5
q0 77 21.5 148t62.5 128.5t107.5 92t148.5 34.5zM359 638q-84 0 -130 -70.5t-46 -168.5q0 -97 39 -164l155 402q-3 0 -9 0.5t-9 0.5zM511 533l-150 -383q86 0 132.5 71t46.5 171q0 77 -29 141z" />
    <glyph glyph-name="Ugrave" unicode="&#xd9;" horiz-adv-x="685" 
d="M17 310v382q0 86 84 86q83 0 83 -86v-375q0 -160 147 -160q64 0 99.5 36t35.5 124v375q0 86 84 86t84 -86v-382q0 -87 -25 -150.5t-69 -100t-98.5 -53.5t-119.5 -17q-138 0 -221.5 76.5t-83.5 244.5zM348 863l-117 87q-15 12 -21 22q-12 21 -12 41q0 41 44 66
q19 10 39 10q29 0 51 -17l120 -90q12 -7 25 -26q9 -16 9 -35q0 -45 -45 -71q-18 -11 -36 -11q-22 0 -57 24z" />
    <glyph glyph-name="Uacute" unicode="&#xda;" horiz-adv-x="682" 
d="M17 692v-382q0 -168 83.5 -244.5t221.5 -76.5q65 0 119.5 17t98.5 53.5t69 100t25 150.5v382q0 86 -84 86t-84 -86v-375q0 -88 -35.5 -124t-99.5 -36q-147 0 -147 160v375q0 86 -83 86q-84 0 -84 -86zM457 941l-117 -87q-35 -24 -57 -24q-18 0 -36 11q-45 26 -45 71
q0 18 9 35q13 19 25 26l120 90q22 17 51 17q20 0 39 -10q44 -25 44 -66q0 -20 -12 -41q-6 -10 -21 -22z" />
    <glyph glyph-name="Ucircumflex" unicode="&#xdb;" horiz-adv-x="682" 
d="M17 310v382q0 86 84 86q83 0 83 -86v-375q0 -160 147 -160q64 0 99.5 36t35.5 124v375q0 86 84 86t84 -86v-382q0 -87 -25 -150.5t-69 -100t-98.5 -53.5t-119.5 -17q-138 0 -221.5 76.5t-83.5 244.5zM421 846l-94 73l-94 -74q-33 -24 -57 -24q-18 0 -35 10q-34 18 -34 61
q0 38 33 60l136 101q26 18 53 18q19 0 47 -15l141 -105q32 -27 32 -59q0 -23 -7 -37t-28 -25q-16 -9 -34 -9q-28 0 -59 25z" />
    <glyph glyph-name="Udieresis" unicode="&#xdc;" horiz-adv-x="682" 
d="M17 692v-382q0 -168 83.5 -244.5t221.5 -76.5q65 0 119.5 17t98.5 53.5t69 100t25 150.5v382q0 86 -84 86t-84 -86v-375q0 -88 -35.5 -124t-99.5 -36q-147 0 -147 160v375q0 86 -83 86q-84 0 -84 -86zM113 909q0 38 26 63.5t64 25.5q37 0 63 -26t26 -63t-26 -63t-63 -26
q-38 0 -64 25.5t-26 63.5zM362 909q0 37 25.5 63t62.5 26q38 0 63.5 -25.5t25.5 -63.5t-25.5 -63.5t-63.5 -25.5q-37 0 -62.5 26t-25.5 63z" />
    <glyph glyph-name="germandbls" unicode="&#xdf;" horiz-adv-x="562" 
d="M155 500v-418q0 -83 -78 -83t-78 82v458q0 115 64 185.5t184 70.5q98 0 164.5 -66t66.5 -150q0 -85 -70 -139q63 -32 96 -89t33 -121q0 -93 -63.5 -160.5t-173.5 -67.5q-34 0 -52.5 22t-18.5 52q0 29 19 50.5t54 27.5q39 7 58 28t19 50q0 35 -26 67.5t-67 44.5l-17 6
q-22 9 -32 14t-19 19.5t-9 38.5q0 32 18 48.5t51 27.5q14 5 28 25t14 41q0 34 -21 57t-53 23q-53 0 -72 -37t-19 -107z" />
    <glyph glyph-name="agrave" unicode="&#xe0;" horiz-adv-x="560" 
d="M112 555q66 27 138 27q106 0 179.5 -53t73.5 -160v-299q0 -32 -21.5 -54.5t-56.5 -22.5q-18 0 -39.5 13.5t-23.5 40.5v19q-69 -73 -163 -73q-82 0 -130.5 48t-48.5 114q0 72 56 128t147 56q86 0 143 -41v49q0 42 -38 68.5t-84 26.5q-21 0 -57 -6.5t-53 -6.5q-74 0 -74 63
q0 42 52 63zM177 175q0 -23 22.5 -35.5t52.5 -12.5q37 0 65 14t28 39q0 18 -26 29.5t-58 11.5q-35 0 -59.5 -11.5t-24.5 -34.5zM286 668l-117 87q-15 12 -21 22q-12 21 -12 41q0 41 44 66q19 10 39 10q29 0 51 -17l120 -90q12 -7 25 -26q9 -16 9 -35q0 -45 -45 -71
q-18 -11 -36 -11q-22 0 -57 24z" />
    <glyph glyph-name="aacute" unicode="&#xe1;" horiz-adv-x="557" 
d="M112 555q-52 -21 -52 -63q0 -63 74 -63q17 0 53 6.5t57 6.5q46 0 84 -26.5t38 -68.5v-49q-57 41 -143 41q-91 0 -147 -56t-56 -128q0 -66 48.5 -114t130.5 -48q94 0 163 73v-19q2 -27 23.5 -40.5t39.5 -13.5q35 0 56.5 22.5t21.5 54.5v299q0 107 -73.5 160t-179.5 53
q-72 0 -138 -27zM177 175q0 23 24.5 34.5t59.5 11.5q32 0 58 -11.5t26 -29.5q0 -25 -28 -39t-65 -14q-30 0 -52.5 12.5t-22.5 35.5zM354 725l-117 -87q-35 -24 -57 -24q-18 0 -36 11q-45 26 -45 71q0 18 9 35q13 19 25 26l120 90q22 17 51 17q20 0 39 -10q44 -25 44 -66
q0 -20 -12 -41q-6 -10 -21 -22z" />
    <glyph glyph-name="acircumflex" unicode="&#xe2;" horiz-adv-x="557" 
d="M112 555q66 27 138 27q106 0 179.5 -53t73.5 -160v-299q0 -32 -21.5 -54.5t-56.5 -22.5q-18 0 -39.5 13.5t-23.5 40.5v19q-69 -73 -163 -73q-82 0 -130.5 48t-48.5 114q0 72 56 128t147 56q86 0 143 -41v49q0 42 -38 68.5t-84 26.5q-21 0 -57 -6.5t-53 -6.5q-74 0 -74 63
q0 42 52 63zM177 175q0 -23 22.5 -35.5t52.5 -12.5q37 0 65 14t28 39q0 18 -26 29.5t-58 11.5q-35 0 -59.5 -11.5t-24.5 -34.5zM371 660l-94 73l-94 -74q-33 -24 -57 -24q-18 0 -35 10q-34 18 -34 61q0 38 33 60l136 101q26 18 53 18q19 0 47 -15l141 -105q32 -27 32 -59
q0 -23 -7 -37t-28 -25q-16 -9 -34 -9q-28 0 -59 25z" />
    <glyph glyph-name="atilde" unicode="&#xe3;" horiz-adv-x="557" 
d="M112 555q66 27 138 27q106 0 179.5 -53t73.5 -160v-299q0 -32 -21.5 -54.5t-56.5 -22.5q-18 0 -39.5 13.5t-23.5 40.5v19q-69 -73 -163 -73q-82 0 -130.5 48t-48.5 114q0 72 56 128t147 56q86 0 143 -41v49q0 42 -38 68.5t-84 26.5q-21 0 -57 -6.5t-53 -6.5q-74 0 -74 63
q0 42 52 63zM177 175q0 -23 22.5 -35.5t52.5 -12.5q37 0 65 14t28 39q0 18 -26 29.5t-58 11.5q-35 0 -59.5 -11.5t-24.5 -34.5zM119 620q-73 0 -73 81q0 48 44.5 86t101.5 38t130 -48q4 -1 11 -5.5t13 -4.5q19 0 33 24q9 17 28.5 27t28.5 10q75 0 75 -84q0 -60 -37 -89
t-90 -29q-27 0 -62.5 12.5t-58.5 26.5q-5 2 -13 7.5t-13.5 7.5t-12.5 2q-22 0 -33 -12q-21 -28 -36 -39t-36 -11z" />
    <glyph glyph-name="adieresis" unicode="&#xe4;" horiz-adv-x="557" 
d="M112 555q-52 -21 -52 -63q0 -63 74 -63q17 0 53 6.5t57 6.5q46 0 84 -26.5t38 -68.5v-49q-57 41 -143 41q-91 0 -147 -56t-56 -128q0 -66 48.5 -114t130.5 -48q94 0 163 73v-19q2 -27 23.5 -40.5t39.5 -13.5q35 0 56.5 22.5t21.5 54.5v299q0 107 -73.5 160t-179.5 53
q-72 0 -138 -27zM177 175q0 23 24.5 34.5t59.5 11.5q32 0 58 -11.5t26 -29.5q0 -25 -28 -39t-65 -14q-30 0 -52.5 12.5t-22.5 35.5zM56 693q0 38 26 63.5t64 25.5q37 0 63 -26t26 -63t-26 -63t-63 -26q-38 0 -64 25.5t-26 63.5zM305 693q0 37 25.5 63t62.5 26
q38 0 63.5 -25.5t25.5 -63.5t-25.5 -63.5t-63.5 -25.5q-37 0 -62.5 26t-25.5 63z" />
    <glyph glyph-name="aring" unicode="&#xe5;" horiz-adv-x="557" 
d="M112 555q66 27 138 27q106 0 179.5 -53t73.5 -160v-299q0 -32 -21.5 -54.5t-56.5 -22.5q-18 0 -39.5 13.5t-23.5 40.5v19q-69 -73 -163 -73q-82 0 -130.5 48t-48.5 114q0 72 56 128t147 56q86 0 143 -41v49q0 42 -38 68.5t-84 26.5q-21 0 -57 -6.5t-53 -6.5q-74 0 -74 63
q0 42 52 63zM177 175q0 -23 22.5 -35.5t52.5 -12.5q37 0 65 14t28 39q0 18 -26 29.5t-58 11.5q-35 0 -59.5 -11.5t-24.5 -34.5zM280 882q59 0 96.5 -38.5t37.5 -95.5t-39 -95.5t-95 -38.5q-58 0 -95.5 38.5t-37.5 96.5q0 55 35.5 94t97.5 39zM280 798q-23 0 -36 -14.5
t-13 -35.5q0 -22 14 -36t35 -14q22 0 36 14t14 36q0 21 -14 35.5t-36 14.5z" />
    <glyph glyph-name="ae" unicode="&#xe6;" horiz-adv-x="906" 
d="M626 591q119 0 184.5 -70t65.5 -188q0 -23 -6.5 -37.5t-14.5 -22.5t-27 -12t-32.5 -4.5t-43.5 -0.5h-229q0 -60 44.5 -90.5t87.5 -30.5q41 0 90 31t72 31q25 0 41 -16.5t16 -49.5q0 -28 -17 -46q-77 -96 -216 -96q-125 0 -201 86l-1 -4q-47 -36 -97 -54.5t-76.5 -21
t-66.5 -2.5q-82 0 -130.5 48t-48.5 114q0 72 56 128t147 56q86 0 143 -41v49q0 42 -38 68.5t-84 26.5q-21 0 -57 -6.5t-53 -6.5q-74 0 -74 63q0 42 52 63q66 27 138 27q127 0 196 -68q72 77 180 77zM531 360h185q0 45 -26 70t-62 25q-38 0 -67.5 -25.5t-29.5 -69.5zM177 175
q0 -23 22.5 -35.5t52.5 -12.5q37 0 65 14t28 39q0 18 -26 29.5t-58 11.5q-35 0 -59.5 -11.5t-24.5 -34.5z" />
    <glyph glyph-name="ccedilla" unicode="&#xe7;" horiz-adv-x="531" 
d="M298 435q-53 0 -88.5 -40.5t-35.5 -106.5q0 -60 37 -102.5t89 -42.5q43 0 75 22q15 11 36 11q27 0 49.5 -21.5t22.5 -51.5q0 -38 -41 -69q-34 -22 -70 -33q-1 -2 -1 -9q0 -10 5 -18q5 -9 21 -26t25.5 -36t9.5 -44q0 -72 -44.5 -107.5t-105.5 -35.5q-30 0 -57 22t-27 54
q0 36 16.5 50t47.5 20q-23 16 -41.5 46t-18.5 63q0 15 4 27q-84 30 -136 107t-52 178q0 130 81.5 212.5t197.5 82.5q73 0 124 -23q25 -12 41 -31.5t16 -41.5q0 -34 -20 -53.5t-53 -19.5q-14 0 -50.5 8.5t-56.5 8.5z" />
    <glyph glyph-name="egrave" unicode="&#xe8;" horiz-adv-x="579" 
d="M279 591q119 0 184.5 -70t65.5 -188q0 -23 -6.5 -37.5t-14.5 -22.5t-27 -12t-32.5 -4.5t-43.5 -0.5h-229q0 -60 44.5 -90.5t87.5 -30.5q42 0 90 31t72 31q25 0 41 -16.5t16 -49.5q0 -28 -17 -46q-77 -96 -216 -96q-127 0 -200.5 88t-73.5 217q0 121 70 209t189 88z
M184 360h185q0 45 -26 70t-62 25q-38 0 -67.5 -25.5t-29.5 -69.5zM295 668l-117 87q-15 12 -21 22q-12 21 -12 41q0 41 44 66q19 10 39 10q29 0 51 -17l120 -90q12 -7 25 -26q9 -16 9 -35q0 -45 -45 -71q-18 -11 -36 -11q-22 0 -57 24z" />
    <glyph glyph-name="eacute" unicode="&#xe9;" horiz-adv-x="579" 
d="M279 591q-119 0 -189 -88t-70 -209q0 -129 73.5 -217t200.5 -88q139 0 216 96q17 18 17 46q0 33 -16 49.5t-41 16.5q-24 0 -72 -31t-90 -31q-43 0 -87.5 30.5t-44.5 90.5h229q30 0 43.5 0.5t32.5 4.5t27 12t14.5 22.5t6.5 37.5q0 118 -65.5 188t-184.5 70zM369 360h-185
q0 44 29.5 69.5t67.5 25.5q36 0 62 -25t26 -70zM400 755l-117 -87q-35 -24 -57 -24q-18 0 -36 11q-45 26 -45 71q0 18 9 35q13 19 25 26l120 90q22 17 51 17q20 0 39 -10q44 -25 44 -66q0 -20 -12 -41q-6 -10 -21 -22z" />
    <glyph glyph-name="ecircumflex" unicode="&#xea;" horiz-adv-x="604" 
d="M279 591q119 0 184.5 -70t65.5 -188q0 -23 -6.5 -37.5t-14.5 -22.5t-27 -12t-32.5 -4.5t-43.5 -0.5h-229q0 -60 44.5 -90.5t87.5 -30.5q42 0 90 31t72 31q25 0 41 -16.5t16 -49.5q0 -28 -17 -46q-77 -96 -216 -96q-127 0 -200.5 88t-73.5 217q0 121 70 209t189 88z
M184 360h185q0 45 -26 70t-62 25q-38 0 -67.5 -25.5t-29.5 -69.5zM388 660l-94 73l-94 -74q-33 -24 -57 -24q-18 0 -35 10q-34 18 -34 61q0 38 33 60l136 101q26 18 53 18q19 0 47 -15l141 -105q32 -27 32 -59q0 -23 -7 -37t-28 -25q-17 -9 -34 -9q-28 0 -59 25z" />
    <glyph glyph-name="edieresis" unicode="&#xeb;" horiz-adv-x="604" 
d="M279 591q-119 0 -189 -88t-70 -209q0 -129 73.5 -217t200.5 -88q139 0 216 96q17 18 17 46q0 33 -16 49.5t-41 16.5q-24 0 -72 -31t-90 -31q-43 0 -87.5 30.5t-44.5 90.5h229q30 0 43.5 0.5t32.5 4.5t27 12t14.5 22.5t6.5 37.5q0 118 -65.5 188t-184.5 70zM369 360h-185
q0 44 29.5 69.5t67.5 25.5q36 0 62 -25t26 -70zM65 705q0 38 26 63.5t64 25.5q37 0 63 -26t26 -63t-26 -63t-63 -26q-38 0 -64 25.5t-26 63.5zM314 705q0 37 25.5 63t62.5 26q38 0 63.5 -25.5t25.5 -63.5t-25.5 -63.5t-63.5 -25.5q-37 0 -62.5 26t-25.5 63z" />
    <glyph glyph-name="igrave" unicode="&#xec;" horiz-adv-x="258" 
d="M33 78v419q0 77 77 77q79 0 79 -77v-419q0 -78 -78 -78t-78 78zM135 668l-117 87q-15 12 -21 22q-12 21 -12 41q0 41 44 66q19 10 39 10q29 0 51 -17l120 -90q12 -7 25 -26q9 -16 9 -35q0 -45 -45 -71q-18 -11 -36 -11q-22 0 -57 24z" />
    <glyph glyph-name="iacute" unicode="&#xed;" horiz-adv-x="230" 
d="M33 78v419q0 77 77 77q79 0 79 -77v-419q0 -78 -78 -78t-78 78zM171 735l-117 -87q-35 -24 -57 -24q-18 0 -36 11q-45 26 -45 71q0 18 9 35q13 19 25 26l120 90q22 17 51 17q20 0 39 -10q44 -25 44 -66q0 -20 -12 -41q-6 -10 -21 -22z" />
    <glyph glyph-name="icircumflex" unicode="&#xee;" horiz-adv-x="230" 
d="M33 78v419q0 77 77 77q79 0 79 -77v-419q0 -78 -78 -78t-78 78zM198 660l-94 73l-94 -74q-33 -24 -57 -24q-18 0 -35 10q-34 18 -34 61q0 38 33 60l136 101q26 18 53 18q19 0 47 -15l141 -105q32 -27 32 -59q0 -23 -7 -37t-28 -25q-16 -9 -34 -9q-28 0 -59 25z" />
    <glyph glyph-name="idieresis" unicode="&#xef;" horiz-adv-x="230" 
d="M33 78v419q0 77 77 77q79 0 79 -77v-419q0 -78 -78 -78t-78 78zM-102 702q0 38 26 63.5t64 25.5q37 0 63 -26t26 -63t-26 -63t-63 -26q-38 0 -64 25.5t-26 63.5zM147 702q0 37 25.5 63t62.5 26q38 0 63.5 -25.5t25.5 -63.5t-25.5 -63.5t-63.5 -25.5q-37 0 -62.5 26
t-25.5 63z" />
    <glyph glyph-name="ntilde" unicode="&#xf1;" horiz-adv-x="527" 
d="M18 77v422q0 34 19.5 57t55.5 23q37 0 57.5 -21.5t20.5 -47.5q63 72 139 72q67 0 118 -48.5t51 -149.5v-307q0 -77 -78 -77q-77 0 -77 77v279q0 42 -22 65.5t-52 23.5q-32 0 -55.5 -23.5t-23.5 -65.5v-279q0 -77 -78 -77q-75 0 -75 77zM84 640q-73 0 -73 81q0 48 44.5 86
t101.5 38t130 -48q4 -1 11 -5.5t13 -4.5q19 0 33 24q9 17 28.5 27t28.5 10q75 0 75 -84q0 -60 -37 -89t-90 -29q-27 0 -62.5 12.5t-58.5 26.5q-5 2 -13 7.5t-13.5 7.5t-12.5 2q-23 0 -33 -12q-21 -28 -36 -39t-36 -11z" />
    <glyph glyph-name="ograve" unicode="&#xf2;" horiz-adv-x="588" 
d="M280 588q121 0 190.5 -88t69.5 -211q0 -125 -69.5 -211.5t-190.5 -86.5q-122 0 -191 89.5t-69 214.5q0 123 68.5 208t191.5 85zM280 446q-50 0 -76 -43t-26 -103q0 -38 10 -75t34.5 -65.5t57.5 -28.5q49 0 75.5 46t26.5 106q0 61 -26.5 112t-75.5 51zM300 668l-117 87
q-15 12 -21 22q-12 21 -12 41q0 41 44 66q19 10 39 10q29 0 51 -17l120 -90q12 -7 25 -26q9 -16 9 -35q0 -45 -45 -71q-18 -11 -36 -11q-22 0 -57 24z" />
    <glyph glyph-name="oacute" unicode="&#xf3;" horiz-adv-x="590" 
d="M280 588q-123 0 -191.5 -85t-68.5 -208q0 -125 69 -214.5t191 -89.5q121 0 190.5 86.5t69.5 211.5q0 123 -69.5 211t-190.5 88zM280 446q49 0 75.5 -51t26.5 -112q0 -60 -26.5 -106t-75.5 -46q-33 0 -57.5 28.5t-34.5 65.5t-10 75q0 60 26 103t76 43zM391 725l-117 -87
q-35 -24 -57 -24q-18 0 -36 11q-45 26 -45 71q0 18 9 35q13 19 25 26l120 90q22 17 51 17q20 0 39 -10q44 -25 44 -66q0 -20 -12 -41q-6 -10 -21 -22z" />
    <glyph glyph-name="ocircumflex" unicode="&#xf4;" horiz-adv-x="590" 
d="M280 588q121 0 190.5 -88t69.5 -211q0 -125 -69.5 -211.5t-190.5 -86.5q-122 0 -191 89.5t-69 214.5q0 123 68.5 208t191.5 85zM280 446q-50 0 -76 -43t-26 -103q0 -38 10 -75t34.5 -65.5t57.5 -28.5q49 0 75.5 46t26.5 106q0 61 -26.5 112t-75.5 51zM378 660l-94 73
l-94 -74q-33 -24 -57 -24q-18 0 -35 10q-34 18 -34 61q0 38 33 60l136 101q26 18 53 18q19 0 47 -15l141 -105q32 -27 32 -59q0 -23 -7 -37t-28 -25q-17 -9 -34 -9q-28 0 -59 25z" />
    <glyph glyph-name="otilde" unicode="&#xf5;" horiz-adv-x="590" 
d="M280 588q121 0 190.5 -88t69.5 -211q0 -125 -69.5 -211.5t-190.5 -86.5q-122 0 -191 89.5t-69 214.5q0 123 68.5 208t191.5 85zM280 446q-50 0 -76 -43t-26 -103q0 -38 10 -75t34.5 -65.5t57.5 -28.5q49 0 75.5 46t26.5 106q0 61 -26.5 112t-75.5 51zM125 620
q-73 0 -73 81q0 48 44.5 86t101.5 38t130 -48q4 -1 11 -5.5t13 -4.5q19 0 33 24q9 17 28.5 27t28.5 10q75 0 75 -84q0 -60 -37 -89t-90 -29q-27 0 -62.5 12.5t-58.5 26.5q-5 2 -13 7.5t-13.5 7.5t-12.5 2q-22 0 -33 -12q-21 -28 -36 -39t-36 -11z" />
    <glyph glyph-name="odieresis" unicode="&#xf6;" horiz-adv-x="590" 
d="M280 588q-123 0 -191.5 -85t-68.5 -208q0 -125 69 -214.5t191 -89.5q121 0 190.5 86.5t69.5 211.5q0 123 -69.5 211t-190.5 88zM280 446q49 0 75.5 -51t26.5 -112q0 -60 -26.5 -106t-75.5 -46q-33 0 -57.5 28.5t-34.5 65.5t-10 75q0 60 26 103t76 43zM57 692
q0 38 26 63.5t64 25.5q37 0 63 -26t26 -63t-26 -63t-63 -26q-38 0 -64 25.5t-26 63.5zM306 692q0 37 25.5 63t62.5 26q38 0 63.5 -25.5t25.5 -63.5t-25.5 -63.5t-63.5 -25.5q-37 0 -62.5 26t-25.5 63z" />
    <glyph glyph-name="oslash" unicode="&#xf8;" horiz-adv-x="588" 
d="M311 586l22 57q24 55 77 55q31 0 51 -21.5t20 -51.5q0 -20 -8 -41l-24 -61q44 -41 67.5 -103t23.5 -131q0 -125 -69.5 -211.5t-190.5 -86.5q-20 0 -39 3h-1l-1 -2t-2.5 -5.5l-4.5 -10.5t-7 -18q-4 -14 -23.5 -28t-46.5 -14q-28 0 -48 21t-20 54q0 17 6 31l14 38
q-87 87 -87 235q0 123 68.5 208t191.5 85q11 0 31 -2zM382 283q0 23 -7 56l-82 -207q43 6 66 50.5t23 100.5zM178 300q0 -26 4 -47l73 190q-38 -11 -57.5 -51.5t-19.5 -91.5z" />
    <glyph glyph-name="ugrave" unicode="&#xf9;" horiz-adv-x="544" 
d="M172 498l1 -239q0 -116 69 -116q38 0 66.5 40t28.5 108v210q0 39 17 59t57 20q77 0 77 -79v-440q0 -74 -77 -74q-23 0 -40.5 16t-18.5 47v30q-64 -86 -154 -86q-73 0 -126 64.5t-53 172.5v267q0 77 76 77q77 0 77 -77zM278 668l-117 87q-15 12 -21 22q-12 21 -12 41
q0 41 44 66q19 10 39 10q29 0 51 -17l120 -90q12 -7 25 -26q9 -16 9 -35q0 -45 -45 -71q-18 -11 -36 -11q-22 0 -57 24z" />
    <glyph glyph-name="uacute" unicode="&#xfa;" horiz-adv-x="529" 
d="M173 259l-1 239q0 77 -77 77q-76 0 -76 -77v-267q0 -108 53 -172.5t126 -64.5q90 0 154 86v-30q1 -31 18.5 -47t40.5 -16q77 0 77 74v440q0 79 -77 79q-40 0 -57 -20t-17 -59v-210q0 -68 -28.5 -108t-66.5 -40q-69 0 -69 116zM370 715l-117 -87q-35 -24 -57 -24
q-18 0 -36 11q-45 26 -45 71q0 18 9 35q13 19 25 26l120 90q22 17 51 17q20 0 39 -10q44 -25 44 -66q0 -20 -12 -41q-6 -10 -21 -22z" />
    <glyph glyph-name="ucircumflex" unicode="&#xfb;" horiz-adv-x="529" 
d="M172 498l1 -239q0 -116 69 -116q38 0 66.5 40t28.5 108v210q0 39 17 59t57 20q77 0 77 -79v-440q0 -74 -77 -74q-23 0 -40.5 16t-18.5 47v30q-64 -86 -154 -86q-73 0 -126 64.5t-53 172.5v267q0 77 76 77q77 0 77 -77zM349 660l-94 73l-94 -74q-33 -24 -57 -24
q-18 0 -35 10q-34 18 -34 61q0 38 33 60l136 101q26 18 53 18q19 0 47 -15l141 -105q32 -27 32 -59q0 -23 -7 -37t-28 -25q-16 -9 -34 -9q-28 0 -59 25z" />
    <glyph glyph-name="udieresis" unicode="&#xfc;" horiz-adv-x="529" 
d="M173 259l-1 239q0 77 -77 77q-76 0 -76 -77v-267q0 -108 53 -172.5t126 -64.5q90 0 154 86v-30q1 -31 18.5 -47t40.5 -16q77 0 77 74v440q0 79 -77 79q-40 0 -57 -20t-17 -59v-210q0 -68 -28.5 -108t-66.5 -40q-69 0 -69 116zM36 693q0 38 26 63.5t64 25.5q37 0 63 -26
t26 -63t-26 -63t-63 -26q-38 0 -64 25.5t-26 63.5zM285 693q0 37 25.5 63t62.5 26q38 0 63.5 -25.5t25.5 -63.5t-25.5 -63.5t-63.5 -25.5q-37 0 -62.5 26t-25.5 63z" />
    <glyph glyph-name="ydieresis" unicode="&#xff;" horiz-adv-x="522" 
d="M162 42l-53 -132q-6 -18 -6 -36q0 -76 74 -76q60 0 82 59l221 613q5 14 5 36q0 77 -77 77q-61 0 -80 -58q-13 -39 -40 -158t-40 -158l-74 311q-19 62 -81 62q-75 0 -75 -77q0 -18 7 -36zM36 686q0 38 26 63.5t64 25.5q37 0 63 -26t26 -63t-26 -63t-63 -26q-38 0 -64 25.5
t-26 63.5zM285 686q0 37 25.5 63t62.5 26q38 0 63.5 -25.5t25.5 -63.5t-25.5 -63.5t-63.5 -25.5q-37 0 -62.5 26t-25.5 63z" />
    <glyph glyph-name="dotlessi" unicode="&#x131;" horiz-adv-x="230" 
d="M33 78v419q0 77 77 77q79 0 79 -77v-419q0 -78 -78 -78t-78 78z" />
    <glyph glyph-name="OE" unicode="&#x152;" horiz-adv-x="950" 
d="M359 800q61 0 123 -23h348q80 0 80 -80t-80 -80h-206v-135h161q80 0 80 -81q0 -79 -80 -79h-161v-162h213q86 0 86 -80t-86 -80h-289q-50 0 -67 13q-58 -22 -122 -22q-82 0 -148 34.5t-107 92.5t-63 129.5t-22 149.5q0 77 21.5 148t62.5 128.5t107.5 92t148.5 34.5z
M361 150q60 0 103 37v410q-46 41 -105 41q-84 0 -130 -70.5t-46 -168.5q0 -102 47 -175.5t131 -73.5z" />
    <glyph glyph-name="oe" unicode="&#x153;" horiz-adv-x="934" 
d="M280 588q121 0 190.5 -88t69.5 -211q0 -125 -69.5 -211.5t-190.5 -86.5q-122 0 -191 89.5t-69 214.5q0 123 68.5 208t191.5 85zM280 446q-50 0 -76 -43t-26 -103q0 -38 10 -75t34.5 -65.5t57.5 -28.5q49 0 75.5 46t26.5 106q0 61 -26.5 112t-75.5 51zM657 591
q119 0 184.5 -70t65.5 -188q0 -23 -6.5 -37.5t-14.5 -22.5t-27 -12t-32.5 -4.5t-43.5 -0.5h-229q0 -60 44.5 -90.5t87.5 -30.5q42 0 90 31t72 31q25 0 41 -16.5t16 -49.5q0 -28 -17 -46q-77 -96 -216 -96q-127 0 -200.5 88t-73.5 217q0 121 70 209t189 88zM562 360h185
q0 45 -26 70t-62 25q-38 0 -67.5 -25.5t-29.5 -69.5z" />
    <glyph glyph-name="Ydieresis" unicode="&#x178;" horiz-adv-x="568" 
d="M196 317v-231q0 -86 81 -86t81 86v229l179 344q12 20 12 44q0 76 -77 76q-47 0 -73 -43q-19 -32 -59 -136.5t-59 -136.5l-123 273q-19 43 -68 43q-77 0 -77 -79q0 -23 13 -47q28 -50 85.5 -168.5t84.5 -167.5zM63 889q0 38 26 63.5t64 25.5q37 0 63 -26t26 -63t-26 -63
t-63 -26q-38 0 -64 25.5t-26 63.5zM312 889q0 37 25.5 63t62.5 26q38 0 63.5 -25.5t25.5 -63.5t-25.5 -63.5t-63.5 -25.5q-37 0 -62.5 26t-25.5 63z" />
    <glyph glyph-name="florin" unicode="&#x192;" horiz-adv-x="375" 
d="M243 435v-475q-4 -78 -61.5 -124t-130.5 -46q-84 0 -84 76q0 33 20 48.5t44 15.5t41.5 19t17.5 43v444q-40 1 -59.5 16t-19.5 51q0 38 19.5 53.5t60.5 15.5v68q4 78 62 124t131 46q84 0 84 -76q0 -33 -20 -48.5t-44 -15.5t-40 -18.5t-16 -43.5v-36q1 0 3 0.5t4 0.5
q43 0 62.5 -15.5t19.5 -52.5q0 -38 -19.5 -54t-62.5 -16h-12z" />
    <glyph glyph-name="circumflex" unicode="&#x2c6;" horiz-adv-x="509" 
d="M314 660l-94 73l-94 -74q-33 -24 -57 -24q-18 0 -35 10q-34 18 -34 61q0 38 33 60l136 101q26 18 53 18q19 0 47 -15l141 -105q32 -27 32 -59q0 -23 -7 -37t-28 -25q-17 -9 -34 -9q-28 0 -59 25z" />
    <glyph glyph-name="ring" unicode="&#x2da;" horiz-adv-x="304" 
d="M141 802q59 0 96.5 -38.5t37.5 -95.5t-39 -95.5t-95 -38.5q-58 0 -95.5 38.5t-37.5 96.5q0 55 35.5 94t97.5 39zM141 718q-23 0 -36 -14.5t-13 -35.5q0 -22 14 -36t35 -14q22 0 36 14t14 36q0 21 -14 35.5t-36 14.5z" />
    <glyph glyph-name="tilde" unicode="&#x2dc;" horiz-adv-x="516" 
d="M94 590q-73 0 -73 81q0 48 44.5 86t101.5 38t130 -48q4 -1 11 -5.5t13 -4.5q19 0 33 24q9 17 28.5 27t28.5 10q75 0 75 -84q0 -60 -37 -89t-90 -29q-27 0 -62.5 12.5t-58.5 26.5q-5 2 -13 7.5t-13.5 7.5t-12.5 2q-23 0 -33 -12q-21 -28 -36 -39t-36 -11z" />
    <glyph glyph-name="tonos" unicode="&#x384;" horiz-adv-x="344" 
d="M216 663l-60 -135q-7 -18 -13 -28t-21 -20t-37 -10q-39 0 -58.5 20.5t-19.5 54.5q0 21 9 35l58 136q22 52 73 52q75 0 75 -76q0 -13 -6 -29z" />
    <glyph glyph-name="dieresistonos" unicode="&#x385;" horiz-adv-x="643" 
d="M17 623q0 38 25.5 63.5t63.5 25.5q37 0 62.5 -26t25.5 -63t-25.5 -63t-62.5 -26q-38 0 -63.5 25.5t-25.5 63.5zM433 623q0 38 26 63.5t64 25.5q37 0 63 -26t26 -63t-26 -63t-63 -26q-38 0 -64 25.5t-26 63.5zM437 724l-60 -134q-7 -17 -13.5 -27.5t-22 -20.5t-36.5 -10
q-38 0 -59 21t-21 54q0 21 9 35l-1 -3l59 140q23 52 75 52q37 0 57 -20.5t20 -56.5q0 -5 -3.5 -17t-3.5 -13z" />
    <glyph glyph-name="Alphatonos" unicode="&#x386;" horiz-adv-x="694" 
d="M396 501l-72 -198h142zM561 51l-35 90h-255q-5 -14 -14 -39t-13 -36q-22 -66 -85 -66q-38 0 -57 22.5t-19 56.5q0 13 6 33l210 594q26 71 97 71t97 -71q223 -609 223 -628q0 -35 -20.5 -56.5t-57.5 -21.5q-57 0 -77 51zM211 663l-60 -135q-7 -18 -13 -28t-21 -20t-37 -10
q-39 0 -58.5 20.5t-19.5 54.5q0 21 9 35l58 136q22 52 73 52q75 0 75 -76q0 -13 -6 -29z" />
    <glyph glyph-name="Epsilontonos" unicode="&#x388;" horiz-adv-x="770" 
d="M276 88v602q0 87 84 87h282q80 0 80 -80t-80 -80h-206v-135h161q80 0 80 -81q0 -79 -80 -79h-161v-162h213q86 0 86 -80t-86 -80h-289q-54 0 -69 17t-15 71zM201 663l-60 -135q-7 -18 -13 -28t-21 -20t-37 -10q-39 0 -58.5 20.5t-19.5 54.5q0 21 9 35l58 136q22 52 73 52
q75 0 75 -76q0 -13 -6 -29z" />
    <glyph glyph-name="Etatonos" unicode="&#x389;" horiz-adv-x="942" 
d="M293 80v618q0 81 78 81q81 0 81 -81v-223h290v223q0 81 80 81q81 0 81 -81v-618q0 -80 -81 -80q-80 0 -80 80v234h-290v-234q0 -80 -80 -80q-79 0 -79 80zM211 663l-60 -135q-7 -18 -13 -28t-21 -20t-37 -10q-39 0 -58.5 20.5t-19.5 54.5q0 21 9 35l58 136q22 52 73 52
q75 0 75 -76q0 -13 -6 -29z" />
    <glyph glyph-name="Iotatonos" unicode="&#x38a;" horiz-adv-x="465" 
d="M266 81v617q0 81 80 81q81 0 81 -81v-617q0 -81 -81 -81q-80 0 -80 81zM201 663l-60 -135q-7 -18 -13 -28t-21 -20t-37 -10q-39 0 -58.5 20.5t-19.5 54.5q0 21 9 35l58 136q22 52 73 52q75 0 75 -76q0 -13 -6 -29z" />
    <glyph glyph-name="Omicrontonos" unicode="&#x38c;" horiz-adv-x="910" 
d="M530 800q110 0 190.5 -60.5t117.5 -150.5t37 -195q0 -77 -22 -148.5t-63.5 -128.5t-109 -91.5t-150.5 -34.5q-82 0 -148 34.5t-107 92.5t-63 129.5t-22 149.5q0 77 21.5 148t62.5 128.5t107.5 92t148.5 34.5zM530 638q-84 0 -130 -70.5t-46 -168.5q0 -102 47 -175.5
t131 -73.5q86 0 132.5 71t46.5 171q0 101 -47.5 173.5t-133.5 72.5zM205 663l-60 -135q-7 -18 -13 -28t-21 -20t-37 -10q-39 0 -58.5 20.5t-19.5 54.5q0 21 9 35l58 136q22 52 73 52q75 0 75 -76q0 -13 -6 -29z" />
    <glyph glyph-name="Upsilontonos" unicode="&#x38e;" horiz-adv-x="853" 
d="M451 86v231q-27 49 -84.5 167.5t-85.5 168.5q-13 24 -13 47q0 79 77 79q49 0 68 -43l123 -273q19 32 59 136.5t59 136.5q26 43 73 43q77 0 77 -76q0 -24 -12 -44l-179 -344v-229q0 -86 -81 -86t-81 86zM207 663l-60 -135q-7 -18 -13 -28t-21 -20t-37 -10
q-39 0 -58.5 20.5t-19.5 54.5q0 21 9 35l58 136q22 52 73 52q75 0 75 -76q0 -13 -6 -29z" />
    <glyph glyph-name="Omegatonos" unicode="&#x38f;" horiz-adv-x="903" 
d="M223 426q0 72 22.5 137.5t65 119t112.5 85.5t157 32q91 0 162.5 -31t114 -85t64.5 -122t22 -146q0 -81 -37.5 -154.5t-79.5 -102.5l-3 -3q0 -2 3 -2h36q63 -6 63 -78q0 -76 -74 -76h-167q-67 0 -67 71q0 45 53 76q55 35 85 105.5t30 150.5q0 97 -54 169.5t-151 72.5
q-94 0 -147.5 -69.5t-53.5 -172.5q0 -80 30 -150.5t85 -105.5q53 -31 53 -76q0 -71 -67 -71h-167q-74 0 -74 76q0 72 63 78h36q3 0 3 2l-3 3q-40 28 -77.5 109t-37.5 158zM151 528l60 135q6 16 6 29q0 76 -75 76q-51 0 -73 -52l-58 -136q-9 -14 -9 -35q0 -34 19.5 -54.5
t58.5 -20.5q22 0 37 10t21 20t13 28z" />
    <glyph glyph-name="iotadieresistonos" unicode="&#x390;" horiz-adv-x="270" 
d="M196 77v433q0 78 -80 78q-78 0 -78 -78v-433q0 -77 78 -77q80 0 80 77zM-169 736q0 38 25.5 63.5t63.5 25.5q37 0 62.5 -26t25.5 -63t-25.5 -63t-62.5 -26q-38 0 -63.5 25.5t-25.5 63.5zM247 736q0 38 26 63.5t64 25.5q37 0 63 -26t26 -63t-26 -63t-63 -26
q-38 0 -64 25.5t-26 63.5zM251 837l-60 -134q-7 -17 -13.5 -27.5t-22 -20.5t-36.5 -10q-38 0 -59 21t-21 54q0 22 9 35l-1 -3l59 140q23 52 75 52q37 0 57 -20.5t20 -56.5q0 -5 -3.5 -17t-3.5 -13z" />
    <glyph glyph-name="Alpha" unicode="&#x391;" horiz-adv-x="680" 
d="M330 501l-72 -198h142zM495 51l-35 90h-255q-5 -14 -14 -39t-13 -36q-22 -66 -85 -66q-38 0 -57 22.5t-19 56.5q0 13 6 33l210 594q26 71 97 71t97 -71q223 -609 223 -628q0 -35 -20.5 -56.5t-57.5 -21.5q-57 0 -77 51z" />
    <glyph glyph-name="Beta" unicode="&#x392;" horiz-adv-x="541" 
d="M13 91v596q0 90 84 90h142q30 0 62 -7t65 -23t59 -39.5t42 -59.5t16 -80q0 -39 -31.5 -85t-63.5 -50q60 -9 104 -70.5t44 -124.5q0 -103 -71.5 -170.5t-170.5 -67.5h-181q-47 0 -67 15q-33 23 -33 76zM174 345v-185h111q44 0 69 25t25 60q0 40 -33 70t-93 30h-79z
M174 470h77q38 0 58.5 20.5t20.5 49.5q0 31 -23 54t-64 23h-69v-147z" />
    <glyph glyph-name="Gamma" unicode="&#x393;" horiz-adv-x="493" 
d="M11 81v607q0 90 84 90h291q37 0 60 -24t23 -57q0 -79 -83 -79h-214v-537q0 -81 -82 -81q-79 0 -79 81z" />
    <glyph glyph-name="uni0394" unicode="&#x394;" horiz-adv-x="698" 
d="M341 504l-122 -338h251zM572 0h-465q-89 0 -89 69q0 15 7 36l-1 -3l222 605q26 73 95 73q75 0 97 -72l230 -605q6 -19 6 -35q0 -68 -102 -68z" />
    <glyph glyph-name="Epsilon" unicode="&#x395;" horiz-adv-x="485" 
d="M11 88v602q0 87 84 87h282q80 0 80 -80t-80 -80h-206v-135h161q80 0 80 -81q0 -79 -80 -79h-161v-162h213q86 0 86 -80t-86 -80h-289q-54 0 -69 17t-15 71z" />
    <glyph glyph-name="Zeta" unicode="&#x396;" horiz-adv-x="598" 
d="M32 146l313 472h-236q-81 0 -81 79q0 81 81 81h372q48 0 70.5 -21t22.5 -55q0 -30 -26 -71l-313 -471h269q82 0 82 -78q0 -82 -82 -82h-411q-78 0 -78 85q0 32 17 61z" />
    <glyph glyph-name="Eta" unicode="&#x397;" horiz-adv-x="679" 
d="M17 80v618q0 81 78 81q81 0 81 -81v-223h290v223q0 81 80 81q81 0 81 -81v-618q0 -80 -81 -80q-80 0 -80 80v234h-290v-234q0 -80 -80 -80q-79 0 -79 80z" />
    <glyph glyph-name="Theta" unicode="&#x398;" horiz-adv-x="752" 
d="M399 317h-66q-81 0 -81 81t81 81h66q81 0 81 -82q0 -80 -81 -80zM359 800q110 0 190.5 -60.5t117.5 -150.5t37 -195q0 -77 -22 -148.5t-63.5 -128.5t-109 -91.5t-150.5 -34.5q-82 0 -148 34.5t-107 92.5t-63 129.5t-22 149.5q0 77 21.5 148t62.5 128.5t107.5 92
t148.5 34.5zM360 638q-84 0 -130 -70.5t-46 -168.5q0 -102 47 -175.5t131 -73.5q85 0 132 71t47 171q0 101 -47.5 173.5t-133.5 72.5z" />
    <glyph glyph-name="Iota" unicode="&#x399;" horiz-adv-x="204" 
d="M1 81v617q0 81 80 81q81 0 81 -81v-617q0 -81 -81 -81q-80 0 -80 81z" />
    <glyph glyph-name="Kappa" unicode="&#x39a;" horiz-adv-x="591" 
d="M15 76v629q0 74 79 74q81 0 81 -74v-218l243 267q18 23 55 23q32 0 58 -25.5t26 -57.5q0 -36 -23 -56l-173 -188l194 -317q20 -21 20 -53q0 -35 -29.5 -58t-51.5 -23q-23 0 -37.5 9t-32.5 28l-180 293l-69 -74v-179q0 -76 -79 -76q-81 0 -81 76z" />
    <glyph glyph-name="Lambda" unicode="&#x39b;" horiz-adv-x="691" 
d="M503 67l-164 436l-162 -444q-21 -59 -77 -59q-33 0 -57.5 21.5t-24.5 54.5q0 9 4 25l219 606q27 73 97 73q73 0 95 -73l225 -594q8 -24 8 -37q0 -36 -22.5 -56t-57.5 -20q-34 0 -51.5 15.5t-31.5 51.5z" />
    <glyph glyph-name="Mu" unicode="&#x39c;" horiz-adv-x="922" 
d="M331 686l108 -358l110 359q29 92 111 92q42 0 69 -27.5t34 -79.5l86 -584v-4l1 -1v-2q0 -37 -22 -58.5t-57 -21.5q-74 0 -84 77l-51 379q-21 -64 -60 -196t-57 -189q-23 -72 -82 -72q-62 0 -83 72l-106 387l-64 -380q-13 -78 -82 -78q-78 0 -78 78q0 14 1 22l92 572
q18 108 104 108q80 0 110 -95z" />
    <glyph glyph-name="Nu" unicode="&#x39d;" horiz-adv-x="670" 
d="M16 82v610q0 87 79 87q52 0 88 -53l275 -409v380q0 81 79 81q81 0 81 -81v-610q0 -87 -80 -87q-51 0 -84 47l-278 408v-373q0 -82 -80 -82t-80 82z" />
    <glyph glyph-name="Xi" unicode="&#x39e;" horiz-adv-x="650" 
d="M106 778h411q81 0 81 -81q0 -79 -81 -79h-411q-80 0 -80 79q0 81 80 81zM171 482h274q81 0 81 -81q0 -79 -81 -79h-274q-80 0 -80 81q0 79 80 79zM99 163h427q85 0 85 -81q0 -80 -85 -80h-427q-87 0 -87 80q0 81 87 81z" />
    <glyph glyph-name="Omicron" unicode="&#x39f;" horiz-adv-x="753" 
d="M359 800q110 0 190.5 -60.5t117.5 -150.5t37 -195q0 -77 -22 -148.5t-63.5 -128.5t-109 -91.5t-150.5 -34.5q-82 0 -148 34.5t-107 92.5t-63 129.5t-22 149.5q0 77 21.5 148t62.5 128.5t107.5 92t148.5 34.5zM359 638q-84 0 -130 -70.5t-46 -168.5q0 -102 47 -175.5
t131 -73.5q86 0 132.5 71t46.5 171q0 101 -47.5 173.5t-133.5 72.5z" />
    <glyph glyph-name="Pi" unicode="&#x3a0;" horiz-adv-x="661" 
d="M95 780h440q32 0 56.5 -25t24.5 -57v-617q0 -81 -80 -81q-79 0 -79 81v537h-281v-537q0 -81 -82 -81q-78 0 -78 81v617q0 82 79 82z" />
    <glyph glyph-name="Rho" unicode="&#x3a1;" horiz-adv-x="531" 
d="M13 81v614q0 83 84 83h169q115 0 189 -71.5t74 -184.5q0 -108 -74 -180.5t-183 -72.5h-99v-188q0 -81 -80 -81t-80 81zM253 618h-80v-189h95q45 0 71.5 25.5t26.5 68.5q0 45 -29.5 70t-83.5 25z" />
    <glyph glyph-name="Sigma" unicode="&#x3a3;" horiz-adv-x="605" 
d="M255 617l106 -161q17 -25 17 -51q0 -24 -15 -44l-131 -201h252q81 0 81 -81q0 -79 -81 -79h-391q-78 0 -78 85q0 33 17 61l168 260l-148 225q-25 38 -25 70q0 77 94 77h351q81 0 81 -81q0 -80 -81 -80h-217z" />
    <glyph glyph-name="Tau" unicode="&#x3a4;" horiz-adv-x="526" 
d="M186 85v533h-91q-83 0 -83 79q0 81 83 81h343q81 0 81 -81q0 -79 -81 -79h-92v-533q0 -85 -78 -85q-82 0 -82 85z" />
    <glyph glyph-name="Upsilon" unicode="&#x3a5;" horiz-adv-x="565" 
d="M196 86v231q-27 49 -84.5 167.5t-85.5 168.5q-13 24 -13 47q0 79 77 79q49 0 68 -43l123 -273q19 32 59 136.5t59 136.5q26 43 73 43q77 0 77 -76q0 -24 -12 -44l-179 -344v-229q0 -86 -81 -86t-81 86z" />
    <glyph glyph-name="Phi" unicode="&#x3a6;" horiz-adv-x="759" 
d="M295 713v7q0 81 81 81q40 0 60.5 -18t20.5 -46v-24q116 -14 195 -93.5t79 -195.5q0 -113 -81 -190.5t-194 -94.5v-57q0 -82 -80 -82q-81 0 -81 82v56q-118 14 -196.5 92t-78.5 194q0 114 80.5 193t194.5 96zM295 287v279q-50 -11 -84 -51t-34 -91q0 -48 34.5 -86.5
t83.5 -50.5zM456 565v-279q50 11 83 49t33 89q0 50 -33.5 90t-82.5 51z" />
    <glyph glyph-name="Chi" unicode="&#x3a7;" horiz-adv-x="664" 
d="M34 129l189 293l-163 228q-16 23 -16 50q0 34 23.5 56t55.5 22q42 0 68 -35l128 -178l113 174q24 39 68 39q31 0 55 -23.5t24 -56.5q0 -24 -15 -47l-148 -218l198 -303q20 -31 20 -59q0 -72 -72 -72q-43 0 -74 40l-168 246l-156 -244q-26 -42 -75 -42q-72 0 -72 73
q0 29 17 57z" />
    <glyph glyph-name="Psi" unicode="&#x3a8;" horiz-adv-x="761" 
d="M449 720v-421q54 11 81.5 57.5t27.5 117.5v205q0 81 81 81t81 -81v-217q0 -133 -73.5 -215.5t-197.5 -96.5v-70q0 -80 -80 -80q-79 0 -79 80v71q-125 16 -198 98t-73 213v217q0 80 82 80q78 0 78 -80v-205q0 -63 30 -111t81 -62v419q0 81 79 81q80 0 80 -81z" />
    <glyph glyph-name="uni03A9" unicode="&#x3a9;" horiz-adv-x="735" 
d="M10 426q0 72 22.5 137.5t65 119t112.5 85.5t157 32q91 0 162.5 -31t114 -85t64.5 -122t22 -146q0 -81 -37.5 -154.5t-79.5 -102.5l-3 -3q0 -2 3 -2h36q63 -6 63 -78q0 -76 -74 -76h-167q-67 0 -67 71q0 45 53 76q55 35 85 105.5t30 150.5q0 97 -54 169.5t-151 72.5
q-94 0 -147.5 -69.5t-53.5 -172.5q0 -80 30 -150.5t85 -105.5q53 -31 53 -76q0 -71 -67 -71h-167q-74 0 -74 76q0 72 63 78h36q3 0 3 2l-3 3q-40 28 -77.5 109t-37.5 158z" />
    <glyph glyph-name="Iotadieresis" unicode="&#x3aa;" horiz-adv-x="277" 
d="M46 698v-617q0 -81 80 -81q81 0 81 81v617q0 81 -81 81q-80 0 -80 -81zM-87 892q0 38 26 63.5t64 25.5q37 0 63 -26t26 -63t-26 -63t-63 -26q-38 0 -64 25.5t-26 63.5zM162 892q0 37 25.5 63t62.5 26q38 0 63.5 -25.5t25.5 -63.5t-25.5 -63.5t-63.5 -25.5q-37 0 -62.5 26
t-25.5 63z" />
    <glyph glyph-name="Upsilondieresis" unicode="&#x3ab;" horiz-adv-x="624" 
d="M221 317v-231q0 -86 81 -86t81 86v229l179 344q12 20 12 44q0 76 -77 76q-47 0 -73 -43q-19 -32 -59 -136.5t-59 -136.5l-123 273q-19 43 -68 43q-77 0 -77 -79q0 -23 13 -47q28 -50 85.5 -168.5t84.5 -167.5zM86 892q0 38 26 63.5t64 25.5q37 0 63 -26t26 -63t-26 -63
t-63 -26q-38 0 -64 25.5t-26 63.5zM335 892q0 37 25.5 63t62.5 26q38 0 63.5 -25.5t25.5 -63.5t-25.5 -63.5t-63.5 -25.5q-37 0 -62.5 26t-25.5 63z" />
    <glyph glyph-name="alphatonos" unicode="&#x3ac;" horiz-adv-x="580" 
d="M216 590q39 0 76.5 -18.5t60.5 -54.5q5 72 80 72q78 0 78 -80v-448q0 -74 -78 -74q-71 0 -71 71v20q-60 -89 -147 -89q-84 0 -148.5 85t-64.5 214q0 132 64 217t150 85zM254 138q40 0 71 42t31 111t-30 111.5t-69 42.5q-44 0 -70 -48t-26 -110q0 -61 24.5 -105t68.5 -44z
M410 838l-60 -135q-7 -18 -13 -28t-21 -20t-37 -10q-39 0 -58.5 20.5t-19.5 54.5q0 22 9 35l58 136q22 52 73 52q75 0 75 -76q0 -13 -6 -29z" />
    <glyph glyph-name="epsilontonos" unicode="&#x3ad;" horiz-adv-x="476" 
d="M243 -15q-100 0 -167 53.5t-67 122.5q0 40 28.5 77.5t82.5 62.5q-87 48 -87 115t63.5 119t159.5 52q42 0 77.5 -6t66.5 -27.5t31 -56.5q0 -60 -69 -60q-14 0 -44 5q-22 5 -55 5q-38 0 -58.5 -15t-20.5 -35q0 -16 12.5 -27t33.5 -11h54q86 0 86 -59q0 -57 -84 -57h-54
q-28 -4 -44 -21t-16 -39q0 -24 19.5 -40.5t54.5 -16.5q25 0 71 11q34 9 60 9q36 0 54 -16t18 -43q0 -32 -21.5 -53.5t-56.5 -31.5t-65.5 -13.5t-62.5 -3.5zM383 838l-60 -135q-7 -18 -13 -28t-21 -20t-37 -10q-39 0 -58.5 20.5t-19.5 54.5q0 22 9 35l58 136q22 52 73 52
q75 0 75 -76q0 -13 -6 -29z" />
    <glyph glyph-name="etatonos" unicode="&#x3ae;" horiz-adv-x="521" 
d="M17 77v422q0 34 20 57t56 23t57 -21t22 -46q63 70 138 70q68 0 119 -48.5t51 -149.5v-517q0 -77 -79 -77q-78 0 -78 77v489q0 42 -22 65.5t-51 23.5q-32 0 -55 -23.5t-23 -65.5v-279q0 -77 -79 -77q-76 0 -76 77zM373 838l-60 -135q-7 -18 -13 -28t-21 -20t-37 -10
q-39 0 -58.5 20.5t-19.5 54.5q0 22 9 35l58 136q22 52 73 52q75 0 75 -76q0 -13 -6 -29z" />
    <glyph glyph-name="iotatonos" unicode="&#x3af;" horiz-adv-x="232" 
d="M171 510v-433q0 -77 -80 -77q-78 0 -78 77v433q0 78 78 78q80 0 80 -78zM226 838l-60 -135q-7 -18 -13 -28t-21 -20t-37 -10q-39 0 -58.5 20.5t-19.5 54.5q0 22 9 35l58 136q22 52 73 52q75 0 75 -76q0 -13 -6 -29z" />
    <glyph glyph-name="upsilondieresistonos" unicode="&#x3b0;" horiz-adv-x="524" 
d="M21 505v-299q0 -94 68 -155.5t162 -61.5q93 0 163 62.5t70 154.5v299q0 78 -79 78q-78 0 -78 -78v-278q0 -35 -21.5 -58.5t-54.5 -23.5t-54 23.5t-21 58.5v278q0 78 -79 78q-76 0 -76 -78zM-29 736q0 38 25.5 63.5t63.5 25.5q37 0 62.5 -26t25.5 -63t-25.5 -63t-62.5 -26
q-38 0 -63.5 25.5t-25.5 63.5zM387 736q0 38 26 63.5t64 25.5q37 0 63 -26t26 -63t-26 -63t-63 -26q-38 0 -64 25.5t-26 63.5zM391 837l-60 -134q-7 -17 -13.5 -27.5t-22 -20.5t-36.5 -10q-38 0 -59 21t-21 54q0 22 9 35l-1 -3l59 140q23 52 75 52q37 0 57 -20.5t20 -56.5
q0 -5 -3.5 -17t-3.5 -13z" />
    <glyph glyph-name="alpha" unicode="&#x3b1;" horiz-adv-x="580" 
d="M216 590q39 0 76.5 -18.5t60.5 -54.5q5 72 80 72q78 0 78 -80v-448q0 -74 -78 -74q-71 0 -71 71v20q-60 -89 -147 -89q-84 0 -148.5 85t-64.5 214q0 132 64 217t150 85zM254 138q40 0 71 42t31 111t-30 111.5t-69 42.5q-44 0 -70 -48t-26 -110q0 -61 24.5 -105t68.5 -44z
" />
    <glyph glyph-name="beta" unicode="&#x3b2;" horiz-adv-x="559" 
d="M175 54v-176q0 -83 -79 -83q-78 0 -78 82v656q0 106 59 171.5t171 65.5q90 0 151.5 -57t61.5 -131q0 -38 -20 -75.5t-58 -58.5q61 -25 95 -85.5t34 -125.5q0 -102 -61 -171.5t-154 -69.5q-71 0 -122 58zM175 499v-128q0 -12 -0.5 -56.5t-0.5 -84.5q0 -39 24 -61.5
t63 -22.5q44 0 69 31.5t25 75.5q0 37 -20 70t-54 48q-3 0 -7.5 0.5t-5.5 0.5q-3 1 -22 1q-18 0 -28 16t-10 39q0 22 11 39t31 18h22q31 15 31 60q0 29 -15 50.5t-41 21.5q-42 0 -57 -30.5t-15 -87.5z" />
    <glyph glyph-name="gamma" unicode="&#x3b3;" horiz-adv-x="528" 
d="M182 -120v174l-160 439q-4 9 -4 29q0 30 25 52t54 22q34 0 57 -18.5t26 -47.5l82 -295l82 297q22 64 79 64q30 0 55.5 -23t25.5 -56q0 -15 -5 -27l-20 -55q-116 -306 -137 -380v-176q0 -86 -81 -86q-79 0 -79 87z" />
    <glyph glyph-name="delta" unicode="&#x3b4;" horiz-adv-x="573" 
d="M276 383q-45 0 -72.5 -36t-27.5 -81q0 -52 27 -89t74 -37q48 0 75 31t27 82q0 55 -28 92.5t-75 37.5zM487 670q0 -24 -16.5 -38t-44.5 -14q-17 0 -47 10q-30 12 -67 12q-70 0 -70 -46q0 -18 21.5 -35.5t58.5 -30.5q212 -71 212 -269q0 -114 -68.5 -191t-187.5 -77
t-189 80t-70 194q0 68 43.5 133.5t125.5 88.5q-46 26 -71.5 62.5t-25.5 70.5q0 63 58 108t157 45q79 0 130 -26.5t51 -76.5z" />
    <glyph glyph-name="epsilon" unicode="&#x3b5;" horiz-adv-x="476" 
d="M243 -15q-100 0 -167 53.5t-67 122.5q0 40 28.5 77.5t82.5 62.5q-87 48 -87 115t63.5 119t159.5 52q42 0 77.5 -6t66.5 -27.5t31 -56.5q0 -60 -69 -60q-14 0 -44 5q-22 5 -55 5q-38 0 -58.5 -15t-20.5 -35q0 -16 12.5 -27t33.5 -11h54q86 0 86 -59q0 -57 -84 -57h-54
q-28 -4 -44 -21t-16 -39q0 -24 19.5 -40.5t54.5 -16.5q25 0 71 11q34 9 60 9q36 0 54 -16t18 -43q0 -32 -21.5 -53.5t-56.5 -31.5t-65.5 -13.5t-62.5 -3.5z" />
    <glyph glyph-name="zeta" unicode="&#x3b6;" horiz-adv-x="538" 
d="M403 -172q-29 0 -51 23.5t-22 50.5q0 16 4 35.5t4 24.5q0 20 -37 34q-12 5 -25 9q-23 8 -36.5 13t-39.5 18t-43 25.5t-38 34.5t-33 46.5t-21 60t-9 76.5q0 183 228 318h-132q-37 0 -62 20t-25 56q0 38 24.5 57.5t62.5 19.5h290q79 0 79 -76q0 -32 -15.5 -49t-47.5 -28
q-77 -21 -155.5 -113t-78.5 -201q0 -41 10.5 -68.5t33 -43.5t40 -23t49.5 -15q147 -40 147 -147q0 -61 -25.5 -109.5t-75.5 -48.5z" />
    <glyph glyph-name="eta" unicode="&#x3b7;" horiz-adv-x="521" 
d="M17 77v422q0 34 20 57t56 23t57 -21t22 -46q63 70 138 70q68 0 119 -48.5t51 -149.5v-517q0 -77 -79 -77q-78 0 -78 77v489q0 42 -22 65.5t-51 23.5q-32 0 -55 -23.5t-23 -65.5v-279q0 -77 -79 -77q-76 0 -76 77z" />
    <glyph glyph-name="theta" unicode="&#x3b8;" horiz-adv-x="584" 
d="M278 769q69 0 121.5 -38.5t81 -99.5t42.5 -125.5t14 -128.5q0 -68 -14 -132.5t-43.5 -122.5t-82 -93.5t-121.5 -35.5q-56 0 -101.5 25t-74 64t-47.5 91t-26.5 103t-7.5 103q0 66 13.5 130t41.5 124.5t81 98t123 37.5zM274 310q-32 0 -51.5 19.5t-19.5 55.5q0 37 19.5 58
t51.5 21q37 0 55 -22.5t18 -56.5q0 -32 -18 -53.5t-55 -21.5zM281 613q-29 0 -50.5 -24.5t-33 -63t-16.5 -76t-5 -73.5t5 -72.5t16 -73.5t32 -60.5t50 -23.5q28 0 48 24t30.5 61.5t15 74t4.5 71.5t-4.5 72t-14.5 76t-30 63.5t-47 24.5z" />
    <glyph glyph-name="iota" unicode="&#x3b9;" horiz-adv-x="232" 
d="M171 510v-433q0 -77 -80 -77q-78 0 -78 77v433q0 78 78 78q80 0 80 -78z" />
    <glyph glyph-name="kappa" unicode="&#x3ba;" horiz-adv-x="531" 
d="M16 77v426q0 78 77 78q78 0 78 -78v-124q32 27 96.5 87.5t96.5 87.5q23 19 53 19q32 0 56 -22t24 -53q0 -33 -32 -57l-102 -94q34 -62 63.5 -113t42.5 -72t23 -39t12.5 -26t2.5 -21q0 -34 -18 -56t-56 -22q-22 0 -43 11.5t-32 28.5l-116 223q-69 -63 -71 -65v-119
q0 -77 -78 -77q-77 0 -77 77z" />
    <glyph glyph-name="lambda" unicode="&#x3bb;" horiz-adv-x="516" 
d="M9 105l149 395q-5 14 -28 75.5t-34 93.5v17q0 32 24 52.5t57 20.5q61 0 84 -68l199 -578q7 -19 7 -36q0 -35 -19 -56t-57 -21q-61 0 -82 61l-71 258q-5 -15 -11 -35t-13 -47t-12 -43q-26 -94 -39 -132q-22 -62 -84 -62q-38 0 -57 20t-19 52q0 16 6 33z" />
    <glyph glyph-name="uni03BC" unicode="&#x3bc;" horiz-adv-x="547" 
d="M18 -132v637q0 78 76 78q77 0 77 -78v-292q0 -28 18.5 -45.5t46.5 -17.5q40 0 64 29t24 71v255q0 78 78 78q77 0 77 -78v-422q0 -83 -77 -83q-23 0 -41 17t-19 47q-9 -31 -35 -49t-59 -18q-28 0 -49.5 19t-27.5 47v-195q0 -78 -78 -78q-75 0 -75 78z" />
    <glyph glyph-name="nu" unicode="&#x3bd;" horiz-adv-x="503" 
d="M176 513l70 -266l68 269q25 68 83 68q35 0 55.5 -19.5t20.5 -56.5q0 -16 -6 -31l-144 -421q-20 -56 -82 -56q-58 0 -78 56l-142 423q-5 17 -5 29q0 35 22 55.5t56 20.5q63 0 82 -71z" />
    <glyph glyph-name="xi" unicode="&#x3be;" horiz-adv-x="538" 
d="M357 -172q-30 0 -52 23.5t-22 50.5q0 14 7 37.5t7 34.5q0 14 -40 23q-37 8 -64 15.5t-62.5 25t-58 39t-39 57.5t-16.5 82q0 58 43 108t112 85q-44 9 -67 34t-23 57q0 33 23 64.5t60 46.5q-1 0 -8 0.5t-13 0.5q-4 0 -26 1t-34 2q-20 2 -32.5 17.5t-12.5 40.5q0 40 16 58.5
t52 18.5h289q79 0 79 -76q0 -34 -15 -48t-55 -14q-89 0 -127.5 -24t-38.5 -59q0 -27 18.5 -43.5t51.5 -16.5q95 0 95 -61q0 -60 -93 -60q-54 0 -90 -29.5t-36 -72.5q0 -38 32 -68.5t99 -46.5q152 -37 152 -145q0 -31 -12.5 -66.5t-39 -63.5t-59.5 -28z" />
    <glyph glyph-name="omicron" unicode="&#x3bf;" horiz-adv-x="588" 
d="M280 588q122 0 191.5 -88t69.5 -211q0 -125 -69.5 -211.5t-191.5 -86.5q-123 0 -192 89.5t-69 214.5q0 123 69 208t192 85zM280 446q-49 0 -75 -43t-26 -103q0 -62 26.5 -115.5t74.5 -53.5q49 0 75 46t26 106q0 61 -26.5 112t-74.5 51z" />
    <glyph glyph-name="pi" unicode="&#x3c0;" horiz-adv-x="531" 
d="M17 77v426q0 32 20.5 55.5t53.5 23.5h316q78 0 78 -80v-425q0 -77 -78 -77q-77 0 -77 77v358h-157v-358q0 -77 -79 -77q-77 0 -77 77z" />
    <glyph glyph-name="rho" unicode="&#x3c1;" horiz-adv-x="573" 
d="M283 446q-52 0 -79 -39t-27 -110q0 -75 30.5 -114.5t72.5 -39.5q39 0 67.5 39t28.5 107q0 62 -23 109.5t-70 47.5zM19 -127v422q0 132 69 217.5t190 85.5q125 0 189 -85t64 -223q0 -147 -66.5 -226t-153.5 -79q-42 0 -78.5 21t-57.5 58v-191q0 -78 -79 -78q-77 0 -77 78z
" />
    <glyph glyph-name="sigma1" unicode="&#x3c2;" horiz-adv-x="580" 
d="M330 432q-56 0 -95.5 -41t-39.5 -109q0 -31 8.5 -54t19 -35.5t32.5 -23t34.5 -14t40.5 -10.5q73 -18 119 -57.5t46 -102.5q0 -59 -30 -109t-81 -50q-29 0 -51.5 23.5t-22.5 50.5q0 11 1.5 26t1.5 21q0 28 -33 50q-29 7 -46.5 11.5t-47 16t-48 24.5t-41 35.5t-35 50.5
t-21.5 68t-9 89q0 128 92.5 214.5t209.5 86.5q60 0 122 -28q24 -10 40 -31.5t16 -42.5q0 -33 -21.5 -57.5t-54.5 -24.5q-15 0 -50.5 11.5t-55.5 11.5z" />
    <glyph glyph-name="sigma" unicode="&#x3c3;" horiz-adv-x="652" 
d="M291 593l243 -1q36 -2 60.5 -23t24.5 -56q0 -30 -26 -54t-57 -24l-67 12q62 -78 62 -195q0 -105 -71 -183t-181 -78q-121 0 -189 91.5t-68 217.5q0 125 71.5 209t197.5 84zM282 142q49 0 72.5 40.5t23.5 98.5q0 63 -23 112.5t-71 49.5t-75 -43t-27 -101q0 -59 26.5 -108
t73.5 -49z" />
    <glyph glyph-name="tau" unicode="&#x3c4;" horiz-adv-x="535" 
d="M89 584h310q81 0 81 -75q0 -74 -79 -74h-79v-231q0 -35 3 -48.5t16 -13.5q85 0 85 -75t-85 -75q-102 0 -138.5 52t-36.5 160v230h-73q-76 0 -76 76q0 74 72 74z" />
    <glyph glyph-name="upsilon" unicode="&#x3c5;" horiz-adv-x="524" 
d="M17 206v299q0 78 76 78q79 0 79 -78v-278q0 -35 21 -58.5t54 -23.5t54.5 23.5t21.5 58.5v278q0 78 78 78q79 0 79 -78v-299q0 -92 -70 -154.5t-163 -62.5q-94 0 -162 61.5t-68 155.5z" />
    <glyph glyph-name="phi" unicode="&#x3c6;" horiz-adv-x="719" 
d="M243 145v176q0 45 9 88t29.5 86t62 69.5t98.5 26.5q72 0 125 -44.5t77 -107.5t24 -132q0 -124 -73.5 -210.5t-194.5 -100.5v-124q0 -79 -78 -79q-79 0 -79 79v125q-114 16 -173 97.5t-59 191.5q0 86 42.5 169.5t113.5 129.5q20 10 39 10q22 0 36.5 -12t14.5 -35
q0 -30 -31 -76q-18 -26 -28 -44t-20.5 -58t-10.5 -87q0 -42 20 -81t56 -57zM400 319v-180q50 13 79.5 60.5t29.5 108.5q0 48 -17 92t-50 44q-28 0 -36 -26q-6 -17 -6 -99z" />
    <glyph glyph-name="chi" unicode="&#x3c7;" horiz-adv-x="521" 
d="M30 -90l150 306q-16 33 -66 123q-43 76 -65 123q-10 23 -10 46q0 78 77 78q53 0 75 -48l70 -187l79 188q22 45 71 45q33 0 56 -22.5t23 -56.5q0 -23 -11 -46l-142 -243l75 -143q53 -97 84 -161q12 -24 12 -44q0 -19 -7 -34q-20 -41 -68 -41q-55 0 -81 55l-93 229
q-10 -24 -42 -113q-21 -61 -44 -118q-24 -55 -83 -55q-48 0 -66 40q-6 12 -6 31q0 22 12 48z" />
    <glyph glyph-name="psi" unicode="&#x3c8;" horiz-adv-x="697" 
d="M403 567v-430q32 15 49 58t17 97v207q0 86 78 86q33 0 57 -24t24 -63v-200q0 -124 -58 -207.5t-168 -97.5v-110q0 -91 -78 -91q-77 0 -77 91v110q-110 14 -167 98t-57 207v200q0 87 77 87q33 0 57 -24.5t24 -61.5v-201q0 -57 16.5 -100.5t49.5 -59.5v429q0 80 77 80
q79 0 79 -80z" />
    <glyph glyph-name="omega" unicode="&#x3c9;" horiz-adv-x="681" 
d="M440 -8q-42 0 -74.5 34t-43.5 98q-10 -58 -43.5 -94.5t-73.5 -36.5q-71 0 -126 68.5t-55 172.5q0 105 36.5 192.5t92.5 141.5q22 19 56 19q31 0 50 -20.5t19 -49.5q0 -25 -20 -50q-78 -87 -78 -228q0 -44 14.5 -69t34.5 -25q15 0 25.5 17t10.5 47v111q0 83 60 83
q58 0 58 -80v-114q0 -30 10.5 -47t25.5 -17q20 0 35 25.5t15 69.5q0 127 -76 223q-24 30 -24 55q0 30 19.5 50.5t50.5 20.5q32 0 55 -19q58 -52 93.5 -137t35.5 -193q0 -111 -55.5 -179.5t-127.5 -68.5z" />
    <glyph glyph-name="iotadieresis" unicode="&#x3ca;" horiz-adv-x="315" 
d="M226 77v433q0 78 -80 78q-78 0 -78 -78v-433q0 -77 78 -77q80 0 80 77zM-61 736q0 38 26 63.5t64 25.5q37 0 63 -26t26 -63t-26 -63t-63 -26q-38 0 -64 25.5t-26 63.5zM188 736q0 37 25.5 63t62.5 26q38 0 63.5 -25.5t25.5 -63.5t-25.5 -63.5t-63.5 -25.5q-37 0 -62.5 26
t-25.5 63z" />
    <glyph glyph-name="upsilondieresis" unicode="&#x3cb;" horiz-adv-x="524" 
d="M17 505v-299q0 -94 68 -155.5t162 -61.5q93 0 163 62.5t70 154.5v299q0 78 -79 78q-78 0 -78 -78v-278q0 -35 -21.5 -58.5t-54.5 -23.5t-54 23.5t-21 58.5v278q0 78 -79 78q-76 0 -76 -78zM38 736q0 38 26 63.5t64 25.5q37 0 63 -26t26 -63t-26 -63t-63 -26
q-38 0 -64 25.5t-26 63.5zM287 736q0 37 25.5 63t62.5 26q38 0 63.5 -25.5t25.5 -63.5t-25.5 -63.5t-63.5 -25.5q-37 0 -62.5 26t-25.5 63z" />
    <glyph glyph-name="omicrontonos" unicode="&#x3cc;" horiz-adv-x="588" 
d="M280 588q122 0 191.5 -88t69.5 -211q0 -125 -69.5 -211.5t-191.5 -86.5q-123 0 -192 89.5t-69 214.5q0 123 69 208t192 85zM280 446q-49 0 -75 -43t-26 -103q0 -62 26.5 -115.5t74.5 -53.5q49 0 75 46t26 106q0 61 -26.5 112t-74.5 51zM426 838l-60 -135q-7 -18 -13 -28
t-21 -20t-37 -10q-39 0 -58.5 20.5t-19.5 54.5q0 22 9 35l58 136q22 52 73 52q75 0 75 -76q0 -13 -6 -29z" />
    <glyph glyph-name="upsilontonos" unicode="&#x3cd;" horiz-adv-x="524" 
d="M17 206v299q0 78 76 78q79 0 79 -78v-278q0 -35 21 -58.5t54 -23.5t54.5 23.5t21.5 58.5v278q0 78 78 78q79 0 79 -78v-299q0 -92 -70 -154.5t-163 -62.5q-94 0 -162 61.5t-68 155.5zM384 838l-60 -135q-7 -18 -13 -28t-21 -20t-37 -10q-39 0 -58.5 20.5t-19.5 54.5
q0 22 9 35l58 136q22 52 73 52q75 0 75 -76q0 -13 -6 -29z" />
    <glyph glyph-name="omegatonos" unicode="&#x3ce;" horiz-adv-x="681" 
d="M440 -8q-42 0 -74.5 34t-43.5 98q-10 -58 -43.5 -94.5t-73.5 -36.5q-71 0 -126 68.5t-55 172.5q0 105 36.5 192.5t92.5 141.5q22 19 56 19q31 0 50 -20.5t19 -49.5q0 -25 -20 -50q-78 -87 -78 -228q0 -44 14.5 -69t34.5 -25q15 0 25.5 17t10.5 47v111q0 83 60 83
q58 0 58 -80v-114q0 -30 10.5 -47t25.5 -17q20 0 35 25.5t15 69.5q0 127 -76 223q-24 30 -24 55q0 30 19.5 50.5t50.5 20.5q32 0 55 -19q58 -52 93.5 -137t35.5 -193q0 -111 -55.5 -179.5t-127.5 -68.5zM461 838l-60 -135q-7 -18 -13 -28t-21 -20t-37 -10q-39 0 -58.5 20.5
t-19.5 54.5q0 22 9 35l58 136q22 52 73 52q75 0 75 -76q0 -13 -6 -29z" />
    <glyph glyph-name="endash" unicode="&#x2013;" horiz-adv-x="720" 
d="M107 370h450q83 0 83 -80q0 -77 -83 -77h-450q-83 0 -83 77q0 32 23 56t60 24z" />
    <glyph glyph-name="emdash" unicode="&#x2014;" horiz-adv-x="928" 
d="M115 370h626q83 0 83 -80q0 -77 -83 -77h-626q-83 0 -83 77q0 32 23 56t60 24z" />
    <glyph glyph-name="quoteleft" unicode="&#x2018;" horiz-adv-x="254" 
d="M153 716l65 -151q10 -14 10 -34q0 -28 -26 -51.5t-52 -23.5t-47 17t-31 41l-60 145l1 -3q-7 19 -7 31q0 31 24 52.5t56 21.5q47 0 67 -45z" />
    <glyph glyph-name="quoteright" unicode="&#x2019;" horiz-adv-x="254" 
d="M17 564l64 152q19 45 68 45q32 0 55.5 -21.5t23.5 -52.5q0 -16 -7 -31l-58 -142q-10 -23 -31 -40.5t-47 -17.5q-27 0 -53 23.5t-26 51.5q0 16 11 33z" />
    <glyph glyph-name="quotesinglbase" unicode="&#x201a;" horiz-adv-x="254" 
d="M218 79l-65 -153q-22 -44 -67 -44q-32 0 -56 21.5t-24 52.5q0 14 7 30l59 143q10 24 31.5 40t47.5 16q28 0 52.5 -22t24.5 -51q0 -17 -10 -33z" />
    <glyph glyph-name="quotedblleft" unicode="&#x201c;" horiz-adv-x="496" 
d="M160 716l65 -151q10 -16 10 -34q0 -28 -26 -51.5t-53 -23.5q-25 0 -46.5 17.5t-30.5 40.5l-59 145l1 -3q-8 18 -8 31q0 31 23.5 52.5t55.5 21.5q48 0 68 -45zM382 716l65 -151q9 -17 9 -34q0 -28 -26 -51.5t-53 -23.5q-25 0 -46 17.5t-30 40.5l-60 145l1 -3q-7 15 -7 31
q0 32 23 53t55 21q49 0 69 -45z" />
    <glyph glyph-name="quotedblright" unicode="&#x201d;" horiz-adv-x="493" 
d="M244 564l64 152q22 45 68 45q32 0 56 -21.5t24 -52.5q0 -12 -7 -31l1 3l-60 -145q-9 -23 -30 -40.5t-48 -17.5q-25 0 -51 23.5t-26 51.5q0 17 9 33zM23 564l64 152q22 45 68 45q32 0 56 -21.5t24 -52.5q0 -12 -7 -31l1 3l-60 -145q-10 -24 -31 -41t-47 -17
q-25 0 -51.5 23.5t-26.5 51.5q0 15 10 33z" />
    <glyph glyph-name="quotedblbase" unicode="&#x201e;" horiz-adv-x="484" 
d="M225 79l-66 -153q-20 -44 -67 -44q-32 0 -56 21.5t-24 52.5q0 12 8 30l59 143q9 23 31.5 40t47.5 17q27 0 51.5 -22.5t24.5 -51.5q0 -16 -9 -33zM437 79l-65 -153q-20 -44 -68 -44q-31 0 -55 21.5t-24 52.5q0 16 8 30l58 143q10 24 32.5 40t47.5 16q28 0 52 -21.5
t24 -51.5q0 -17 -10 -33z" />
    <glyph glyph-name="dagger" unicode="&#x2020;" horiz-adv-x="564" 
d="M424 429h-88v-341q0 -88 -76 -88q-32 0 -55.5 24t-23.5 64v341h-86q-77 0 -77 78q0 76 77 76h86v86q0 39 23.5 63.5t55.5 24.5q76 0 76 -88v-86h88q78 0 78 -78q0 -76 -78 -76z" />
    <glyph glyph-name="daggerdbl" unicode="&#x2021;" horiz-adv-x="564" 
d="M336 334h88q78 0 78 -79q0 -75 -78 -75h-88v-95q0 -88 -76 -88q-33 0 -56 23.5t-23 64.5v95h-86q-77 0 -77 78q0 76 77 76h86v95h-86q-77 0 -77 78q0 77 77 77h86v85q0 41 23 64.5t56 23.5q76 0 76 -88v-85h88q78 0 78 -79q0 -76 -78 -76h-88v-95z" />
    <glyph glyph-name="bullet" unicode="&#x2022;" horiz-adv-x="580" 
d="M268 550q86 0 141.5 -56t55.5 -142t-55.5 -143t-141.5 -57q-87 0 -143 56.5t-56 143.5q0 86 56 142t143 56z" />
    <glyph glyph-name="ellipsis" unicode="&#x2026;" horiz-adv-x="690" 
d="M249 89q0 37 25.5 63t63.5 26q37 0 63 -26t26 -63t-26 -63t-63 -26q-38 0 -63.5 26t-25.5 63zM482 89q0 37 25.5 63t62.5 26q38 0 63.5 -26t25.5 -63t-25.5 -63t-63.5 -26q-37 0 -62.5 26t-25.5 63zM18 89q0 37 26 63t63 26t63 -26t26 -63t-26 -63t-63 -26t-63 26t-26 63
z" />
    <glyph glyph-name="perthousand" unicode="&#x2030;" horiz-adv-x="1419" 
d="M769 405q86 0 137.5 -62t51.5 -149q0 -89 -50.5 -147.5t-138.5 -58.5q-89 0 -142 61.5t-53 151.5q0 89 53 146.5t142 57.5zM769 127q20 0 32 20t12 46q0 28 -12 50.5t-32 22.5q-22 0 -34 -20.5t-12 -48.5t12 -49t34 -21zM237 345q-87 0 -140 63.5t-53 151.5t53 145.5
t140 57.5t139.5 -60.5t52.5 -149.5q0 -87 -52.5 -147.5t-139.5 -60.5zM237 485q23 0 34.5 20t11.5 48q0 29 -12 50t-34 21q-20 0 -31.5 -20t-11.5 -48t11.5 -49.5t31.5 -21.5zM310 90l242 623q22 55 76 55q70 0 70 -74q0 -18 -6 -37q-23 -63 -131 -336.5t-122 -298.5
q-23 -41 -66 -41q-71 0 -71 74q0 13 8 35zM1180 405q86 0 138 -62t52 -149q0 -89 -51 -147.5t-139 -58.5q-89 0 -142 61.5t-53 151.5q0 88 53 146t142 58zM1180 127q21 0 33 20t12 46q0 28 -12.5 50.5t-32.5 22.5q-21 0 -33.5 -20.5t-12.5 -48.5t12.5 -49t33.5 -21z" />
    <glyph glyph-name="guilsinglleft" unicode="&#x2039;" horiz-adv-x="682" 
d="M551 422l-313 -130l306 -141q57 -26 57 -81q0 -70 -74 -70q-29 0 -53 12l-396 197q-55 27 -55 82q0 54 56 80l407 189q23 11 45 11q17 0 32 -6q44 -19 44 -65q0 -50 -56 -78z" />
    <glyph glyph-name="guilsinglright" unicode="&#x203a;" horiz-adv-x="682" 
d="M78 154l310 132l-312 139q-53 28 -53 78q0 72 76 72q17 0 36 -7l408 -201q64 -32 64 -80q0 -53 -72 -88l-397 -191q-18 -7 -37 -7q-77 0 -77 76q0 53 54 77z" />
    <glyph glyph-name="Euro" unicode="&#x20ac;" horiz-adv-x="776" 
d="M101 270h-26q-44 0 -61 9.5t-17 43.5t17.5 44t60.5 10h11v15q0 18 1 28h-12q-44 0 -61 9.5t-17 43.5t17.5 44t60.5 10h29q35 121 124.5 198t224.5 77q132 0 228 -87q31 -29 31 -68q0 -37 -22.5 -60t-56.5 -23q-39 0 -61 24q-47 47 -122 47q-117 0 -168 -108h217
q44 0 61.5 -10t17.5 -45q0 -34 -17.5 -43t-61.5 -9h-245v-43h135q44 0 61.5 -10t17.5 -45q0 -34 -17.5 -43t-61.5 -9h-107q53 -109 169 -109q77 0 120 43q24 24 55 24q40 0 60 -23t20 -58q0 -42 -30 -69q-100 -89 -228 -89q-138 0 -227 78.5t-120 202.5z" />
    <glyph glyph-name="trademark" unicode="&#x2122;" horiz-adv-x="799" 
d="M106 401v238h-22q-60 0 -60 61q0 60 60 60h165q62 0 62 -61q0 -60 -62 -60h-21v-238q0 -66 -61 -66t-61 66zM496 710l31 -140l33 141q16 55 74 55q28 0 47.5 -17.5t24.5 -48.5l45 -297v-4q0 -60 -60 -60q-53 0 -62 55l-13 168q-4 -16 -14.5 -87.5t-15.5 -87.5
q-18 -50 -60 -50q-44 0 -61 51l-27 168l-12 -161q-8 -57 -62 -57q-58 0 -58 60v5l45 297q11 66 71 66q58 0 74 -56z" />
    <glyph glyph-name="Omega" unicode="&#x2126;" horiz-adv-x="735" 
d="M10 426q0 72 22.5 137.5t65 119t112.5 85.5t157 32q91 0 162.5 -31t114 -85t64.5 -122t22 -146q0 -81 -37.5 -154.5t-79.5 -102.5l-3 -3q0 -2 3 -2h36q63 -6 63 -78q0 -76 -74 -76h-167q-67 0 -67 71q0 45 53 76q55 35 85 105.5t30 150.5q0 97 -54 169.5t-151 72.5
q-94 0 -147.5 -69.5t-53.5 -172.5q0 -80 30 -150.5t85 -105.5q53 -31 53 -76q0 -71 -67 -71h-167q-74 0 -74 76q0 72 63 78h36q3 0 3 2l-3 3q-40 28 -77.5 109t-37.5 158z" />
    <glyph glyph-name="Delta" unicode="&#x2206;" horiz-adv-x="698" 
d="M341 504l-122 -338h251zM572 0h-465q-89 0 -89 69q0 15 7 36l-1 -3l222 605q26 73 95 73q75 0 97 -72l230 -605q6 -19 6 -35q0 -68 -102 -68z" />
    <glyph glyph-name="integral" unicode="&#x222b;" horiz-adv-x="300" 
d="M61 -14l-1 642q0 94 45 128t130 34q28 0 50 -22.5t22 -48.5q0 -66 -83 -66q-16 0 -16 -36l1 -642q0 -94 -45 -128t-130 -34q-28 0 -50 22.5t-22 48.5q0 66 83 66q16 0 16 36z" />
    <glyph glyph-name="approxequal" unicode="&#x2248;" horiz-adv-x="613" 
d="M124 56q-74 0 -74 81q0 44 56 96t110 52q52 0 132 -43q42 -24 56 -24l2 2q2 2 5 6t5 7q12 16 20 24.5t25 17.5t37 9q76 0 76 -83q0 -43 -60.5 -94t-115.5 -51q-49 0 -117 40q-52 26 -63 26q-6 0 -16 -14q-37 -52 -78 -52zM116 306q-74 0 -74 81q0 44 56 96t110 52
q52 0 132 -43q42 -24 56 -24l2 2q2 2 5 6t5 7q12 16 20 24.5t25 17.5t37 9q76 0 76 -83q0 -43 -60.5 -94t-115.5 -51q-49 0 -117 40q-52 26 -63 26q-6 0 -16 -14q-37 -52 -78 -52z" />
    <glyph glyph-name="notequal" unicode="&#x2260;" 
d="M167 81h-43q-77 0 -77 77q0 78 77 78h103l31 80h-134q-77 0 -77 78q0 76 77 76h194l59 153q22 55 77 55q31 0 51 -21.5t20 -51.5q0 -20 -8 -41l-38 -94h64q76 0 76 -78q0 -76 -76 -76h-125l-32 -80h157q76 0 76 -77q0 -78 -76 -78h-218l-57 -143q-4 -14 -23.5 -28
t-45.5 -14q-28 0 -48 21t-20 54q0 17 6 31z" />
    <glyph glyph-name="zero.onum" horiz-adv-x="592" 
d="M283 629h4q124 0 192 -94t68 -223q0 -84 -27.5 -155.5t-88.5 -119.5t-146 -48q-125 0 -195 95t-70 225q0 83 28.5 154t89.5 118.5t145 47.5zM285 147q48 0 75.5 47t27.5 112q0 66 -27.5 115t-74.5 49q-51 0 -78.5 -47t-27.5 -112q0 -67 27.5 -115.5t77.5 -48.5z" />
    <glyph glyph-name="one.onum" horiz-adv-x="382" 
d="M143 83v362q-6 -2 -34 -10q-7 -1 -20 -1q-32 0 -54 20.5t-22 52.5q0 27 16.5 49.5t49.5 30.5q27 7 50.5 13.5t37 10.5t24.5 7l16.5 4.5t9.5 2.5t5.5 1.5t3.5 0.5q26 0 44.5 -13.5t25.5 -32.5q8 -13 8 -62v-436q0 -36 -22 -59.5t-58 -23.5t-58.5 23.5t-22.5 59.5z" />
    <glyph glyph-name="two.onum" horiz-adv-x="541" 
d="M21 407q0 102 70.5 165t164.5 63q91 0 160.5 -60t69.5 -152q0 -27 -4 -46.5t-20 -51.5t-54 -74t-98 -95h109q76 0 76 -77q0 -79 -77 -79h-296q-93 0 -93 77q0 32 26 65q132 113 185.5 162.5t68.5 71t15 42.5q0 27 -21.5 43.5t-49.5 16.5q-29 0 -50 -20t-21 -55
q0 -30 -21.5 -58.5t-57.5 -28.5q-38 0 -60 28.5t-22 62.5z" />
    <glyph glyph-name="three.onum" horiz-adv-x="550" 
d="M246 642q95 0 156.5 -63.5t61.5 -145.5q0 -100 -88 -156q57 -31 86 -80.5t29 -105.5q0 -92 -67.5 -162t-175.5 -70q-62 0 -113.5 28t-82.5 71q-29 41 -29 89q0 37 21.5 58.5t52.5 21.5q22 0 43.5 -13.5t31.5 -36.5q25 -58 75 -58q34 0 59 22t25 60q0 34 -17.5 63
t-48.5 34h-33q-85 0 -85 68q0 36 20.5 51t64.5 15q19 0 29 2q19 6 31.5 33t12.5 53q0 30 -16.5 48t-46.5 18q-59 0 -65 -50q-1 -16 -15.5 -35t-46.5 -19q-83 0 -83 72q0 74 61.5 131t152.5 57z" />
    <glyph glyph-name="four.onum" horiz-adv-x="582" 
d="M317 -29v81h-210q-43 0 -67 25t-24 62q0 33 21 60l230 371q39 63 106 63q44 0 73 -29.5t29 -78.5v-316q75 -1 75 -80q0 -75 -74 -75v-83q0 -87 -80 -87q-37 0 -58 22.5t-21 64.5zM317 359l-93 -150h93v150z" />
    <glyph glyph-name="five.onum" horiz-adv-x="579" 
d="M232 608h210q36 0 57 -24t21 -59q0 -78 -78 -78h-166q-4 -28 -12 -77q125 0 192 -74t67 -178q0 -108 -70 -188.5t-194 -80.5q-92 0 -160.5 51.5t-68.5 105.5q0 36 21.5 56.5t51.5 20.5q38 0 63 -34q15 -19 42.5 -31.5t54.5 -12.5q43 0 71 31.5t28 73.5q0 43 -26.5 74.5
t-74.5 31.5q-17 0 -45.5 -7.5t-43.5 -7.5q-80 0 -80 77q0 16 47 257q15 73 93 73z" />
    <glyph glyph-name="six.onum" horiz-adv-x="563" 
d="M375 616q-5 -5 -23 -20.5t-26 -23t-23.5 -23t-24.5 -26.5t-19.5 -27t-17.5 -32q28 15 81 15q91 0 141 -65t50 -155q0 -110 -69.5 -190t-179.5 -80q-116 0 -181 83t-65 200q0 125 67.5 241t171.5 213q31 24 60 24q35 0 58.5 -21.5t23.5 -58.5q0 -30 -24 -54zM176 258
q0 -45 23.5 -79t64.5 -35q42 4 67 36.5t25 76.5q0 42 -24 72t-70 30q-42 0 -64 -30t-22 -71z" />
    <glyph glyph-name="seven.onum" horiz-adv-x="544" 
d="M103 622h315q34 0 59.5 -24.5t25.5 -62.5q0 -17 -9 -40l-236 -559q-27 -63 -84 -63q-38 0 -56.5 23.5t-18.5 55.5q0 21 9 41l200 467h-205q-86 0 -86 81t86 81z" />
    <glyph glyph-name="eight.onum" horiz-adv-x="550" 
d="M20 237q0 52 28.5 101t72.5 74q-34 21 -55 61.5t-21 85.5q0 88 64.5 148.5t154.5 60.5q93 0 153.5 -58.5t60.5 -150.5q0 -40 -22 -80t-55 -61q41 -20 73 -75t32 -108q0 -101 -70 -173.5t-171 -72.5q-109 0 -177 70t-68 178zM265 330q-36 0 -58.5 -26.5t-22.5 -63.5
q0 -39 22 -65t59 -26q34 0 55.5 26t21.5 63q0 39 -22 65.5t-55 26.5zM262 485q23 0 38 21t15 48t-15.5 42.5t-36.5 15.5q-23 0 -40.5 -15.5t-17.5 -42.5q0 -29 15 -49t42 -20z" />
    <glyph glyph-name="nine.onum" horiz-adv-x="582" 
d="M179 -19q102 82 154 159q-48 -17 -94 -17q-98 0 -156.5 73t-58.5 165q0 108 67.5 187t188.5 79q114 0 182 -82t68 -207q0 -52 -12 -107t-38.5 -118t-78.5 -129.5t-124 -124.5q-24 -19 -55 -19q-32 0 -54 21t-22 52q0 41 33 68zM276 464q-44 0 -68 -34.5t-24 -78.5
q0 -51 27 -80.5t66 -29.5q42 0 69.5 27.5t27.5 81.5q0 45 -25.5 79.5t-72.5 34.5z" />
    <glyph glyph-name="A.smcp" horiz-adv-x="646" 
d="M304 376l-46 -94h93q-1 2 -8 19t-16.5 35.5t-22.5 39.5zM467 45l-48 90h-226l-36 -75l1 3q-21 -63 -82 -63q-36 0 -54 22t-18 54q0 18 8 37l199 417q26 68 93 68t93 -67l208 -419q8 -19 8 -37q0 -34 -20 -54.5t-56 -20.5q-55 0 -73 49z" />
    <glyph glyph-name="B.smcp" horiz-adv-x="574" 
d="M19 88v412q0 87 81 87h162q89 0 148.5 -40.5t59.5 -124.5q0 -59 -37 -101q37 -24 59.5 -61.5t22.5 -75.5q0 -74 -56.5 -129t-152.5 -55h-191q-46 0 -64 15q-32 21 -32 73zM174 245v-91h105q31 0 48.5 13.5t17.5 31.5q0 19 -20 32.5t-58 13.5h-93zM174 354h92
q27 0 41.5 12t14.5 29q0 16 -12 27.5t-33 11.5h-103v-80z" />
    <glyph glyph-name="C.smcp" horiz-adv-x="632" 
d="M458 195q20 23 53 23q39 0 58 -21.5t19 -54.5q0 -41 -29 -67q-98 -84 -220 -84q-138 0 -225 85t-87 220q0 137 88.5 222t228.5 85q127 0 219 -85q31 -28 31 -65q0 -35 -22.5 -57.5t-54.5 -22.5q-37 0 -58 24q-44 43 -117 43q-64 0 -107.5 -36.5t-43.5 -101.5
q0 -69 43 -111t109 -42t115 46z" />
    <glyph glyph-name="D.smcp" horiz-adv-x="660" 
d="M21 81v419q0 87 96 87h177q115 0 194.5 -79t79.5 -217q0 -140 -84.5 -215.5t-207.5 -75.5h-173q-48 0 -65 15.5t-17 65.5zM283 434h-107v-280h95q60 0 98.5 33.5t38.5 103.5q0 72 -36.5 107.5t-88.5 35.5z" />
    <glyph glyph-name="E.smcp" horiz-adv-x="485" 
d="M17 85v418q0 84 80 84h270q40 0 59 -18.5t19 -58.5q0 -76 -78 -76h-197v-71h155q41 0 59.5 -15t18.5 -52t-18.5 -51.5t-59.5 -14.5h-155v-76h205q83 0 83 -77t-83 -77h-278q-52 0 -66 16t-14 69z" />
    <glyph glyph-name="F.smcp" horiz-adv-x="444" 
d="M16 71v429q0 87 80 87h263q78 0 78 -77q0 -76 -78 -76h-189v-93h132q77 0 77 -79q0 -76 -77 -76h-132v-115q0 -71 -78 -71q-76 0 -76 71z" />
    <glyph glyph-name="G.smcp" horiz-adv-x="722" 
d="M367 347l163 -1q55 -3 71.5 -27t16.5 -75q0 -106 -80.5 -179.5t-212.5 -73.5q-129 0 -214 89t-85 203q0 130 84 222.5t218 92.5q58 0 117 -24t104 -71q15 -18 15 -38q0 -29 -25 -51.5t-56 -22.5q-25 0 -46 14q-48 43 -112 43q-61 0 -101 -44.5t-40 -111.5t46 -111
t105 -44q84 0 121 86h-91q-30 0 -45.5 16.5t-15.5 40.5q0 26 17 46.5t46 20.5z" />
    <glyph glyph-name="H.smcp" horiz-adv-x="574" 
d="M19 77v435q0 78 76 78q78 0 78 -78v-135h189v135q0 78 77 78q78 0 78 -78v-435q0 -77 -78 -77q-77 0 -77 77v145h-189v-145q0 -77 -77 -77t-77 77z" />
    <glyph glyph-name="I.smcp" horiz-adv-x="169" 
d="M3 78v433q0 78 77 78t77 -78v-433q0 -78 -77 -78t-77 78z" />
    <glyph glyph-name="J.smcp" horiz-adv-x="421" 
d="M382 511v-334q0 -86 -53.5 -137.5t-139.5 -51.5t-150 56q-26 22 -26 58q0 79 75 79q22 0 62 -29q20 -12 40 -12q37 0 37 37v334q0 78 77 78q78 0 78 -78z" />
    <glyph glyph-name="K.smcp" horiz-adv-x="591" 
d="M21 72v449q0 71 76 71q78 0 78 -71v-165l237 212q26 23 50 23q31 0 56 -25t25 -56q0 -33 -23 -53l-158 -133l172 -189q27 -23 27 -58q0 -34 -28.5 -56t-49.5 -22q-35 0 -63 30l-173 187l-72 -62v-82q0 -72 -76 -72q-78 0 -78 72z" />
    <glyph glyph-name="L.smcp" horiz-adv-x="508" 
d="M18 96v416q0 78 76 78q78 0 78 -78v-358h240q78 0 78 -76q0 -78 -78 -78h-306q-88 0 -88 96z" />
    <glyph glyph-name="M.smcp" horiz-adv-x="835" 
d="M323 509l70 -227q13 35 37 115.5t35 111.5q31 88 105 88q84 0 99 -104v4l84 -408v-8q0 -1 1 -3q0 -35 -22 -56t-56 -21q-66 0 -79 71l-45 248q-12 -36 -40.5 -124t-43.5 -129q-24 -67 -78 -67q-57 0 -78 67l-79 254q-10 -44 -27 -133.5t-22 -115.5v4q-5 -38 -23.5 -56.5
t-55.5 -18.5q-35 0 -55.5 19t-20.5 56q0 14 2 21l87 401q21 100 101 100q75 0 104 -89z" />
    <glyph glyph-name="N.smcp" horiz-adv-x="602" 
d="M20 79v435q0 84 76 84q49 0 83 -50l214 -260v231q0 78 75 78q78 0 78 -78v-435q0 -84 -77 -84q-48 0 -79 43l-216 260v-224q0 -79 -77 -79t-77 79z" />
    <glyph glyph-name="O.smcp" horiz-adv-x="685" 
d="M328 592q129 0 215.5 -86.5t86.5 -215.5q0 -124 -84.5 -211t-217.5 -87q-137 0 -220.5 87.5t-83.5 213.5q0 51 18.5 101.5t54 96t96 73.5t135.5 28zM328 438q-67 0 -107 -39.5t-40 -103.5q0 -63 41.5 -106.5t107.5 -43.5q62 0 101.5 41t39.5 102q0 63 -40.5 106.5
t-102.5 43.5z" />
    <glyph glyph-name="P.smcp" horiz-adv-x="531" 
d="M19 78v430q0 80 81 80h180q107 0 166 -61.5t59 -147.5q0 -89 -56.5 -153.5t-162.5 -64.5h-114v-83q0 -78 -77 -78q-76 0 -76 78zM268 435h-96v-120h110q36 0 52.5 16.5t16.5 40.5q0 26 -20 44.5t-63 18.5z" />
    <glyph glyph-name="Q.smcp" horiz-adv-x="764" 
d="M328 592q129 0 215.5 -86.5t86.5 -215.5q0 -91 -47 -164l6.5 -6.5t6.5 -7.5q21 -24 21 -53q0 -31 -20 -53.5t-54 -22.5q-31 0 -52 21l-20 20q-64 -32 -143 -32q-137 0 -220.5 87.5t-83.5 213.5q0 51 18.5 101.5t54 96t96 73.5t135.5 28zM328 438q-67 0 -107 -39.5
t-40 -103.5q0 -63 41.5 -106.5t107.5 -43.5q12 0 18 1q-22 36 -22 53q0 34 24.5 58.5t55.5 24.5q25 0 61 -31q4 22 4 37q0 63 -40.5 106.5t-102.5 43.5z" />
    <glyph glyph-name="R.smcp" horiz-adv-x="533" 
d="M18 85v432q0 80 95 80h134q116 0 182 -51t66 -153q0 -109 -88 -162l67 -103l-3 4q18 -21 18 -60q0 -33 -18.5 -53t-53.5 -20q-38 0 -71 42l-96 142h-78v-98q0 -85 -77 -85t-77 85zM284 443h-112v-107h112q27 0 43 17t16 39q0 21 -15.5 36t-43.5 15z" />
    <glyph glyph-name="S.smcp" horiz-adv-x="498" 
d="M263 124q49 0 49 36q0 14 -20.5 29.5t-51.5 29.5t-67.5 34.5t-67.5 42t-51.5 53.5t-20.5 68q0 88 63 134t158 46q89 0 160 -37q40 -22 40 -64q0 -26 -18.5 -45t-50.5 -19q-31 0 -50 11q-34 19 -101 19q-46 0 -46 -36q0 -18 29.5 -36t71 -35.5t83.5 -39.5t71.5 -58.5
t29.5 -82.5q0 -92 -67.5 -137.5t-159.5 -45.5q-95 0 -191 58q-31 22 -31 64q0 32 21.5 49t50.5 17q28 0 77 -27.5t90 -27.5z" />
    <glyph glyph-name="T.smcp" horiz-adv-x="526" 
d="M185 82v352h-86q-80 0 -80 76q0 77 80 77h328q78 0 78 -77q0 -76 -78 -76h-87v-352q0 -82 -77 -82q-78 0 -78 82z" />
    <glyph glyph-name="U.smcp" horiz-adv-x="588" 
d="M20 298v208q0 83 81 83q80 0 80 -83v-200q0 -155 105 -155q46 0 70.5 34.5t24.5 120.5v200q0 83 81 83q82 0 82 -83v-208q0 -307 -266 -307q-118 0 -188 72.5t-70 234.5z" />
    <glyph glyph-name="V.smcp" horiz-adv-x="594" 
d="M175 535l105 -300q20 48 55 155.5t50 146.5q21 54 73 54q30 0 57 -25.5t27 -55.5q0 -12 -8 -30l-161 -397q-34 -83 -93 -83q-55 0 -86 75l-169 408q-5 17 -5 33q0 76 79 76q57 0 76 -57z" />
    <glyph glyph-name="W.smcp" horiz-adv-x="859" 
d="M187 528l54 -268l76 273q19 65 89 65q71 0 88 -65l72 -267q10 39 27 133.5t25 128.5q13 72 80 72q33 0 56.5 -22.5t23.5 -56.5q0 -12 -4 -22l2 3l-103 -423q-8 -35 -36 -57t-64 -22q-34 0 -62 18.5t-36 56.5q-18 59 -35.5 121.5t-35.5 123.5l-69 -234q-13 -43 -41 -65.5
t-61 -22.5q-35 0 -62.5 24t-37.5 63l-101 417l1 -3q-3 10 -3 22q0 35 23 56t55 21q66 0 79 -70z" />
    <glyph glyph-name="X.smcp" horiz-adv-x="547" 
d="M43 139l137 161l-118 153q-18 21 -18 52q0 33 23 55t55 22q46 0 72 -39l71 -123l74 125q26 38 70 38q33 0 56 -21.5t23 -54.5q0 -30 -20 -54l-119 -148l137 -162q25 -31 25 -70q0 -73 -72 -73q-53 0 -81 46l-98 137l-97 -138q-28 -43 -74 -43q-70 0 -70 71q0 35 24 66z
" />
    <glyph glyph-name="Y.smcp" horiz-adv-x="565" 
d="M195 83v107l-164 285q-11 18 -11 45q0 75 73 75q44 0 66 -41l118 -225q19 32 57.5 113.5t55.5 110.5q26 42 71 42q74 0 74 -72q0 -20 -11 -42l-173 -294v-104q0 -83 -78 -83t-78 83z" />
    <glyph glyph-name="Z.smcp" horiz-adv-x="574" 
d="M37 142l243 293h-170q-79 0 -79 75q0 78 79 78h313q45 0 67 -20t22 -52q0 -30 -26 -70l-243 -292h202q79 0 79 -75q0 -79 -79 -79h-351q-75 0 -75 82q0 33 18 60z" />
    <glyph glyph-name="Alpha.smcp" horiz-adv-x="646" 
d="M304 376l-46 -94h93q-1 2 -8 19t-16.5 35.5t-22.5 39.5zM467 45l-48 90h-226l-36 -75l1 3q-21 -63 -82 -63q-36 0 -54 22t-18 54q0 18 8 37l199 417q26 68 93 68t93 -67l208 -419q8 -19 8 -37q0 -34 -20 -54.5t-56 -20.5q-55 0 -73 49z" />
    <glyph glyph-name="Beta.smcp" horiz-adv-x="574" 
d="M19 88v412q0 87 81 87h162q89 0 148.5 -40.5t59.5 -124.5q0 -59 -37 -101q37 -24 59.5 -61.5t22.5 -75.5q0 -74 -56.5 -129t-152.5 -55h-191q-46 0 -64 15q-32 21 -32 73zM174 245v-91h105q31 0 48.5 13.5t17.5 31.5q0 19 -20 32.5t-58 13.5h-93zM174 354h92
q27 0 41.5 12t14.5 29q0 16 -12 27.5t-33 11.5h-103v-80z" />
    <glyph glyph-name="Gamma.smcp" horiz-adv-x="485" 
d="M17 78v421q0 87 80 87h281q35 0 57 -23.5t22 -55.5q0 -75 -79 -75h-207v-354q0 -78 -78 -78q-76 0 -76 78z" />
    <glyph glyph-name="Delta.smcp" horiz-adv-x="698" 
d="M318 347l-82 -190h167zM521 0h-412q-86 0 -86 67q0 14 7 34l196 430q31 67 91 67q71 0 92 -71l202 -426q7 -17 7 -35q0 -66 -97 -66z" />
    <glyph glyph-name="Epsilon.smcp" horiz-adv-x="485" 
d="M17 85v418q0 84 80 84h270q40 0 59 -18.5t19 -58.5q0 -76 -78 -76h-197v-71h155q41 0 59.5 -15t18.5 -52t-18.5 -51.5t-59.5 -14.5h-155v-76h205q83 0 83 -77t-83 -77h-278q-52 0 -66 16t-14 69z" />
    <glyph glyph-name="Zeta.smcp" horiz-adv-x="574" 
d="M37 142l243 293h-170q-79 0 -79 75q0 78 79 78h313q45 0 67 -20t22 -52q0 -30 -26 -70l-243 -292h202q79 0 79 -75q0 -79 -79 -79h-351q-75 0 -75 82q0 33 18 60z" />
    <glyph glyph-name="Eta.smcp" horiz-adv-x="574" 
d="M19 77v435q0 78 76 78q78 0 78 -78v-135h189v135q0 78 77 78q78 0 78 -78v-435q0 -77 -78 -77q-77 0 -77 77v145h-189v-145q0 -77 -77 -77t-77 77z" />
    <glyph glyph-name="Theta.smcp" horiz-adv-x="671" 
d="M344 214h-37q-38 0 -57.5 20.5t-19.5 56.5q0 78 77 78h37q78 0 78 -78q0 -77 -78 -77zM328 592q129 0 215.5 -86.5t86.5 -215.5q0 -124 -84.5 -211t-217.5 -87q-137 0 -220.5 87.5t-83.5 213.5q0 51 18.5 101.5t54 96t96 73.5t135.5 28zM328 438q-67 0 -107 -39.5
t-40 -103.5q0 -63 41.5 -106.5t107.5 -43.5q62 0 101.5 41t39.5 102q0 63 -40.5 106.5t-102.5 43.5z" />
    <glyph glyph-name="Iota.smcp" horiz-adv-x="207" 
d="M22 78v433q0 78 77 78t77 -78v-433q0 -78 -77 -78t-77 78z" />
    <glyph glyph-name="Kappa.smcp" horiz-adv-x="591" 
d="M21 72v449q0 71 76 71q78 0 78 -71v-165l237 212q26 23 50 23q31 0 56 -25t25 -56q0 -33 -23 -53l-158 -133l172 -189q27 -23 27 -58q0 -34 -28.5 -56t-49.5 -22q-35 0 -63 30l-173 187l-72 -62v-82q0 -72 -76 -72q-78 0 -78 72z" />
    <glyph glyph-name="Lambda.smcp" horiz-adv-x="646" 
d="M547 0q-55 0 -73 49l-160 316l-146 -304q-25 -61 -82 -61q-36 0 -54 22t-18 54q0 18 8 37l199 417q26 68 93 68t93 -67l208 -419q8 -19 8 -37q0 -34 -20 -54.5t-56 -20.5z" />
    <glyph glyph-name="Mu.smcp" horiz-adv-x="799" 
d="M313 509l70 -227q13 35 37 115.5t35 111.5q31 88 105 88q86 0 99 -100l84 -416q0 -1 1 -3q0 -35 -22 -56t-56 -21q-66 0 -79 71l-45 248q-12 -36 -40.5 -124t-43.5 -129q-24 -67 -78 -67q-57 0 -78 67l-79 254q-10 -44 -27 -133.5t-22 -115.5v4q-10 -75 -79 -75
q-35 0 -55.5 19t-20.5 56q0 14 2 21l87 401q21 100 101 100q75 0 104 -89z" />
    <glyph glyph-name="Nu.smcp" horiz-adv-x="602" 
d="M20 79v435q0 84 76 84q49 0 83 -50l214 -260v231q0 78 75 78q78 0 78 -78v-435q0 -84 -77 -84q-48 0 -79 43l-216 260v-224q0 -79 -77 -79t-77 79z" />
    <glyph glyph-name="Xi.smcp" horiz-adv-x="650" 
d="M109 588h396q78 0 78 -78q0 -75 -78 -75h-396q-77 0 -77 75q0 78 77 78zM172 366h263q40 0 58.5 -16t18.5 -54q0 -35 -18.5 -51t-58.5 -16h-263q-39 0 -58 16.5t-19 53.5q0 36 19 51.5t58 15.5zM102 156h411q82 0 82 -77t-82 -77h-411q-82 0 -82 77t82 77z" />
    <glyph glyph-name="Omicron.smcp" horiz-adv-x="685" 
d="M328 592q129 0 215.5 -86.5t86.5 -215.5q0 -124 -84.5 -211t-217.5 -87q-137 0 -220.5 87.5t-83.5 213.5q0 51 18.5 101.5t54 96t96 73.5t135.5 28zM328 438q-67 0 -107 -39.5t-40 -103.5q0 -63 41.5 -106.5t107.5 -43.5q62 0 101.5 41t39.5 102q0 63 -40.5 106.5
t-102.5 43.5z" />
    <glyph glyph-name="Pi.smcp" horiz-adv-x="568" 
d="M95 584h343q31 0 54.5 -24t23.5 -55v-427q0 -78 -76 -78q-78 0 -78 78v350h-189v-350q0 -78 -79 -78q-75 0 -75 78v427q0 79 76 79z" />
    <glyph glyph-name="Rho.smcp" horiz-adv-x="531" 
d="M19 78v430q0 80 81 80h180q107 0 166 -61.5t59 -147.5q0 -89 -56.5 -153.5t-162.5 -64.5h-114v-83q0 -78 -77 -78q-76 0 -76 78zM268 435h-96v-120h110q36 0 52.5 16.5t16.5 40.5q0 26 -20 44.5t-63 18.5z" />
    <glyph glyph-name="Sigma.smcp" horiz-adv-x="565" 
d="M269 444l83 -91q18 -27 18 -53q0 -18 -14 -44l-108 -112h206q41 0 59.5 -15.5t18.5 -52.5q0 -76 -78 -76h-359q-75 0 -75 82q0 24 18 51l153 169l-133 151q-27 41 -27 61q0 74 90 74h322q78 0 78 -78q0 -37 -18.5 -51.5t-59.5 -14.5h-174z" />
    <glyph glyph-name="Tau.smcp" horiz-adv-x="526" 
d="M185 82v352h-86q-80 0 -80 76q0 77 80 77h328q78 0 78 -77q0 -76 -78 -76h-87v-352q0 -82 -77 -82q-78 0 -78 82z" />
    <glyph glyph-name="Upsilon.smcp" horiz-adv-x="565" 
d="M195 83v107l-164 285q-11 18 -11 45q0 75 73 75q44 0 66 -41l118 -225q19 32 57.5 113.5t55.5 110.5q26 42 71 42q74 0 74 -72q0 -20 -11 -42l-173 -294v-104q0 -83 -78 -83t-78 83z" />
    <glyph glyph-name="Phi.smcp" horiz-adv-x="665" 
d="M240 509v7q0 76 78 76q75 0 78 -72v11v-22q107 -7 162.5 -63t55.5 -146q0 -84 -58.5 -138.5t-160.5 -64.5v-18q0 -79 -77 -79q-78 0 -78 79v18q-106 10 -163 64.5t-57 139.5t59 141.5t161 66.5zM240 238v130q-35 0 -54.5 -19t-19.5 -45q0 -27 20 -46.5t54 -19.5zM395 368
v-130q34 0 54 20.5t20 47.5q0 25 -19 43.5t-55 18.5z" />
    <glyph glyph-name="Chi.smcp" horiz-adv-x="535" 
d="M43 139l137 161l-118 153q-18 21 -18 52q0 33 23 55t55 22q46 0 72 -39l71 -123l74 125q26 38 70 38q33 0 56 -21.5t23 -54.5q0 -30 -20 -54l-119 -148l137 -162q25 -31 25 -70q0 -73 -72 -73q-53 0 -81 46l-98 137l-97 -138q-28 -43 -74 -43q-70 0 -70 71q0 35 24 66z
" />
    <glyph glyph-name="Psi.smcp" horiz-adv-x="698" 
d="M397 524v-262q65 22 65 167v55q0 77 78 77q77 0 77 -77v-66q0 -276 -220 -300v-41q0 -77 -77 -77t-77 77v42q-220 28 -220 299v66q0 77 79 77q75 0 75 -77v-55q0 -136 66 -165v260q0 78 77 78t77 -78z" />
    <glyph glyph-name="Omega.smcp" horiz-adv-x="719" 
d="M286 148l5 -3q15 -10 22.5 -16t16.5 -23t9 -39q0 -67 -66 -67h-174q-74 0 -74 76q0 34 15.5 55t44.5 21h38v4q-43 29 -71 75.5t-28 103.5q0 59 22 114.5t63 99t104.5 70t139.5 26.5q152 0 242.5 -93.5t90.5 -218.5q0 -96 -97 -176v-4h38q30 0 45.5 -21.5t15.5 -55.5
q0 -76 -74 -76h-187q-30 0 -38 14t-8 53q0 24 9 41t17 23t22 14q101 47 101 178q0 69 -47 118t-130 49t-126 -47t-43 -111q0 -124 102 -184z" />
    <glyph glyph-name="Alphatonos.smcp" horiz-adv-x="680" 
d="M324 376l-46 -94h93q-1 2 -8 19t-16.5 35.5t-22.5 39.5zM487 45l-48 90h-226l-36 -75l1 3q-21 -63 -82 -63q-36 0 -54 22t-18 54q0 18 8 37l199 417q26 68 93 68t93 -67l208 -419q8 -19 8 -37q0 -34 -20 -54.5t-56 -20.5q-55 0 -73 49z" />
    <glyph glyph-name="Epsilontonos.smcp" horiz-adv-x="485" 
d="M17 85v418q0 84 80 84h270q40 0 59 -18.5t19 -58.5q0 -76 -78 -76h-197v-71h155q41 0 59.5 -15t18.5 -52t-18.5 -51.5t-59.5 -14.5h-155v-76h205q83 0 83 -77t-83 -77h-278q-52 0 -66 16t-14 69z" />
    <glyph glyph-name="Iotatonos.smcp" horiz-adv-x="207" 
d="M22 78v433q0 78 77 78t77 -78v-433q0 -78 -77 -78t-77 78z" />
    <glyph glyph-name="Etatonos.smcp" horiz-adv-x="574" 
d="M19 77v435q0 78 76 78q78 0 78 -78v-135h189v135q0 78 77 78q78 0 78 -78v-435q0 -77 -78 -77q-77 0 -77 77v145h-189v-145q0 -77 -77 -77t-77 77z" />
    <glyph glyph-name="Omicrontonos.smcp" horiz-adv-x="685" 
d="M328 592q129 0 215.5 -86.5t86.5 -215.5q0 -124 -84.5 -211t-217.5 -87q-137 0 -220.5 87.5t-83.5 213.5q0 51 18.5 101.5t54 96t96 73.5t135.5 28zM328 438q-67 0 -107 -39.5t-40 -103.5q0 -63 41.5 -106.5t107.5 -43.5q62 0 101.5 41t39.5 102q0 63 -40.5 106.5
t-102.5 43.5z" />
    <glyph glyph-name="Upsilontonos.smcp" horiz-adv-x="547" 
d="M185 83v107l-164 285q-11 18 -11 45q0 75 73 75q44 0 66 -41l118 -225q19 32 57.5 113.5t55.5 110.5q26 42 71 42q74 0 74 -72q0 -20 -11 -42l-173 -294v-104q0 -83 -78 -83t-78 83z" />
    <glyph glyph-name="Omegatonos.smcp" horiz-adv-x="719" 
d="M286 148l5 -3q15 -10 22.5 -16t16.5 -23t9 -39q0 -67 -66 -67h-174q-74 0 -74 76q0 34 15.5 55t44.5 21h38v4q-43 29 -71 75.5t-28 103.5q0 59 22 114.5t63 99t104.5 70t139.5 26.5q152 0 242.5 -93.5t90.5 -218.5q0 -96 -97 -176v-4h38q30 0 45.5 -21.5t15.5 -55.5
q0 -76 -74 -76h-187q-30 0 -38 14t-8 53q0 24 9 41t17 23t22 14q101 47 101 178q0 69 -47 118t-130 49t-126 -47t-43 -111q0 -124 102 -184z" />
    <glyph glyph-name="Iotadieresis.smcp" horiz-adv-x="169" 
d="M3 78v433q0 78 77 78t77 -78v-433q0 -78 -77 -78t-77 78z" />
    <glyph glyph-name="Upsilondieresis.smcp" horiz-adv-x="565" 
d="M195 83v107l-164 285q-11 18 -11 45q0 75 73 75q44 0 66 -41l118 -225q19 32 57.5 113.5t55.5 110.5q26 42 71 42q74 0 74 -72q0 -20 -11 -42l-173 -294v-104q0 -83 -78 -83t-78 83z" />
    <glyph glyph-name="sigma1.smcp" horiz-adv-x="565" 
d="M274 444l83 -91q18 -27 18 -53q0 -18 -14 -44l-108 -112h206q41 0 59.5 -15.5t18.5 -52.5q0 -76 -78 -76h-359q-75 0 -75 82q0 24 18 51l153 169l-133 151q-27 41 -27 61q0 74 90 74h322q78 0 78 -78q0 -37 -18.5 -51.5t-59.5 -14.5h-174z" />
    <glyph glyph-name="iotadieresistonos.smcp" horiz-adv-x="169" 
d="M3 78v433q0 78 77 78t77 -78v-433q0 -78 -77 -78t-77 78z" />
    <glyph glyph-name="upsilondieresistonos.smcp" horiz-adv-x="565" 
d="M195 83v107l-164 285q-11 18 -11 45q0 75 73 75q44 0 66 -41l118 -225q19 32 57.5 113.5t55.5 110.5q26 42 71 42q74 0 74 -72q0 -20 -11 -42l-173 -294v-104q0 -83 -78 -83t-78 83z" />
    <glyph glyph-name="zero.tnum" 
d="M333 772h4q56 0 102 -25t74.5 -65.5t48 -93t27.5 -104.5t8 -104q0 -64 -14.5 -129t-43.5 -125.5t-82 -98.5t-122 -38q-72 0 -126 36.5t-83 96t-43 124t-14 132.5q0 66 14.5 131t43.5 126t82.5 99t123.5 38zM335 147q26 0 46.5 24t31.5 60.5t16.5 73.5t5.5 70
q0 38 -5.5 77.5t-16.5 76.5t-31 60t-46 23q-29 0 -50.5 -24t-32 -62.5t-15.5 -75.5t-5 -73q0 -51 9 -100.5t33.5 -89.5t59.5 -40z" />
    <glyph glyph-name="one.tnum" 
d="M549 1h-384q-41 0 -59.5 13.5t-18.5 49.5q0 35 18.5 49.5t59.5 14.5h118v440q-31 -12 -54 -12q-31 0 -53.5 21t-22.5 53q0 27 16.5 49t49.5 31l147 40q52 0 70 -47q8 -11 8 -61v-514h105q41 0 60 -14.5t19 -50.5q0 -35 -19 -48.5t-60 -13.5z" />
    <glyph glyph-name="two.tnum" 
d="M101 541q0 101 71 164.5t164 63.5q91 0 160.5 -59.5t69.5 -151.5q0 -98 -73 -197l-155 -205h161q76 0 76 -77q0 -79 -77 -79h-296q-93 0 -93 77q0 29 22 59l243 329q30 39 30 86q0 27 -21.5 43.5t-49.5 16.5q-29 0 -50 -19.5t-21 -54.5q0 -31 -21.5 -59.5t-57.5 -28.5
q-38 0 -60 29t-22 63z" />
    <glyph glyph-name="three.tnum" 
d="M326 772q95 0 156.5 -63.5t61.5 -145.5q0 -100 -88 -156q57 -31 86 -80.5t29 -105.5q0 -92 -67.5 -162t-175.5 -70q-62 0 -113.5 28t-82.5 71q-29 41 -29 89q0 37 21.5 58.5t52.5 21.5q22 0 43.5 -13.5t31.5 -36.5q25 -58 75 -58q34 0 59 22t25 60q0 34 -17.5 63
t-48.5 34h-33q-85 0 -85 68q0 36 20.5 51t64.5 15q19 0 29 2q19 6 31.5 33t12.5 53q0 30 -16.5 48t-46.5 18q-59 0 -65 -50q-1 -16 -15.5 -35t-46.5 -19q-83 0 -83 72q0 74 61.5 131t152.5 57z" />
    <glyph glyph-name="four.tnum" 
d="M367 86v82h-210q-43 0 -67 25t-24 61q0 33 21 61l-2 -3l232 374q40 64 106 64q44 0 73 -30t29 -80v-316q75 0 75 -79q0 -76 -74 -76v-83q0 -86 -80 -86q-37 0 -58 22t-21 64zM367 485l-93 -161h93v161z" />
    <glyph glyph-name="five.tnum" 
d="M282 748h210q36 0 57 -24t21 -59q0 -78 -78 -78h-166q-4 -28 -12 -77q125 0 192 -74t67 -178q0 -108 -70 -188.5t-194 -80.5q-92 0 -160.5 51.5t-68.5 105.5q0 36 21.5 56.5t51.5 20.5q38 0 63 -34q15 -19 42.5 -31.5t54.5 -12.5q43 0 71 31.5t28 73.5q0 43 -26.5 74.5
t-74.5 31.5q-17 0 -45.5 -7.5t-43.5 -7.5q-80 0 -80 77q0 16 47 257q15 73 93 73z" />
    <glyph glyph-name="six.tnum" 
d="M445 616q-5 -5 -23 -20.5t-26 -23t-23.5 -23t-24.5 -26.5t-19.5 -27t-17.5 -32q28 15 81 15q91 0 141 -65t50 -155q0 -110 -69.5 -190t-179.5 -80q-116 0 -181 83t-65 200q0 125 67.5 241t171.5 213q31 24 60 24q35 0 58.5 -21.5t23.5 -58.5q0 -30 -24 -54zM246 258
q0 -45 23.5 -79t64.5 -35q42 4 67 36.5t25 76.5q0 42 -24 72t-70 30q-42 0 -64 -30t-22 -71z" />
    <glyph glyph-name="seven.tnum" 
d="M173 749h315q34 0 59.5 -24t25.5 -62q0 -19 -9 -41l-236 -559q-27 -63 -84 -63q-38 0 -56.5 23.5t-18.5 55.5q0 21 9 41l200 467h-205q-86 0 -86 82q0 80 86 80z" />
    <glyph glyph-name="eight.tnum" 
d="M90 237q0 52 28.5 101t72.5 74q-34 21 -55 61.5t-21 85.5q0 88 64.5 148.5t154.5 60.5q93 0 153.5 -58.5t60.5 -150.5q0 -40 -22 -80t-55 -61q41 -20 73 -75t32 -108q0 -101 -70 -173.5t-171 -72.5q-109 0 -177 70t-68 178zM335 330q-36 0 -58.5 -26.5t-22.5 -63.5
q0 -39 22 -65t59 -26q34 0 55.5 26t21.5 63q0 39 -22 65.5t-55 26.5zM332 485q23 0 38 21t15 48t-15.5 42.5t-36.5 15.5q-23 0 -40.5 -15.5t-17.5 -42.5q0 -29 15 -49t42 -20z" />
    <glyph glyph-name="nine.tnum" 
d="M229 125q102 82 154 159q-48 -17 -94 -17q-98 0 -156.5 73t-58.5 165q0 108 67.5 187t188.5 79q114 0 182 -82t68 -207q0 -52 -12 -107t-38.5 -118t-78.5 -129.5t-124 -124.5q-24 -19 -55 -19q-32 0 -54 21t-22 52q0 40 33 68zM326 613q-44 0 -68 -34.5t-24 -78.5
q0 -51 27 -80.5t66 -29.5q42 0 69.5 27.5t27.5 81.5q0 45 -25.5 79.5t-72.5 34.5z" />
    <glyph glyph-name="zero.onum.tnum" horiz-adv-x="629" 
d="M333 629h4q124 0 192 -94t68 -223q0 -84 -27.5 -155.5t-88.5 -119.5t-146 -48q-125 0 -195 95t-70 225q0 83 28.5 154t89.5 118.5t145 47.5zM335 147q48 0 75.5 47t27.5 112q0 66 -27.5 115t-74.5 49q-51 0 -78.5 -47t-27.5 -112q0 -67 27.5 -115.5t77.5 -48.5z" />
    <glyph glyph-name="one.onum.tnum" 
d="M549 1h-384q-41 0 -59.5 13.5t-18.5 49.5q0 35 18.5 49.5t59.5 14.5h118v317q-31 -12 -54 -12q-31 0 -53.5 21t-22.5 53q0 27 16.5 49t49.5 31l147 40q52 0 70 -47q8 -11 8 -61v-391h105q41 0 60 -14.5t19 -50.5q0 -35 -19 -48.5t-60 -13.5z" />
    <glyph glyph-name="two.onum.tnum" 
d="M101 407q0 102 70.5 165t164.5 63q91 0 160.5 -60t69.5 -152q0 -27 -4 -46.5t-20 -51.5t-54 -74t-98 -95h109q76 0 76 -77q0 -79 -77 -79h-296q-93 0 -93 77q0 32 26 65q132 113 185.5 162.5t68.5 71t15 42.5q0 27 -21.5 43.5t-49.5 16.5q-29 0 -50 -20t-21 -55
q0 -30 -21.5 -58.5t-57.5 -28.5q-38 0 -60 28.5t-22 62.5z" />
    <glyph glyph-name="three.onum.tnum" 
d="M326 642q95 0 156.5 -63.5t61.5 -145.5q0 -100 -88 -156q57 -31 86 -80.5t29 -105.5q0 -92 -67.5 -162t-175.5 -70q-62 0 -113.5 28t-82.5 71q-29 41 -29 89q0 37 21.5 58.5t52.5 21.5q22 0 43.5 -13.5t31.5 -36.5q25 -58 75 -58q34 0 59 22t25 60q0 34 -17.5 63
t-48.5 34h-33q-85 0 -85 68q0 36 20.5 51t64.5 15q19 0 29 2q19 6 31.5 33t12.5 53q0 30 -16.5 48t-46.5 18q-59 0 -65 -50q-1 -16 -15.5 -35t-46.5 -19q-83 0 -83 72q0 74 61.5 131t152.5 57z" />
    <glyph glyph-name="four.onum.tnum" 
d="M367 -29v81h-210q-43 0 -67 25t-24 62q0 33 21 60l230 371q39 63 106 63q44 0 73 -29.5t29 -78.5v-316q75 -1 75 -80q0 -75 -74 -75v-83q0 -87 -80 -87q-37 0 -58 22.5t-21 64.5zM367 359l-93 -150h93v150z" />
    <glyph glyph-name="five.onum.tnum" 
d="M282 608h210q36 0 57 -24t21 -59q0 -78 -78 -78h-166q-4 -28 -12 -77q125 0 192 -74t67 -178q0 -108 -70 -188.5t-194 -80.5q-92 0 -160.5 51.5t-68.5 105.5q0 36 21.5 56.5t51.5 20.5q38 0 63 -34q15 -19 42.5 -31.5t54.5 -12.5q43 0 71 31.5t28 73.5q0 43 -26.5 74.5
t-74.5 31.5q-17 0 -45.5 -7.5t-43.5 -7.5q-80 0 -80 77q0 16 47 257q15 73 93 73z" />
    <glyph glyph-name="six.onum.tnum" 
d="M445 616q-5 -5 -23 -20.5t-26 -23t-23.5 -23t-24.5 -26.5t-19.5 -27t-17.5 -32q28 15 81 15q91 0 141 -65t50 -155q0 -110 -69.5 -190t-179.5 -80q-116 0 -181 83t-65 200q0 125 67.5 241t171.5 213q31 24 60 24q35 0 58.5 -21.5t23.5 -58.5q0 -30 -24 -54zM246 258
q0 -45 23.5 -79t64.5 -35q42 4 67 36.5t25 76.5q0 42 -24 72t-70 30q-42 0 -64 -30t-22 -71z" />
    <glyph glyph-name="seven.onum.tnum" 
d="M173 622h315q34 0 59.5 -24.5t25.5 -62.5q0 -17 -9 -40l-236 -559q-27 -63 -84 -63q-38 0 -56.5 23.5t-18.5 55.5q0 21 9 41l200 467h-205q-86 0 -86 81t86 81z" />
    <glyph glyph-name="eight.onum.tnum" 
d="M90 237q0 52 28.5 101t72.5 74q-34 21 -55 61.5t-21 85.5q0 88 64.5 148.5t154.5 60.5q93 0 153.5 -58.5t60.5 -150.5q0 -40 -22 -80t-55 -61q41 -20 73 -75t32 -108q0 -101 -70 -173.5t-171 -72.5q-109 0 -177 70t-68 178zM335 330q-36 0 -58.5 -26.5t-22.5 -63.5
q0 -39 22 -65t59 -26q34 0 55.5 26t21.5 63q0 39 -22 65.5t-55 26.5zM332 485q23 0 38 21t15 48t-15.5 42.5t-36.5 15.5q-23 0 -40.5 -15.5t-17.5 -42.5q0 -29 15 -49t42 -20z" />
    <glyph glyph-name="nine.onum.tnum" 
d="M229 -19q102 82 154 159q-48 -17 -94 -17q-98 0 -156.5 73t-58.5 165q0 108 67.5 187t188.5 79q114 0 182 -82t68 -207q0 -52 -12 -107t-38.5 -118t-78.5 -129.5t-124 -124.5q-24 -19 -55 -19q-32 0 -54 21t-22 52q0 41 33 68zM326 464q-44 0 -68 -34.5t-24 -78.5
q0 -51 27 -80.5t66 -29.5q42 0 69.5 27.5t27.5 81.5q0 45 -25.5 79.5t-72.5 34.5z" />
    </font>
</defs>
</svg>
